<svg width="95" height="56" viewBox="0 0 95 56" fill="none" xmlns="http://www.w3.org/2000/svg">
<path d="M87.7863 43.8809C87.7863 50.1543 82.6996 55.2396 76.4245 55.2396C70.1493 55.2396 65.0626 50.1543 65.0626 43.8809C65.0626 34.7292 59.2226 26.9156 51.0716 23.9714C50.8478 23.8896 50.6205 23.8124 50.3933 23.7385C48.3436 23.0752 46.1599 22.7174 43.8932 22.7174C43.5796 22.7174 43.266 22.7242 42.9558 22.739C42.7411 22.7469 42.5263 22.7594 42.3127 22.7753C31.3747 23.5863 22.7237 32.7426 22.7237 43.8809C22.7237 50.1543 17.637 55.2396 11.3619 55.2396C5.08671 55.2396 0 50.1543 0 43.8809C0 37.9619 1.16232 32.2144 3.45401 26.7974C5.66503 21.5702 8.82817 16.879 12.856 12.8524C16.8837 8.82571 21.5762 5.66345 26.8049 3.45304C32.2234 1.16199 37.9725 0 43.8932 0C44.6862 0 45.477 0.0204457 46.2633 0.0636087C46.2689 0.0636087 46.2758 0.0636087 46.2814 0.0647446C46.4848 0.0761033 46.6893 0.087462 46.8927 0.102228C46.9041 0.102228 46.9154 0.103364 46.9268 0.1045C51.7783 0.43163 56.4935 1.55501 60.9814 3.45304C66.2102 5.66345 70.9026 8.82571 74.9304 12.8524C78.9582 16.879 82.1213 21.5702 84.3323 26.7974C86.624 32.2144 87.7863 37.9619 87.7863 43.8809Z" fill="#E7F1FD"/>
<path d="M28.9307 28.9227C25.0984 32.7551 22.7237 38.046 22.7237 43.8809C22.7237 50.1543 17.637 55.2396 11.3619 55.2396C5.08671 55.2396 0 50.1543 0 43.8809C0 37.9619 1.16232 32.2144 3.45401 26.7974C5.66503 21.5702 8.82817 16.879 12.856 12.8524C12.856 12.8524 12.8567 12.8516 12.8582 12.8501L12.8628 12.8592L28.9307 28.9227Z" fill="url(#paint0_linear_1180_27343)"/>
<g style="mix-blend-mode:multiply">
<path d="M34.8866 24.7278C34.6707 24.8277 34.4548 24.9345 34.2424 25.0424C32.3233 26.0227 30.527 27.313 28.9239 28.9157C28.7023 29.1372 28.4853 29.3644 28.2763 29.5938C22.0079 20.7761 15.693 11.7255 15.0488 10.8043C15.0147 10.7532 14.9954 10.7271 14.9954 10.7271C14.9954 10.7271 15.0215 10.7452 15.0738 10.7816C16.0407 11.4563 25.763 18.2363 34.8855 24.7278H34.8866Z" fill="#E6E7E8"/>
</g>
<path d="M48.939 38.8367C51.726 41.623 51.726 46.1404 48.939 48.9255C46.1519 51.7118 41.6333 51.7118 38.8473 48.9255C36.0603 46.1392 12.8628 12.8594 12.8628 12.8594C12.8628 12.8594 46.1519 36.0504 48.939 38.8367Z" fill="#231F20"/>
<path d="M43.8932 47.0717C45.6558 47.0717 47.0847 45.6432 47.0847 43.8811C47.0847 42.1189 45.6558 40.6904 43.8932 40.6904C42.1305 40.6904 40.7016 42.1189 40.7016 43.8811C40.7016 45.6432 42.1305 47.0717 43.8932 47.0717Z" fill="white"/>
<path d="M75.9836 55.2394C86.4861 55.2394 95 46.7279 95 36.2283C95 25.7288 86.4861 17.2173 75.9836 17.2173C65.4812 17.2173 56.9673 25.7288 56.9673 36.2283C56.9673 46.7279 65.4812 55.2394 75.9836 55.2394Z" fill="url(#paint1_linear_1180_27343)"/>
<path d="M78.2186 34.2119H73.7477V47.6197H78.2186V34.2119Z" fill="white"/>
<path d="M75.9836 29.7423C76.6165 29.7423 77.1482 29.5276 77.5766 29.0994C78.0049 28.6711 78.2196 28.1407 78.2196 27.5069C78.2196 26.8731 78.0049 26.3426 77.5766 25.9144C77.1482 25.4862 76.6176 25.2715 75.9836 25.2715C75.3496 25.2715 74.819 25.4862 74.3907 25.9144C73.9623 26.3426 73.7476 26.8731 73.7476 27.5069C73.7476 28.1407 73.9623 28.6711 74.3907 29.0994C74.819 29.5276 75.3496 29.7423 75.9836 29.7423Z" fill="white"/>
<defs>
<linearGradient id="paint0_linear_1180_27343" x1="24.6189" y1="23.8919" x2="1.73567" y2="46.7826" gradientUnits="userSpaceOnUse">
<stop stop-color="#11998E"/>
<stop offset="1" stop-color="#38EF7D"/>
</linearGradient>
<linearGradient id="paint1_linear_1180_27343" x1="56.9673" y1="36.2283" x2="95" y2="36.2283" gradientUnits="userSpaceOnUse">
<stop stop-color="#11998E"/>
<stop offset="1" stop-color="#38EF7D"/>
</linearGradient>
</defs>
</svg>
