<?xml version="1.0" encoding="UTF-8"?>
<svg xmlns="http://www.w3.org/2000/svg" xmlns:xlink="http://www.w3.org/1999/xlink" viewBox="0 0 972.09 486.42">
  <defs>
    <style>
      .cls-1 {
        fill: url(#linear-gradient-2);
      }

      .cls-2 {
        fill: #fff;
      }

      .cls-3 {
        fill: #231f20;
      }

      .cls-4 {
        isolation: isolate;
      }

      .cls-5 {
        fill: #e7f1fd;
      }

      .cls-6 {
        fill: #e6e7e8;
        mix-blend-mode: multiply;
      }

      .cls-7 {
        fill: url(#linear-gradient);
      }
    </style>
    <linearGradient id="linear-gradient" x1="-16.01" y1="365.7" x2="789.78" y2="-78.55" gradientUnits="userSpaceOnUse">
      <stop offset="0" stop-color="#e52d27"/>
      <stop offset="1" stop-color="#b31217"/>
    </linearGradient>
    <linearGradient id="linear-gradient-2" x1="511.29" y1="281.68" x2="972.09" y2="281.68" xlink:href="#linear-gradient"/>
  </defs>
  <g class="cls-4">
    <g id="Layer_2" data-name="Layer 2">
      <g id="riskgauge_with_alert_icon" data-name="riskgauge with alert icon">
        <g id="map_riskgauge_3">
          <g>
            <path class="cls-5" d="M772.64,386.32c0,55.23-44.77,100-100,100s-100-44.77-100-100c0-80.57-51.4-149.36-123.14-175.28-1.97-.72-3.97-1.4-5.97-2.05-18.04-5.84-37.26-8.99-57.21-8.99-2.76,0-5.52.06-8.25.19-1.89.07-3.78.18-5.66.32-96.27,7.14-172.41,87.75-172.41,185.81,0,55.23-44.77,100-100,100S0,441.55,0,386.32c0-52.11,10.23-102.71,30.4-150.4,19.46-46.02,47.3-87.32,82.75-122.77,35.45-35.45,76.75-63.29,122.77-82.75C283.61,10.23,334.21,0,386.32,0c6.98,0,13.94.18,20.86.56.05-.01.11,0,.16.01,1.79.1,3.59.2,5.38.33.1,0,.2.01.3.02,42.7,2.88,84.2,12.77,123.7,29.48,46.02,19.46,87.32,47.3,122.77,82.75,35.45,35.45,63.29,76.75,82.75,122.77,20.17,47.69,30.4,98.29,30.4,150.4Z"/>
            <path class="cls-7" d="M659.49,113.15l-.06.06-141.43,141.43c-19.17-19.18-42.5-34.21-68.5-43.6-1.97-.72-3.97-1.4-5.97-2.05-18.04-5.84-37.26-8.99-57.21-8.99-2.76,0-5.52.06-8.25.19-1.89.07-3.78.18-5.66.32-96.27,7.14-172.41,87.75-172.41,185.81,0,55.23-44.77,100-100,100S0,441.55,0,386.32C0,334.21,10.23,283.61,30.4,235.92c19.46-46.02,47.3-87.32,82.75-122.77,35.45-35.45,76.75-63.29,122.77-82.75C283.61,10.23,334.21,0,386.32,0c6.98,0,13.94.18,20.86.56.05-.01.11,0,.16.01,1.79.1,3.59.2,5.38.33.1,0,.2.01.3.02,42.7,2.88,84.2,12.77,123.7,29.48,46.02,19.46,87.32,47.3,122.77,82.75Z"/>
            <path class="cls-6" d="M554.94,307.05c-.88-1.9-1.82-3.8-2.77-5.67-8.63-16.89-19.99-32.7-34.1-46.81-1.95-1.95-3.95-3.86-5.97-5.7,77.63-55.17,157.31-110.75,165.42-116.42.45-.3.68-.47.68-.47,0,0-.16.23-.48.69-5.94,8.51-65.63,94.08-122.78,174.37Z"/>
            <path class="cls-3" d="M430.73,430.73c-24.53,24.53-64.3,24.53-88.82,0s-24.53-64.3,0-88.82c24.53-24.53,317.52-228.7,317.52-228.7,0,0-204.17,292.99-228.7,317.52Z"/>
            <circle class="cls-2" cx="386.32" cy="386.32" r="28.09"/>
          </g>
          <g>
            <path class="cls-1" d="M707.67,96.58l-191.05,330.91c-15.12,26.19,3.78,58.93,34.02,58.93h382.11c30.24,0,49.14-32.74,34.02-58.93l-191.05-330.91c-15.12-26.19-52.92-26.19-68.04,0Z"/>
            <g>
              <path class="cls-2" d="M741.69,449.07c9.25,0,17.01-3.13,23.27-9.39,6.26-6.26,9.39-14.02,9.39-23.27s-3.13-17.01-9.39-23.27c-6.26-6.26-14.02-9.39-23.27-9.39s-17.01,3.13-23.27,9.39c-6.26,6.26-9.39,14.02-9.39,23.27s3.13,17.01,9.39,23.27c6.26,6.26,14.02,9.39,23.27,9.39Z"/>
              <rect class="cls-2" x="709.03" y="187.77" width="65.32" height="163.31"/>
            </g>
          </g>
        </g>
      </g>
    </g>
  </g>
</svg>