<svg width="100" height="51" viewBox="0 0 100 51" fill="none" xmlns="http://www.w3.org/2000/svg">
<g clip-path="url(#clip0_1126_2352)">
<path d="M79.5326 41.5131C79.5326 47.305 74.8662 52 69.1095 52C63.3529 52 58.6865 47.305 58.6865 41.5131C58.6865 33.0638 53.329 25.8498 45.8516 23.1316C45.6462 23.0561 45.4378 22.9848 45.2293 22.9166C43.349 22.3042 41.3457 21.9738 39.2663 21.9738C38.9786 21.9738 38.6909 21.9801 38.4064 21.9938C38.2094 22.0011 38.0124 22.0126 37.8164 22.0273C27.7822 22.7761 19.8461 31.2296 19.8461 41.5131C19.8461 47.305 15.1797 52 9.42304 52C3.66639 52 -1 47.305 -1 41.5131C-1 36.0483 0.0662766 30.742 2.1686 25.7407C4.19693 20.9147 7.0987 16.5836 10.7937 12.866C14.4886 9.14834 18.7933 6.22878 23.59 4.18802C28.5608 2.07281 33.8348 1 39.2663 1C39.9938 1 40.7192 1.01888 41.4405 1.05873C41.4457 1.05873 41.452 1.05873 41.4572 1.05978C41.6438 1.07026 41.8314 1.08075 42.018 1.09438C42.0284 1.09438 42.0388 1.09543 42.0492 1.09648C46.4999 1.3985 50.8254 2.43566 54.9425 4.18802C59.7392 6.22878 64.0439 9.14834 67.7389 12.866C71.4339 16.5836 74.3356 20.9147 76.3639 25.7407C78.4663 30.742 79.5326 36.0483 79.5326 41.5131Z" fill="#E7F1FD"/>
<path d="M39.2663 1V21.9738C28.5576 21.9738 19.8461 30.7388 19.8461 41.5131C19.8461 47.305 15.1797 52 9.42304 52C3.66639 52 -1 47.305 -1 41.5131C-1 36.0483 0.0662766 30.742 2.1686 25.7407C4.19693 20.9147 7.0987 16.5836 10.7937 12.866C14.4886 9.14834 18.7933 6.22878 23.59 4.18802C28.5608 2.07281 33.8348 1 39.2663 1Z" fill="url(#paint0_linear_1126_2352)"/>
<g style="mix-blend-mode:multiply">
<path d="M45.8515 23.1316C45.6462 23.0561 45.4378 22.9848 45.2293 22.9166C43.349 22.3042 41.3457 21.9739 39.2663 21.9739C38.9786 21.9739 38.6909 21.9802 38.4064 21.9938C40.0616 12.1466 41.8376 2.11583 42.018 1.0944C42.0284 1.03882 42.0336 1.00946 42.0336 1.00946C42.0336 1.00946 42.0388 1.03882 42.0492 1.0965C42.2389 2.16827 44.1463 12.9394 45.8515 23.1316Z" fill="#E6E7E8"/>
</g>
<path d="M45.813 41.5131C45.813 45.151 42.882 48.0999 39.2663 48.0999C35.6505 48.0999 32.7195 45.151 32.7195 41.5131C32.7195 37.8752 39.2663 1.00946 39.2663 1.00946C39.2663 1.00946 45.813 37.8762 45.813 41.5131Z" fill="#231F20"/>
<path d="M39.2663 44.4588C40.8833 44.4588 42.1941 43.1399 42.1941 41.513C42.1941 39.8861 40.8833 38.5673 39.2663 38.5673C37.6493 38.5673 36.3384 39.8861 36.3384 41.513C36.3384 43.1399 37.6493 44.4588 39.2663 44.4588Z" fill="white"/>
<path d="M71.3578 10.4875L51.4446 45.1898C49.8686 47.9363 51.8385 51.3697 54.9905 51.3697H94.8179C97.9699 51.3697 99.9398 47.9363 98.3639 45.1898L78.4507 10.4875C76.8747 7.74098 72.9348 7.74098 71.3588 10.4875H71.3578Z" fill="url(#paint1_linear_1126_2352)"/>
<path d="M74.9047 47.4528C75.8688 47.4528 76.6777 47.1246 77.3302 46.4681C77.9826 45.8116 78.3089 44.9978 78.3089 44.0278C78.3089 43.0578 77.9826 42.244 77.3302 41.5875C76.6777 40.931 75.8688 40.6028 74.9047 40.6028C73.9406 40.6028 73.1317 40.931 72.4793 41.5875C71.8268 42.244 71.5005 43.0578 71.5005 44.0278C71.5005 44.9978 71.8268 45.8116 72.4793 46.4681C73.1317 47.1246 73.9406 47.4528 74.9047 47.4528Z" fill="white"/>
<path d="M78.3078 20.0505H71.4995V37.1767H78.3078V20.0505Z" fill="white"/>
</g>
<defs>
<linearGradient id="paint0_linear_1126_2352" x1="42.0117" y1="2.50592" x2="1.80769" y2="42.465" gradientUnits="userSpaceOnUse">
<stop stop-color="#FF8008"/>
<stop offset="1" stop-color="#FFC837"/>
</linearGradient>
<linearGradient id="paint1_linear_1126_2352" x1="50.8901" y1="29.8988" x2="98.9184" y2="29.8988" gradientUnits="userSpaceOnUse">
<stop stop-color="#FF8008"/>
<stop offset="1" stop-color="#FFC837"/>
</linearGradient>
<clipPath id="clip0_1126_2352">
<rect width="99.9184" height="51" fill="white"/>
</clipPath>
</defs>
</svg>
