<?xml version="1.0" encoding="UTF-8"?><svg xmlns="http://www.w3.org/2000/svg" viewBox="0 0 500 230"><defs><style>.cls-1{stroke:#fff;stroke-miterlimit:10;stroke-width:5px;}.cls-1,.cls-2{fill:none;}.cls-2,.cls-3,.cls-4{stroke-width:0px;}.cls-3{fill:#fff;}.cls-4{fill:#231f20;}</style></defs><g id="Back"><rect class="cls-2" y="0" width="500" height="230"/></g><g id="Ships"><g id="cargo_ship_side"><g id="Outline_Cargo"><path class="cls-1" d="m359.62,156.92v-19.68h-45.06v19.68h-4.08v-19.68h-45.06v19.68h-4.08v-19.68h-45.06v19.68h-4.08v-19.68h-45.06v19.68h-4.08v-19.68h-45.06v19.68h-7.12l-13.13-8.37H14.88c35.73,31.53,55.14,65.74,55.14,65.74h352.91c40.75,0,56.56-41.97,56.56-54.44v-2.93h-119.87Z"/><polygon class="cls-1" points="471.68 156.34 471.68 147.69 463.71 147.69 469.94 94.01 445.22 94.01 430.36 134.25 412.48 114.54 382.55 114.54 390.05 156.34 471.68 156.34"/><rect class="cls-1" x="118" y="111.51" width="45.06" height="22.61"/><rect class="cls-1" x="167.14" y="111.51" width="45.06" height="22.61"/><rect class="cls-1" x="216.28" y="111.51" width="45.06" height="22.61"/><rect class="cls-1" x="265.41" y="111.51" width="45.06" height="22.61"/><rect class="cls-1" x="314.56" y="111.51" width="45.06" height="22.61"/></g><polygon class="cls-4" points="463.71 147.69 425.4 147.69 445.22 94.01 469.94 94.01 463.71 147.69"/><path class="cls-4" d="m110.88,156.32l-13.13-8.37H14.88c35.73,31.53,55.14,65.74,55.14,65.74h352.91c40.75,0,56.56-41.97,56.56-54.44v-2.93H110.88Z"/><polygon class="cls-4" points="442.56 147.69 412.48 114.54 382.55 114.54 390.05 156.34 471.68 156.34 471.68 147.69 442.56 147.69"/><path class="cls-3" d="m94.15,171.8c0,2.96-2.23,5.37-4.99,5.37s-4.99-2.41-4.99-5.37,2.24-5.37,4.99-5.37,4.99,2.41,4.99,5.37Z"/><path class="cls-3" d="m76.55,204.89h346.38c13.09,0,23.07-5.03,30.46-11.8H71.09c2.35,4.66,4.18,8.76,5.46,11.8Z"/><rect class="cls-4" x="118" y="137.24" width="45.06" height="22.62"/><rect class="cls-4" x="167.14" y="137.24" width="45.06" height="22.62"/><rect class="cls-4" x="216.28" y="137.24" width="45.06" height="22.62"/><rect class="cls-4" x="265.41" y="137.24" width="45.06" height="22.62"/><rect class="cls-4" x="314.56" y="137.24" width="45.06" height="22.62"/><rect class="cls-4" x="118" y="111.51" width="45.06" height="22.61"/><polygon class="cls-3" points="157.77 129.87 123.29 129.87 123.29 115.77 157.77 115.77 157.77 129.87 157.77 129.87"/><rect class="cls-4" x="167.14" y="111.51" width="45.06" height="22.61"/><rect class="cls-4" x="216.28" y="111.51" width="45.06" height="22.61"/><rect class="cls-4" x="265.41" y="111.51" width="45.06" height="22.61"/><rect class="cls-4" x="314.56" y="111.51" width="45.06" height="22.61"/><polygon class="cls-3" points="439.99 152.02 409.92 118.87 389.72 118.87 396.39 156.34 466.64 156.34 466.64 152.02 439.99 152.02"/><polygon class="cls-4" points="412.01 131.09 391.9 131.1 390.62 123.95 405.85 123.95 412.01 131.09"/><polygon class="cls-4" points="413.65 140.27 393.54 140.28 392.26 133.13 407.49 133.13 413.65 140.27"/><polygon class="cls-3" points="463.95 110.86 449.32 110.87 452.32 102.76 464.89 102.76 463.95 110.86"/><polygon class="cls-3" points="157.77 155.6 123.29 155.6 123.29 141.5 157.77 141.5 157.77 155.6 157.77 155.6"/><polygon class="cls-3" points="206.91 129.87 172.43 129.87 172.43 115.77 206.91 115.77 206.91 129.87 206.91 129.87"/><polygon class="cls-3" points="206.91 155.6 172.43 155.6 172.43 141.5 206.91 141.5 206.91 155.6 206.91 155.6"/><polygon class="cls-3" points="256.14 129.87 221.66 129.87 221.66 115.77 256.14 115.77 256.14 129.87 256.14 129.87"/><polygon class="cls-3" points="256.14 155.6 221.66 155.6 221.66 141.5 256.14 141.5 256.14 155.6 256.14 155.6"/><polygon class="cls-3" points="305.28 129.87 270.8 129.87 270.8 115.77 305.28 115.77 305.28 129.87 305.28 129.87"/><polygon class="cls-3" points="305.28 155.6 270.8 155.6 270.8 141.5 305.28 141.5 305.28 155.6 305.28 155.6"/><polygon class="cls-3" points="354.33 129.87 319.84 129.87 319.84 115.77 354.33 115.77 354.33 129.87 354.33 129.87"/><polygon class="cls-3" points="354.33 155.6 319.84 155.6 319.84 141.5 354.33 141.5 354.33 155.6 354.33 155.6"/></g></g></svg>