<?xml version="1.0" encoding="UTF-8"?><svg xmlns="http://www.w3.org/2000/svg" viewBox="0 0 147.15 46.65"><defs><style>.cls-1{stroke:#fff;stroke-miterlimit:10;stroke-width:.25px;}.cls-1,.cls-2{fill:#231f20;}.cls-3{fill:none;}.cls-3,.cls-4,.cls-2{stroke-width:0px;}.cls-4{fill:#fff;}</style></defs><g id="transparent_box_that_keeps_the_svg_output_always_the_same"><rect class="cls-3" width="147.15" height="46.65"/></g><g id="NEW_ONES_FOR_REVIEW"><g id="commercial_fishing_boat_slow"><g id="V2"><g id="FishingBoat"><path class="cls-4" d="m30.97,29.47h-10.34c-8.88,0-12.29-5.42-12.29-5.42,0,0,3.41-5.66,12.29-5.66h10.34s8.55,0,15.08,1.92v7.49c-6.53,1.67-15.08,1.67-15.08,1.67Z"/><path class="cls-2" d="m45.23,27.15v-6.22c-6.26-1.7-14.18-1.72-14.26-1.72h-10.34c-6.94,0-10.3,3.56-11.28,4.83.99,1.22,4.35,4.61,11.28,4.61h10.34c.08,0,7.99-.02,14.26-1.5h0Z"/><path class="cls-4" d="m43.82,26.02v-4c-1.96-.46-7.96-1.19-9.86-1.4v-.71c2.12.23,8.39,1.01,10.56,1.56v5.12c-2.18.48-8.45,1.15-10.56,1.35v-.71c1.89-.18,7.9-.82,9.86-1.22Z"/><path class="cls-4" d="m20.63,20.61c-5.06,0-8.02,2.1-9.37,3.4,1.35,1.24,4.32,3.23,9.37,3.23h13.33v.7h-13.33c-5.94,0-9.13-2.61-10.36-3.92,1.22-1.36,4.41-4.11,10.36-4.11h13.33v.7h-13.33Z"/><path class="cls-4" d="m40.72,21.07s1.83-4.16,1.59-6.25c-.3-2.74-2.24-5.27-2.24-5.27l-.47.49s1.83,2.88,2.05,4.77-1.68,6.13-1.68,6.13l.74.14Z"/><rect class="cls-4" x="33.83" y="6.75" width=".88" height="18.17" transform="translate(22.56 -20.06) rotate(47.14)"/><rect class="cls-1" x="39.45" y="9.11" width="1.57" height="2.37" transform="translate(20.42 -26.2) rotate(47.14)"/><path class="cls-4" d="m40.72,26.72s1.83,4.16,1.59,6.25c-.3,2.74-2.24,5.27-2.24,5.27l-.47-.49s1.83-2.88,2.05-4.77-1.68-6.13-1.68-6.13l.74-.14Z"/><rect class="cls-4" x="33.83" y="22.88" width=".88" height="18.17" transform="translate(-12.47 35.34) rotate(-47.14)"/><rect class="cls-1" x="39.45" y="36.32" width="1.57" height="2.37" transform="translate(-14.62 41.48) rotate(-47.14)"/><g id="Top_Cover"><path class="cls-2" d="m24.27,27.91h6.2s0,.85,0,.85h-6.2c-.06,0-1.39-.01-5.97-.51v-.85c4.57.5,5.91.51,5.97.51Z"/><path class="cls-2" d="m30.47,19.09v.85s-6.2,0-6.2,0c-.06,0-1.4,0-5.97.45v-.85c4.58-.43,5.91-.44,5.97-.44h6.2Z"/><path class="cls-4" d="m24.27,27.91c-.06,0-1.4-.01-5.97-.51v-7.01c4.57-.44,5.91-.45,5.97-.45h6.2s0,7.97,0,7.97h-6.2Z"/><rect class="cls-2" x="30.47" y="19.09" width=".88" height="9.67"/><path class="cls-2" d="m18.3,19.53v8.72s-.88-.1-.88-.1v-8.53s.88-.09.88-.09Z"/></g><circle class="cls-2" cx="22.19" cy="23.93" r=".97"/><g id="Spool"><rect class="cls-2" x="42.88" y="20.71" width="4.35" height="6.69"/><rect class="cls-2" x="42.29" y="20.06" width="5.54" height=".67"/><rect class="cls-2" x="42.29" y="27.39" width="5.54" height=".67"/><rect class="cls-4" x="42.88" y="20.71" width="4.35" height=".35"/><rect class="cls-4" x="42.88" y="27.04" width="4.35" height=".35"/><rect class="cls-4" x="42.88" y="25.98" width="4.35" height=".35"/><rect class="cls-4" x="42.88" y="24.93" width="4.35" height=".35"/><rect class="cls-4" x="42.88" y="23.88" width="4.35" height=".35"/><rect class="cls-4" x="42.88" y="22.82" width="4.35" height=".35"/><rect class="cls-4" x="42.88" y="21.77" width="4.35" height=".35"/></g></g></g></g></g></svg>