<?xml version="1.0" encoding="UTF-8"?><svg xmlns="http://www.w3.org/2000/svg" xmlns:xlink="http://www.w3.org/1999/xlink" viewBox="0 0 147.15 46.65"><defs><style>.cls-1{fill:url(#linear-gradient);}.cls-1,.cls-2,.cls-3,.cls-4,.cls-5,.cls-6,.cls-7{stroke-width:0px;}.cls-2{fill:none;}.cls-3{fill:#fff;}.cls-4{fill:url(#linear-gradient-2);}.cls-5{fill:url(#linear-gradient-3);}.cls-6{fill:#231f20;}.cls-7{fill:url(#linear-gradient-4);}</style><linearGradient id="linear-gradient" x1="38.79" y1="16.63" x2="77.12" y2="16.63" gradientTransform="translate(0 49.9) scale(1 -1)" gradientUnits="userSpaceOnUse"><stop offset=".26" stop-color="#fff"/><stop offset=".38" stop-color="#fff" stop-opacity=".74"/><stop offset=".51" stop-color="#fff" stop-opacity=".51"/><stop offset=".62" stop-color="#fff" stop-opacity=".33"/><stop offset=".73" stop-color="#fff" stop-opacity=".19"/><stop offset=".84" stop-color="#fff" stop-opacity=".08"/><stop offset=".93" stop-color="#fff" stop-opacity=".02"/><stop offset="1" stop-color="#fff" stop-opacity="0"/></linearGradient><linearGradient id="linear-gradient-2" y1="35.32" y2="35.32" xlink:href="#linear-gradient"/><linearGradient id="linear-gradient-3" x1="40.63" y1="17.83" x2="59.32" y2="17.83" gradientTransform="translate(6.81 46.68) rotate(-2.49) scale(1 -1)" xlink:href="#linear-gradient"/><linearGradient id="linear-gradient-4" x1="52.1" y1="281.67" x2="70.8" y2="281.67" gradientTransform="translate(6.81 -262.92) rotate(2.49)" xlink:href="#linear-gradient"/></defs><g id="transparent_box_that_keeps_the_svg_output_always_the_same"><rect class="cls-2" width="147.15" height="46.65"/></g><g id="NEW_ONES_FOR_REVIEW"><g id="high_speed_craft_medium"><g id="speedy_craft"><path class="cls-3" d="m44.79,19.86v.62s0,6.91,0,6.91v.62s-.61.12-.61.12c-5.31,1.06-12.85,1.67-20.68,1.67-15.5,0-21.58-5.08-21.83-5.3l-.67-.57.67-.58c.25-.22,6.33-5.3,21.83-5.3,7.83,0,15.37.61,20.68,1.67l.61.12h0Z"/><path class="cls-6" d="m23.5,18.83c-15.39,0-21.33,5.11-21.33,5.11,0,0,5.94,5.11,21.33,5.11,8.13,0,15.44-.64,20.53-1.66v-6.91c-5.09-1.02-12.41-1.66-20.53-1.66Z"/><path class="cls-3" d="m16.69,23.94c0-1.87,2.65-3.5,6.57-4.35-11.6.04-17.69,3.06-19.77,4.35,2.08,1.29,8.17,4.31,19.77,4.35-3.92-.85-6.57-2.48-6.57-4.35Z"/><path class="cls-6" d="m42.44,23.94c0,1.37-1.43,2.62-3.75,3.52,1.65-.2,3.18-.43,4.57-.69v-5.66c-1.39-.26-2.93-.49-4.58-.69,2.32.9,3.75,2.14,3.75,3.52Z"/><path class="cls-6" d="m38.73,23.94c0,1.51-.98,2.87-2.51,3.78.85-.08,1.68-.17,2.48-.27,2.32-.9,3.75-2.15,3.75-3.52s-1.43-2.62-3.75-3.52c-.8-.1-1.63-.19-2.48-.27,1.54.92,2.52,2.27,2.52,3.79Z"/><path class="cls-6" d="m27.83,28.23c-2.11-.87-3.53-2.46-3.53-4.29s1.42-3.42,3.53-4.29c-1.42-.04-2.87-.06-4.33-.06-.08,0-.16,0-.23,0-3.92.85-6.57,2.48-6.57,4.35s2.65,3.5,6.57,4.35c.08,0,.16,0,.24,0,1.46,0,2.91-.02,4.33-.06Z"/><path class="cls-6" d="m24.3,23.94c0,1.82,1.42,3.42,3.53,4.29,2.93-.09,5.76-.26,8.38-.5,1.54-.92,2.51-2.27,2.51-3.78s-.98-2.87-2.52-3.79c-2.62-.25-5.45-.42-8.38-.5-2.11.87-3.53,2.46-3.53,4.29Z"/><path class="cls-3" d="m37.97,23.94c0,1.14-.73,2.24-2,3.05-2.52.23-5.21.4-7.99.48-1.8-.79-2.91-2.13-2.91-3.52s1.11-2.74,2.91-3.53c2.79.09,5.48.25,7.99.48,1.28.8,2,1.91,2,3.05h0Z"/><path class="cls-6" d="m28.9,24.25c.29,0,1.87.23,1.87.52v1.83c0,.29-1.59.52-1.87.52h0c-.28,0-.52-.23-.52-.52v-1.83c0-.29.23-.52.52-.52h0Z"/><path class="cls-6" d="m34.09,21c.28,0,1.87.23,1.87.52v4.97c0,.28-1.59.52-1.87.52h0c-.29,0-.52-.23-.52-.52v-4.97c0-.29.23-.52.52-.52h0Z"/><path class="cls-6" d="m28.9,20.71c.29,0,1.87.23,1.87.52v1.84c0,.28-1.59.52-1.87.52h0c-.28,0-.52-.23-.52-.52v-1.84c0-.29.23-.52.52-.52h0Z"/><path class="cls-6" d="m31.53,24.25c.29,0,.28.23.28.52v1.83c0,.29,0,.52-.28.52h0c-.29,0-.76-.23-.76-.52v-1.83c0-.29.47-.52.76-.52h0Z"/><path class="cls-6" d="m31.53,20.71c.29,0,.28.23.28.52v1.84c0,.28,0,.52-.28.52h0c-.29,0-.76-.23-.76-.52v-1.84c0-.29.47-.52.76-.52h0Z"/><path class="cls-6" d="m6.3,23.06c.48,0,.88.39.88.88s-.39.87-.88.87-.88-.39-.88-.87.39-.88.88-.88Z"/><polygon class="cls-3" points="38.7 22.1 43.13 22.57 43.13 21.97 38.7 21.3 38.7 22.1"/><polygon class="cls-3" points="38.7 24.34 43.13 24.24 43.13 23.64 38.7 23.53 38.7 24.34"/><polygon class="cls-3" points="38.7 26.58 43.13 25.91 43.13 25.31 38.7 25.77 38.7 26.58"/><g id="Medium"><path class="cls-1" d="m77.12,33.52c-1.59-.2-5.08,1.76-6.67,1.56s-4.47-2.98-6.07-3.18-5.08,1.76-6.67,1.56-4.47-2.98-6.07-3.18-5.08,1.76-6.67,1.56-6.19-2.26-6.19-2.26c0,0,4.36,3.9,5.95,4.11s5.08-1.76,6.67-1.56,4.47,2.98,6.07,3.18,5.08-1.76,6.67-1.56,4.48,3.45,6.07,3.18c1.9-.32,6.91-3.4,6.91-3.4h0Z"/><path class="cls-4" d="m77.12,14.31c-1.59.2-5.08-1.76-6.67-1.56s-4.47,2.98-6.07,3.18-5.08-1.76-6.67-1.56-4.47,2.98-6.07,3.18-5.08-1.76-6.67-1.56-6.19,2.26-6.19,2.26c0,0,4.36-3.9,5.95-4.11s5.08,1.76,6.67,1.56,4.47-2.98,6.07-3.18,5.08,1.76,6.67,1.56,4.48-3.44,6.07-3.17c1.9.32,6.91,3.4,6.91,3.4Z"/><path class="cls-5" d="m65.37,27.95c-1.17-.1-4.51-.78-6.11-.91s-5,1.98-6.6,1.84-6.12-3.84-6.12-3.84c0,0,4.68,1.85,6.28,1.99s5.05-2.26,6.6-1.84,5.96,2.77,5.96,2.77h-.01Z"/><path class="cls-7" d="m65.37,19.89c-1.17.1-4.51.78-6.11.91s-5-1.98-6.6-1.84c-1.6.14-6.12,3.84-6.12,3.84,0,0,4.68-1.85,6.28-1.99s5.05,2.26,6.6,1.84,5.96-2.77,5.96-2.77h-.01Z"/></g></g></g></g></svg>