<?xml version="1.0" encoding="UTF-8"?><svg xmlns="http://www.w3.org/2000/svg" viewBox="0 0 500 230"><defs><style>.cls-1{fill:none;}.cls-1,.cls-2,.cls-3{stroke-width:0px;}.cls-2,.cls-4{fill:#fff;}.cls-3{fill:#231f20;}.cls-4{stroke:#fff;stroke-miterlimit:10;stroke-width:8px;}</style></defs><g id="Back"><rect class="cls-1" y="0" width="500" height="230"/></g><g id="Ships"><g id="high_speed_craft_side"><path class="cls-4" d="m292.59,187.79c-2.66-.07-5.29-.5-7.83-1.29l-43.45-13.46c-2.41-.66-4.98-.15-6.95,1.39l-10.72,8.35-62.3,5.92s16.81,12.92,24.16,15.64c43.46,16.03,143.57,7.84,143.57,7.84l5.4-24.2-41.88-.19Z"/><path class="cls-3" d="m227.49,181.65l7.65-8.21c1.3-1.4,3.27-1.96,5.12-1.47l36.95,9.8c2.29.61,1.7,4-.65,3.81l-49.07-3.93Z"/><polygon class="cls-2" points="229.37 193.53 226.88 191.5 246.31 172.07 248.33 174.09 229.37 193.53"/><rect class="cls-2" x="258.46" y="174.49" width="2.85" height="28.46" transform="translate(209.56 -128.49) rotate(45)"/><path class="cls-3" d="m159.89,188.72s18.26,12.92,25.62,15.64c43.46,16.03,143.57,7.84,143.57,7.84l5.4-24.2-32.57,1.08-78.27-6.27-48.66,5.92h-15.09Z"/><path class="cls-2" d="m334.48,193.8c-70.54,3.77-167.46-8.2-167.46-8.2v3.24s96.92,11.98,167.46,8.2v-3.24Z"/></g></g></svg>