<?xml version="1.0" encoding="UTF-8"?><svg xmlns="http://www.w3.org/2000/svg" viewBox="0 0 500 230"><defs><style>.cls-1{fill:none;}.cls-1,.cls-2,.cls-3{stroke-width:0px;}.cls-2,.cls-4{fill:#fff;}.cls-3{fill:#231f20;}.cls-4{stroke:#fff;stroke-miterlimit:10;stroke-width:8px;}</style></defs><g id="Back"><rect class="cls-1" y="0" width="500" height="230"/></g><g id="Ships"><g id="law_enforcement_boat_side"><path class="cls-4" d="m247.19,214.21l4.56-.04c56.76-.47,119.58-2.27,119.58-2.27l-4.68-25.07-41.35-3.04-12.48-29.19v-6.97h-84.72l5.53,6.97-9.11,14.32-73.34,2.07-28.12-2.07s21.08,37.6,40.99,42.97c5.39,1.45,23.07,2.12,45.97,2.32l.06.07h31.15l-.04-.04c1.99-.01,3.99-.02,6-.04h0Z"/><path class="cls-3" d="m123.05,168.93s21.08,37.6,40.99,42.97c19.91,5.37,207.29,0,207.29,0l-4.68-25.07-243.59-17.9Z"/><polygon class="cls-2" points="233.61 154.6 312.81 154.6 325.29 183.79 151.16 170.99 224.51 168.93 233.61 154.6"/><polygon class="cls-3" points="253.59 154.6 233.61 154.6 224.51 168.93 257.93 173.1 253.59 154.6"/><polygon class="cls-2" points="228.09 147.63 233.61 154.6 312.81 154.6 312.81 147.63 228.09 147.63"/><polygon class="cls-2" points="174.68 177.25 210.07 214.28 241.22 214.28 204.7 179.46 174.68 177.25"/><polygon class="cls-2" points="210.07 179.86 247.19 214.21 252.72 214.16 214.66 180.19 210.07 179.86"/><g id="Security"><path class="cls-3" d="m295.95,154.43c6.46,0,10.1,1.93,10.1,1.93,0,0,0,7.33,0,10.2,0,4.85-9.37,11.57-10.1,11.57v-23.7Z"/><path class="cls-3" d="m295.95,154.43c-6.46,0-10.1,1.93-10.1,1.93v10.2c0,4.85,9.37,11.57,10.1,11.57v-23.7Z"/><polygon class="cls-2" points="295.95 158.45 297.5 162.97 302.21 163 298.45 165.91 299.82 170.36 295.95 167.73 292.08 170.36 293.45 165.91 289.69 163 294.4 162.97 295.95 158.45"/></g></g></g></svg>