<?xml version="1.0" encoding="UTF-8"?><svg xmlns="http://www.w3.org/2000/svg" viewBox="0 0 147.15 46.65"><defs><style>.cls-1{fill:none;}.cls-1,.cls-2,.cls-3{stroke-width:0px;}.cls-2{fill:#fff;}.cls-3{fill:#231f20;}</style></defs><g id="transparent_box_that_keeps_the_svg_output_always_the_same"><rect class="cls-1" width="147.15" height="46.65"/></g><g id="NEW_ONES_FOR_REVIEW"><g id="law_enforcement_boat_slow"><g id="V2"><g id="Lawboat"><path class="cls-2" d="m30.88,29.03h-9.54c-8.2,0-11.34-5-11.34-5,0,0,3.14-5.22,11.34-5.22h9.54s7.89,0,13.91,1.77v6.91c-6.02,1.54-13.91,1.54-13.91,1.54Z"/><path class="cls-3" d="m44.03,26.9v-5.74c-5.78-1.56-13.08-1.58-13.16-1.58h-9.54c-6.4,0-9.5,3.28-10.41,4.45.91,1.13,4.01,4.25,10.41,4.25h9.54c.08,0,7.37-.02,13.16-1.38h0Z"/><path class="cls-2" d="m42.73,25.85v-3.69c-1.81-.43-3.72-.71-5.47-.9v-.65c1.95.21,4.11.54,6.12,1.05v4.72c-2.01.44-4.17.73-6.12.91v-.65c1.75-.17,3.66-.42,5.47-.78Z"/><path class="cls-2" d="m21.34,20.87c-4.67,0-7.4,1.94-8.64,3.13,1.25,1.14,3.98,2.98,8.64,2.98h3.88v.65h-3.88c-5.48,0-8.42-2.41-9.55-3.61,1.12-1.26,4.07-3.79,9.55-3.79h3.88v.65h-3.88Z"/><path class="cls-3" d="m12.7,24c1.24-1.2,3.97-3.13,8.64-3.13h3.88v6.11h-3.88c-4.66,0-7.39-1.83-8.64-2.98Z"/><path class="cls-3" d="m42.73,22.16v3.69c-1.81.37-3.72.62-5.47.78v-5.38c1.75.19,3.66.48,5.47.9Z"/><path class="cls-3" d="m30.88,20.87h-5.66v-.65h5.66s2.88,0,6.39.39v.65c-3.5-.38-6.34-.39-6.39-.39Z"/><path class="cls-3" d="m25.22,27.63v-.65h5.66s2.88,0,6.39-.34v.65c-3.51.33-6.34.34-6.39.34h-5.66Z"/><path class="cls-2" d="m30.88,20.87s2.89,0,6.39.39v5.38c-3.5.33-6.34.34-6.39.34h-5.66v-6.11h5.66Z"/><g id="Security"><path class="cls-3" d="m28.44,24.03c0-1.64.49-2.56.49-2.56,0,0,1.86,0,2.59,0,1.23,0,2.93,2.38,2.93,2.56h-6.01Z"/><path class="cls-3" d="m28.44,24.03c0,1.64.49,2.56.49,2.56h2.59c1.23,0,2.93-2.38,2.93-2.56h-6.01Z"/><polygon class="cls-2" points="29.46 24.03 30.61 23.64 30.62 22.45 31.35 23.4 32.48 23.05 31.82 24.03 32.48 25.02 31.35 24.67 30.62 25.62 30.61 24.43 29.46 24.03"/></g><rect class="cls-3" x="24.54" y="20.22" width=".68" height="7.41"/><path class="cls-3" d="m37.26,27.29v-6.68l.68.08v6.53l-.68.07Z"/></g></g></g></g></svg>