<?xml version="1.0" encoding="UTF-8"?><svg xmlns="http://www.w3.org/2000/svg" xmlns:xlink="http://www.w3.org/1999/xlink" viewBox="0 0 147.15 46.65"><defs><style>.cls-1{fill:url(#linear-gradient);}.cls-1,.cls-2,.cls-3,.cls-4,.cls-5,.cls-6,.cls-7{stroke-width:0px;}.cls-2{fill:none;}.cls-3{fill:#fff;}.cls-4{fill:url(#linear-gradient-2);}.cls-5{fill:url(#linear-gradient-3);}.cls-6{fill:#231f20;}.cls-7{fill:url(#linear-gradient-4);}</style><linearGradient id="linear-gradient" x1="66.12" y1="10.17" x2="145.57" y2="10.17" gradientTransform="translate(0 49.9) scale(1 -1)" gradientUnits="userSpaceOnUse"><stop offset=".41" stop-color="#fff"/><stop offset=".48" stop-color="#fff" stop-opacity=".79"/><stop offset=".55" stop-color="#fff" stop-opacity=".58"/><stop offset=".63" stop-color="#fff" stop-opacity=".4"/><stop offset=".7" stop-color="#fff" stop-opacity=".26"/><stop offset=".78" stop-color="#fff" stop-opacity=".14"/><stop offset=".85" stop-color="#fff" stop-opacity=".06"/><stop offset=".93" stop-color="#fff" stop-opacity=".02"/><stop offset="1" stop-color="#fff" stop-opacity="0"/></linearGradient><linearGradient id="linear-gradient-2" y1="42.18" y2="42.18" xlink:href="#linear-gradient"/><linearGradient id="linear-gradient-3" x1="83.58" y1="20.38" x2="131.21" y2="20.38" xlink:href="#linear-gradient"/><linearGradient id="linear-gradient-4" x1="83.58" y1="32.25" x2="131.21" y2="32.25" xlink:href="#linear-gradient"/></defs><g id="transparent_box_that_keeps_the_svg_output_always_the_same"><rect class="cls-2" width="147.15" height="46.65"/></g><g id="NEW_ONES_FOR_REVIEW"><g id="military_ship_fast"><g id="V2"><g id="Fast_Speed"><path class="cls-1" d="m137.24,45.08c-1.99-.18-5.68-3.51-7.67-3.69s-6.23,2.4-8.22,2.22-5.68-3.51-7.67-3.69-6.23,2.4-8.22,2.22-5.68-3.51-7.67-3.69-6.23,2.4-8.22,2.22-5.68-3.51-7.67-3.69-6.23,2.4-8.22,2.22-7.56-4.84-7.56-4.84c0,0,5.79,2.35,7.78,2.54s6.23-2.4,8.22-2.22,5.68,3.51,7.67,3.69,6.23-2.4,8.22-2.22,5.68,3.51,7.67,3.69,6.23-2.4,8.22-2.22,5.68,3.51,7.67,3.69,6.23-2.4,8.22-2.22c1.99.18,5.68,3.51,7.67,3.69s8.11-1.06,8.11-1.06c0,0-6.34,3.55-8.32,3.37h0Z"/><path class="cls-4" d="m137.24,2.37c-1.99.18-5.68,3.51-7.67,3.69s-6.23-2.4-8.22-2.22-5.68,3.51-7.67,3.69-6.23-2.4-8.22-2.22-5.68,3.51-7.67,3.69-6.23-2.4-8.22-2.22-5.68,3.51-7.67,3.69-6.23-2.4-8.22-2.22-7.56,4.84-7.56,4.84c0,0,5.79-2.35,7.78-2.54s6.23,2.4,8.22,2.22,5.68-3.51,7.67-3.69,6.23,2.4,8.22,2.22,5.68-3.51,7.67-3.69,6.23,2.4,8.22,2.22,5.68-3.51,7.67-3.69,6.23,2.4,8.22,2.22c1.99-.18,5.68-3.51,7.67-3.69s8.11,1.06,8.11,1.06c0,0-6.34-3.55-8.32-3.37h0Z"/><path class="cls-5" d="m131.21,29.85c-1.98-.25-6.31,2.18-8.29,1.93s-5.56-3.7-7.54-3.95-6.31,2.18-8.29,1.93-5.56-3.7-7.54-3.95-6.31,2.18-8.29,1.93-7.68-2.8-7.68-2.8c0,0,5.41,4.85,7.39,5.1s6.31-2.18,8.29-1.93,5.56,3.7,7.54,3.95,6.31-2.18,8.29-1.93,5.57,4.28,7.54,3.95c2.36-.39,8.58-4.23,8.58-4.23Z"/><path class="cls-7" d="m131.21,17.32c-1.98.25-6.31-2.18-8.29-1.93s-5.56,3.7-7.54,3.95-6.31-2.18-8.29-1.93-5.56,3.7-7.54,3.95-6.31-2.18-8.29-1.93-7.68,2.8-7.68,2.8c0,0,5.41-4.85,7.39-5.1s6.31,2.18,8.29,1.93,5.56-3.7,7.54-3.95,6.31,2.18,8.29,1.93,5.57-4.28,7.54-3.95c2.36.39,8.58,4.23,8.58,4.23Z"/></g><g id="Military_Ship"><path class="cls-3" d="m64.64,15.11h-30.74c-13.59,0-18.8,8.29-18.8,8.29,0,0,5.21,8.66,18.8,8.66h30.74s6.02,0,16.01-2.93v-11.46c-9.99-2.56-16.01-2.56-16.01-2.56Z"/><path class="cls-6" d="m79.38,18.66v9.52c-9.58,2.59-14.62,2.62-14.75,2.62h-30.74c-10.62,0-15.76-5.44-17.26-7.39,1.51-1.87,6.66-7.05,17.26-7.05h30.74c.13,0,5.16.03,14.75,2.29h0Z"/><rect class="cls-3" x="20.84" y="22.95" width="8.93" height="1.26" transform="translate(50.62 47.17) rotate(180)"/><polygon class="cls-3" points="50.56 15.11 43.54 15.11 38.57 20.07 38.57 27.09 43.54 32.06 50.56 32.06 55.52 27.09 55.52 20.07 50.56 15.11"/><rect class="cls-3" x="32.82" y="22.95" width="24.14" height="1.26" transform="translate(68.48 -21.31) rotate(90)"/><polygon class="cls-6" points="49.86 16.8 44.24 16.8 40.27 20.77 40.27 26.39 44.24 30.36 49.86 30.36 53.83 26.39 53.83 20.77 49.86 16.8"/><rect class="cls-3" x="27.66" y="21.69" width="5.47" height="3.78" transform="translate(60.79 47.17) rotate(180)"/><polygon class="cls-3" points="35.49 22.5 32.86 22.1 32.86 25.06 35.49 24.66 35.49 22.5"/><polygon class="cls-3" points="54.85 29.65 57.41 27.09 57.41 20.07 54.85 17.52 64.49 17.52 68.04 21.07 68.04 26.09 64.49 29.65 54.85 29.65"/><rect class="cls-6" x="58.58" y="20.07" width="1.17" height="6.98"/><rect class="cls-6" x="60.58" y="20.07" width="1.17" height="6.98"/><rect class="cls-6" x="62.58" y="20.07" width="1.17" height="6.98"/><rect class="cls-6" x="64.58" y="20.07" width="1.17" height="6.98"/><rect class="cls-3" x="69.47" y="21.07" width="8.72" height="5.02"/></g></g></g></g></svg>