<?xml version="1.0" encoding="UTF-8"?><svg xmlns="http://www.w3.org/2000/svg" viewBox="0 0 500 230"><defs><style>.cls-1{fill:none;}.cls-1,.cls-2{stroke-width:0px;}.cls-2{fill:#231f20;}.cls-3{fill:#fff;stroke:#fff;stroke-miterlimit:10;stroke-width:8px;}</style></defs><g id="Back"><rect class="cls-1" y="0" width="500" height="230"/></g><g id="Ships"><g id="unknown_side"><path id="UnknownBack" class="cls-3" d="m365.2,173l-44.58-.75-13.54-13.9c-2.72-2.8-6.46-4.37-10.37-4.37h-25.94v-12.28c0-3.1-2.52-5.62-5.62-5.62h-3.66v-15.61h5.83v-2.71h-5.83v-2.77h-8.27l-1.78,2.77h-7.01v2.71h5.27l-10.05,15.61h-31.75c-3.85,0-7.42,2.02-9.4,5.32l-17.1,28.5-52.61-.89c-2.51-.04-4.08,2.71-2.75,4.85,6.49,10.39,22.61,33.87,38.02,38.03,17.38,4.69,162.34,1.19,198.93.23,4.66-.12,8.36-3.93,8.36-8.59v-24.3c0-3.4-2.73-6.18-6.13-6.23Z"/><path class="cls-2" d="m128.76,169.02c-2.51-.04-4.08,2.71-2.75,4.85,6.49,10.39,22.61,33.87,38.02,38.03,17.38,4.69,162.34,1.19,198.93.23,4.66-.12,8.36-3.93,8.36-8.59v-24.3c0-3.4-2.73-6.18-6.13-6.23l-236.44-3.98Z"/><path class="cls-2" d="m270.76,177.71h-94.07l21.78-36.3c1.98-3.3,5.55-5.32,9.4-5.32h57.26c3.1,0,5.62,2.52,5.62,5.62v36Z"/><path class="cls-2" d="m333.19,185.16h-101.97v-31.18h65.48c3.9,0,7.64,1.58,10.37,4.37l26.12,26.8Z"/><polygon class="cls-2" points="261.48 139 237.75 139 253.2 115 261.48 115 261.48 139"/><rect class="cls-2" x="244.41" y="117.77" width="22.89" height="2.71"/></g></g></svg>