<?xml version="1.0" encoding="UTF-8"?><svg xmlns="http://www.w3.org/2000/svg" viewBox="0 0 500 230"><defs><style>.cls-1{stroke:#fff;stroke-miterlimit:10;stroke-width:5px;}.cls-1,.cls-2{fill:none;}.cls-2,.cls-3,.cls-4{stroke-width:0px;}.cls-3{fill:#fff;}.cls-4{fill:#231f20;}</style></defs><g id="Back"><rect class="cls-2" y="0" width="500" height="230"/></g><g id="Ships"><g id="passenger_ship_side"><path id="Outline_passenger" class="cls-1" d="m475.62,153.61h-14.48l-51.03-49.9h-6.74v-34.79l-17.54-11-45.79,45.79h-115.91s-33.72-15.89-33.72-15.89h-46.64c-.57,0-.97.56-.78,1.1l3.83,10.82-59.5,53.87H14.38c32.83,24.64,47.36,33.99,77.38,61.7h351.06c26.39-10.42,33.4-46.58,32.79-61.7Z"/><path class="cls-3" d="m87.35,153.61l59.5-53.87-3.83-10.82c-.19-.54.21-1.1.78-1.1h46.63l33.72,15.89h185.97s51.03,49.9,51.03,49.9H87.35Z"/><path class="cls-3" d="m475.62,153.61H14.38c32.83,24.64,47.36,33.99,77.38,61.7h351.06c26.39-10.42,33.4-46.58,32.79-61.7Z"/><polygon class="cls-4" points="424.87 118.15 192.15 118.15 196.58 109.69 416.22 109.69 424.87 118.15"/><polygon class="cls-4" points="437.85 130.84 185.5 130.84 189.8 122.62 429.2 122.38 437.85 130.84"/><polygon class="cls-4" points="450.83 143.53 178.84 143.53 183.28 135.07 442.17 135.07 450.83 143.53"/><polygon class="cls-4" points="156.17 116.29 128.56 116.29 137.91 107.84 167.24 107.84 156.17 116.29"/><polygon class="cls-4" points="137.7 130.41 112.98 130.41 122.32 121.95 148.77 121.95 137.7 130.41"/><polygon class="cls-4" points="446.75 177.79 259.46 177.79 264.89 171.44 452.18 171.44 446.75 177.79"/><polygon class="cls-4" points="437.29 188.86 250 188.86 255.43 182.51 442.72 182.51 437.29 188.86"/><polygon class="cls-4" points="403.37 68.93 385.83 57.93 348.01 95.75 403.37 95.75 403.37 68.93"/><polygon class="cls-3" points="348.01 95.75 339.94 103.82 403.37 103.82 403.37 95.75 348.01 95.75"/><path class="cls-4" d="m461.14,199.4s-278.58-.53-300.37,0c-21.79.52-36.32-14.93-53.44-24.31-14.33-7.85-86.51-16.67-86.53-16.67,28.44,21.19,42.97,31.07,70.96,56.9h351.06c7.82-3.09,13.92-8.44,18.65-14.83l-.33-1.08Z"/><rect class="cls-3" x="212.4" y="107.84" width="5.23" height="39.29"/><rect class="cls-3" x="249.8" y="107.84" width="5.23" height="39.29"/><rect class="cls-3" x="287.2" y="107.84" width="5.23" height="39.29"/><rect class="cls-3" x="324.6" y="107.84" width="5.23" height="39.29"/><rect class="cls-3" x="362" y="107.84" width="5.23" height="39.29"/><rect class="cls-3" x="399.4" y="107.84" width="5.23" height="39.29"/><rect class="cls-3" x="274.58" y="154.97" width="5.23" height="39.29"/><rect class="cls-3" x="311.98" y="154.97" width="5.23" height="39.29"/><rect class="cls-3" x="349.38" y="154.97" width="5.23" height="39.29"/><rect class="cls-3" x="386.78" y="154.97" width="5.23" height="39.29"/><rect class="cls-3" x="424.18" y="154.97" width="5.23" height="39.29"/></g></g></svg>