<?xml version="1.0" encoding="UTF-8"?><svg xmlns="http://www.w3.org/2000/svg" viewBox="0 0 500 230"><defs><style>.cls-1{letter-spacing:.04em;}.cls-2{stroke:#fff;stroke-miterlimit:10;stroke-width:5px;}.cls-2,.cls-3{fill:none;}.cls-3,.cls-4,.cls-5{stroke-width:0px;}.cls-6{letter-spacing:.04em;}.cls-7{font-family:NewHero-SemiBold, 'New Hero';font-size:13px;font-weight:600;}.cls-7,.cls-5{fill:#231f20;}.cls-4{fill:#fff;}.cls-8{letter-spacing:.04em;}.cls-9{letter-spacing:.07em;}</style></defs><g id="Back"><rect class="cls-3" y="0" width="500" height="230"/></g><g id="Ships"><g id="pilot_boat_side"><path id="PilotOutline" class="cls-2" d="m325,176.52l-42.44-46.88h-18.51v-6.03h7.57v-3.26h-29.2v3.26h7.57v6.03h-42.34l-7.65,7.65.91,2.23h0l6.47,15.94-45.94,15.17,72.53,2.61-110.93-4s4.75,8.58,11.87,18.11h0c.09.12.18.23.27.35.39.52.78,1.04,1.18,1.56.17.22.35.44.52.67.35.46.71.91,1.08,1.36.09.12.18.23.28.35h0c7.45,9.25,16.74,18.32,25.79,20.51,19.91,4.8,207.29,0,207.29,0v-33.96l-46.32-1.67Z"/><path class="cls-5" d="m123.05,169.24s21.08,38.1,40.99,42.91c19.91,4.8,207.29,0,207.29,0v-33.96l-248.28-8.94Z"/><path class="cls-4" d="m138.24,191.64l233.09,2.05v-4.78l-236.41-1.57c1.06,1.42,2.17,2.86,3.33,4.29Z"/><polygon class="cls-4" points="161.45 170.62 207.39 155.45 200.01 137.29 207.66 129.64 282.56 129.64 325 176.52 161.45 170.62"/><polygon class="cls-5" points="200.92 139.52 272.77 139.52 272.77 155.45 207.39 155.45 200.92 139.52"/><rect class="cls-5" x="242.43" y="120.34" width="29.2" height="3.26"/><rect class="cls-5" x="250" y="123.6" width="14.06" height="6.03"/><rect class="cls-4" x="221.34" y="135.61" width="4.3" height="24.09"/><rect class="cls-4" x="250.97" y="135.61" width="4.3" height="24.09"/><text class="cls-7" transform="translate(259.82 170.13)"><tspan class="cls-9" x="0" y="0">PI</tspan><tspan class="cls-6" x="14.25" y="0">L</tspan><tspan class="cls-8" x="22.09" y="0">O</tspan><tspan class="cls-1" x="33.64" y="0">T</tspan></text></g></g></svg>