<?xml version="1.0" encoding="UTF-8"?><svg xmlns="http://www.w3.org/2000/svg" viewBox="0 0 500 230"><defs><style>.cls-1{stroke:#fff;stroke-miterlimit:10;stroke-width:5px;}.cls-1,.cls-2{fill:none;}.cls-2,.cls-3,.cls-4{stroke-width:0px;}.cls-3{fill:#fff;}.cls-4{fill:#231f20;}</style></defs><g id="Back"><rect class="cls-2" y="0" width="500" height="230"/></g><g id="Ships"><g id="pleasure_craft_side"><path id="OutlinePleasure" class="cls-1" d="m335.96,176.91h0s-40.33-40.11-60.16-43.62h-3.33c-1.55,0-2.1,2.02-.78,2.84,14.61,9.17,23.89,35.8,25.08,39.37l-24.17-.87v-9.85l-26.2-5.3c-.23-.88-.92-1.61-1.88-1.82-.97-.21-1.95.16-2.54.93l-22.74-4.6c-.07-1.06-.8-2.03-1.92-2.29l-.08-.02c-1.07-.25-2.17.21-2.73,1.15l-.1.18-9.57-1.94-25.8,20.19-56-2.02s4.75,8.58,11.87,18.11h0c.09.12.18.23.27.35.39.52.78,1.04,1.18,1.56.17.22.35.44.52.67.35.46.71.91,1.08,1.36.09.12.18.23.28.35h0c7.45,9.25,16.74,18.32,25.79,20.51,19.91,4.8,207.29,0,207.29,0v-33.96l-35.37-1.27Z"/><polygon class="cls-3" points="272.6 175.37 173.79 175.37 204.84 151.07 272.6 164.78 272.6 175.37"/><path class="cls-4" d="m123.05,169.24s21.08,38.1,40.99,42.91c19.91,4.8,207.29,0,207.29,0v-33.96l-248.28-8.94Z"/><path class="cls-3" d="m138.24,191.64l233.09,2.05v-4.78l-236.41-1.57c1.06,1.42,2.17,2.86,3.33,4.29Z"/><path class="cls-4" d="m214.52,152.83l-12.27,20.51,8.3.35,8.48-18.5c.66-1.44-.16-3.13-1.7-3.49l-.08-.02c-1.07-.25-2.17.21-2.73,1.15Z"/><path class="cls-4" d="m241.74,158.97l-8.15,16.07,8.3.33,4.49-14.52c.43-1.4-.42-2.88-1.86-3.19h0c-1.12-.25-2.26.3-2.78,1.32Z"/><path class="cls-4" d="m335.96,176.91s-40.33-40.11-60.16-43.62h-3.33c-1.55,0-2.1,2.02-.78,2.84,15.67,9.84,25.22,39.78,25.22,39.78l39.05,1Z"/></g></g></svg>