<?xml version="1.0" encoding="UTF-8"?><svg xmlns="http://www.w3.org/2000/svg" xmlns:xlink="http://www.w3.org/1999/xlink" viewBox="0 0 147.15 46.65"><defs><style>.cls-1{fill:url(#linear-gradient);}.cls-1,.cls-2,.cls-3,.cls-4,.cls-5,.cls-6,.cls-7{stroke-width:0px;}.cls-2{fill:none;}.cls-3{fill:#fff;}.cls-4{fill:url(#linear-gradient-2);}.cls-5{fill:url(#linear-gradient-3);}.cls-6{fill:#231f20;}.cls-7{fill:url(#linear-gradient-4);}</style><linearGradient id="linear-gradient" x1="38.79" y1="16.63" x2="77.12" y2="16.63" gradientTransform="translate(0 49.9) scale(1 -1)" gradientUnits="userSpaceOnUse"><stop offset=".26" stop-color="#fff"/><stop offset=".38" stop-color="#fff" stop-opacity=".74"/><stop offset=".51" stop-color="#fff" stop-opacity=".51"/><stop offset=".62" stop-color="#fff" stop-opacity=".33"/><stop offset=".73" stop-color="#fff" stop-opacity=".19"/><stop offset=".84" stop-color="#fff" stop-opacity=".08"/><stop offset=".93" stop-color="#fff" stop-opacity=".02"/><stop offset="1" stop-color="#fff" stop-opacity="0"/></linearGradient><linearGradient id="linear-gradient-2" y1="35.32" y2="35.32" xlink:href="#linear-gradient"/><linearGradient id="linear-gradient-3" x1="40.63" y1="17.83" x2="59.32" y2="17.83" gradientTransform="translate(6.81 46.68) rotate(-2.49) scale(1 -1)" xlink:href="#linear-gradient"/><linearGradient id="linear-gradient-4" x1="52.1" y1="281.67" x2="70.8" y2="281.67" gradientTransform="translate(6.81 -262.92) rotate(2.49)" xlink:href="#linear-gradient"/></defs><g id="transparent_box_that_keeps_the_svg_output_always_the_same"><rect class="cls-2" width="147.15" height="46.65"/></g><g id="NEW_ONES_FOR_REVIEW"><g id="pleasure_craft_medium"><g id="V2"><g id="Medium"><path class="cls-1" d="m77.12,33.52c-1.59-.2-5.08,1.76-6.67,1.56s-4.47-2.98-6.07-3.18-5.08,1.76-6.67,1.56-4.47-2.98-6.07-3.18-5.08,1.76-6.67,1.56-6.19-2.26-6.19-2.26c0,0,4.36,3.9,5.95,4.11s5.08-1.76,6.67-1.56,4.47,2.98,6.07,3.18,5.08-1.76,6.67-1.56,4.48,3.45,6.07,3.18c1.9-.32,6.91-3.4,6.91-3.4h0Z"/><path class="cls-4" d="m77.12,14.31c-1.59.2-5.08-1.76-6.67-1.56s-4.47,2.98-6.07,3.18-5.08-1.76-6.67-1.56-4.47,2.98-6.07,3.18-5.08-1.76-6.67-1.56-6.19,2.26-6.19,2.26c0,0,4.36-3.9,5.95-4.11s5.08,1.76,6.67,1.56,4.47-2.98,6.07-3.18,5.08,1.76,6.67,1.56,4.48-3.44,6.07-3.17c1.9.32,6.91,3.4,6.91,3.4Z"/><path class="cls-5" d="m65.37,27.95c-1.17-.1-4.51-.78-6.11-.91s-5,1.98-6.6,1.84-6.12-3.84-6.12-3.84c0,0,4.68,1.85,6.28,1.99s5.05-2.26,6.6-1.84,5.96,2.77,5.96,2.77h-.01Z"/><path class="cls-7" d="m65.37,19.89c-1.17.1-4.51.78-6.11.91s-5-1.98-6.6-1.84c-1.6.14-6.12,3.84-6.12,3.84,0,0,4.68-1.85,6.28-1.99s5.05,2.26,6.6,1.84,5.96-2.77,5.96-2.77h-.01Z"/></g><g id="Pleasure_Craft"><path class="cls-3" d="m30.88,29.03h-9.54c-8.2,0-11.34-5-11.34-5,0,0,3.14-5.22,11.34-5.22h9.54s7.89,0,13.91,1.77v6.91c-6.02,1.54-13.91,1.54-13.91,1.54Z"/><path class="cls-6" d="m44.03,26.9v-5.74c-5.78-1.56-13.08-1.58-13.16-1.58h-9.54c-6.4,0-9.5,3.28-10.41,4.45.91,1.13,4.01,4.25,10.41,4.25h9.54c.08,0,7.37-.02,13.16-1.38h0Z"/><path class="cls-3" d="m42.73,25.85v-3.69c-1.81-.43-7.35-1.1-9.1-1.29v-.65c1.95.21,7.74.93,9.75,1.44v4.72c-2.01.44-7.79,1.06-9.75,1.25v-.65c1.75-.17,7.28-.75,9.1-1.12Z"/><path class="cls-3" d="m21.34,20.87c-4.67,0-7.4,1.94-8.64,3.13,1.25,1.14,3.98,2.98,8.64,2.98h12.3v.65h-12.3c-5.48,0-8.42-2.41-9.55-3.61,1.12-1.26,4.07-3.79,9.55-3.79h12.3v.65h-12.3Z"/><g id="Top_Cover"><path class="cls-6" d="m24.7,27.6h5.72s0,.78,0,.78h-5.72c-.05,0-1.28-.01-5.5-.47v-.78c4.21.46,5.45.47,5.5.47Z"/><path class="cls-6" d="m30.41,19.47v.78s-5.72,0-5.72,0c-.05,0-1.29,0-5.5.41v-.78c4.22-.4,5.45-.41,5.5-.41h5.72Z"/><path class="cls-3" d="m24.7,27.6c-.05,0-1.29-.01-5.5-.47v-6.47c4.22-.4,5.45-.41,5.5-.41h5.72s0,7.35,0,7.35h-5.72Z"/><rect class="cls-6" x="30.41" y="19.47" width=".81" height="8.92"/><path class="cls-6" d="m19.19,19.87v8.04s-.81-.09-.81-.09v-7.87s.81-.08.81-.08Z"/></g><polygon class="cls-3" points="42.81 23.01 36.7 22.69 36.7 21.85 42.81 22.45 42.81 23.01"/><polygon class="cls-3" points="42.81 24.17 36.7 24.31 36.7 23.47 42.81 23.61 42.81 24.17"/><polygon class="cls-3" points="42.81 25.33 36.7 25.94 36.7 25.1 42.81 24.78 42.81 25.33"/></g></g></g></g></svg>