<?xml version="1.0" encoding="UTF-8"?><svg xmlns="http://www.w3.org/2000/svg" viewBox="0 0 500 230"><defs><style>.cls-1{fill:none;}.cls-1,.cls-2,.cls-3{stroke-width:0px;}.cls-2,.cls-4{fill:#fff;}.cls-3{fill:#231f20;}.cls-4{stroke:#fff;stroke-miterlimit:10;stroke-width:8px;}</style></defs><g id="Back"><rect class="cls-1" y="0" width="500" height="230"/></g><g id="Ships"><g id="search_and_rescue_boat_side"><path class="cls-4" d="m369.3,171.96h-93.11s0-45.82,0-45.82l9.71-13.05h17.15v-2.31c.74-.84,1.2-1.93,1.2-3.13,0-2.62-2.13-4.75-4.75-4.75s-4.75,2.13-4.75,4.75c0,.45.08.88.2,1.29h-5.97l6.62-8.9h-9.82l-6.62,8.9h-4.7c.12-.41.2-.84.2-1.29,0-2.62-2.13-4.75-4.75-4.75s-4.75,2.13-4.75,4.75c0,1.21.46,2.29,1.2,3.13v2.31h9.71l-9.71,13.05v32.65s-87.72-.76-87.72-.76l-60.64-2.63s29.25,48.99,37.71,52.16c7.3,2.74,18.53,6,77.34,6.61h.04s0,0,0,0c3.41.04,6.99.06,10.73.08l2.83.03-.02-.02c5.72.02,11.82.02,18.34,0,87.05-.35,102.56,0,102.56,0,0,0,8.81-12.7,8.81-23.62s-7.05-18.68-7.05-18.68Z"/><path class="cls-3" d="m118.02,155.4s29.25,48.99,37.71,52.16c8.46,3.17,22.2,7.05,109.26,6.7s102.56,0,102.56,0c0,0,8.81-12.7,8.81-23.62s-7.05-18.68-7.05-18.68h-98.68l-10.4-10.4-142.21-6.17Z"/><polygon class="cls-2" points="178.66 158.03 190.62 147.64 214.75 147.64 225.15 137.25 219.17 137.25 228.51 126.15 325.25 126.15 345.69 171.96 270.62 171.96 260.23 161.57 178.66 158.03"/><polygon class="cls-3" points="219.17 147.64 229.56 137.25 247.21 137.25 236.82 147.64 219.17 147.64"/><polygon class="cls-3" points="240.67 147.64 251.07 137.25 268.72 137.25 258.32 147.64 240.67 147.64"/><polygon class="cls-3" points="262.18 147.64 272.57 137.25 290.22 137.25 279.83 147.64 262.18 147.64"/><rect class="cls-3" x="302.2" y="140.28" width="7.73" height="23.18"/><rect class="cls-3" x="302.2" y="140.28" width="7.73" height="23.18" transform="translate(457.94 -154.19) rotate(90)"/><polygon class="cls-3" points="276.2 126.15 266.38 126.15 285.79 100.05 295.61 100.05 276.2 126.15"/><rect class="cls-3" x="266.38" y="108.94" width="36.68" height="4.15"/><circle class="cls-3" cx="269.92" cy="107.66" r="4.75"/><circle class="cls-3" cx="299.52" cy="107.66" r="4.75"/><polygon class="cls-2" points="162.01 162.81 203.79 214.54 234.15 215.21 191.99 164.11 162.01 162.81"/><polygon class="cls-2" points="198.72 164.07 238.91 214.2 246.66 214.28 205.39 164.11 198.72 164.07"/></g></g></svg>