<?xml version="1.0" encoding="UTF-8"?><svg xmlns="http://www.w3.org/2000/svg" viewBox="0 0 500 230"><defs><style>.cls-1{stroke:#fff;stroke-miterlimit:10;stroke-width:5px;}.cls-1,.cls-2{fill:none;}.cls-2,.cls-3,.cls-4{stroke-width:0px;}.cls-3{fill:#fff;}.cls-4{fill:#231f20;}</style></defs><g id="Back"><rect class="cls-2" y="0" width="500" height="230"/></g><g id="Ships"><g id="tanker_ship_side"><path id="Outline_Oil" class="cls-1" d="m471.68,156.92v-8.65h-7.97l6.23-53.69h-24.73l-14.85,40.24-17.88-19.71h-29.93l7.5,41.81h-25.08s0-.02,0-.03h9.4c0-19.67-15.24-35.77-34.56-37.17v-8.95c0-1.62-1.22-2.93-2.72-2.93,0,0,0,0,0,0s0,0,0,0h-177.53s0,0,0,0,0,0,0,0c-.74,0-1.41.32-1.9.83,0,0-.02.01-.02.02-.07.08-.14.17-.2.26-.04.06-.09.11-.13.17-.03.05-.05.11-.08.16-.15.27-.27.57-.33.89-.04.19-.06.39-.06.59v8.95c-19.32,1.39-34.56,17.5-34.56,37.17h9.4s0,.02,0,.03h-20.79l-13.13-8.37H14.88c35.73,31.53,55.14,65.74,55.14,65.74h352.91c40.75,0,56.56-41.97,56.56-54.44v-2.93h-7.81Zm-162.48,0h-33.57s0-.02,0-.03h9.4c0-19.67-15.24-35.78-34.56-37.17v-6.02h83.9v6.02c-19.32,1.4-34.56,17.5-34.56,37.17h9.39s0,.02,0,.03Zm-121.77-.03h9.4c0-19.67-15.24-35.78-34.56-37.17v-6.02h82.75v6.02c-19.32,1.4-34.56,17.5-34.56,37.17h9.4s0,.02,0,.03h-32.42s0-.02,0-.03Z"/><polygon class="cls-4" points="463.71 148.27 425.4 148.27 445.22 94.58 469.94 94.58 463.71 148.27"/><path class="cls-4" d="m110.88,156.92l-13.13-8.37H14.88c35.73,31.53,55.14,65.74,55.14,65.74h352.91c40.75,0,56.56-41.97,56.56-54.44v-2.93H110.88Z"/><polygon class="cls-4" points="442.56 148.27 412.48 115.11 382.55 115.11 390.05 156.92 471.68 156.92 471.68 148.27 442.56 148.27"/><path class="cls-3" d="m94.15,172.37c0,2.96-2.23,5.37-4.99,5.37s-4.99-2.41-4.99-5.37,2.24-5.37,4.99-5.37,4.99,2.41,4.99,5.37Z"/><path class="cls-3" d="m76.55,205.46h346.38c13.09,0,23.07-5.03,30.47-11.8H71.09c2.35,4.66,4.18,8.76,5.46,11.8Z"/><polygon class="cls-3" points="439.99 152.6 409.92 119.44 389.72 119.44 396.39 156.92 466.64 156.92 466.64 152.6 439.99 152.6"/><polygon class="cls-4" points="412.01 131.66 391.9 131.67 390.62 124.53 405.85 124.53 412.01 131.66"/><polygon class="cls-4" points="413.65 140.84 393.54 140.85 392.26 133.7 407.49 133.7 413.65 140.84"/><polygon class="cls-3" points="463.95 111.44 449.32 111.45 452.32 103.33 464.89 103.33 463.95 111.44"/><path class="cls-4" d="m159.55,119.6c-20.59,0-37.28,16.69-37.28,37.28h74.56c0-20.59-16.69-37.28-37.28-37.28Z"/><path class="cls-3" d="m159.55,129.19c-15.41,0-27.89,12.49-27.89,27.89h55.79c0-15.41-12.49-27.89-27.89-27.89Z"/><path class="cls-4" d="m162.27,110.76c0-1.62-1.22-2.93-2.72-2.93s-2.72,1.31-2.72,2.93v11.62h5.44v-11.62Z"/><path class="cls-4" d="m247.74,119.6c-20.59,0-37.28,16.69-37.28,37.28h74.56c0-20.59-16.69-37.28-37.28-37.28Z"/><path class="cls-3" d="m247.74,129.19c-15.41,0-27.89,12.49-27.89,27.89h55.79c0-15.41-12.49-27.89-27.89-27.89Z"/><path class="cls-4" d="m250.46,110.76c0-1.62-1.22-2.93-2.72-2.93s-2.73,1.31-2.73,2.93v11.62h5.44v-11.62Z"/><path class="cls-4" d="m337.09,119.6c-20.59,0-37.28,16.69-37.28,37.28h74.56c0-20.59-16.69-37.28-37.28-37.28Z"/><path class="cls-3" d="m337.09,129.19c-15.41,0-27.9,12.49-27.9,27.89h55.79c0-15.41-12.49-27.89-27.89-27.89Z"/><path class="cls-4" d="m339.81,110.76c0-1.62-1.22-2.93-2.72-2.93s-2.72,1.31-2.72,2.93v11.62h5.45v-11.62Z"/><path class="cls-4" d="m156.83,110.76c0-1.62,1.22-2.93,2.72-2.93h177.53c1.5,0,2.72,1.31,2.72,2.93h0c0,1.62-1.22,2.93-2.72,2.93h-177.53c-1.5,0-2.72-1.31-2.72-2.93h0Z"/></g></g></svg>