<?xml version="1.0" encoding="UTF-8"?><svg xmlns="http://www.w3.org/2000/svg" viewBox="0 0 147.15 46.65"><defs><style>.cls-1{fill:none;}.cls-1,.cls-2,.cls-3{stroke-width:0px;}.cls-2{fill:#fff;}.cls-3{fill:#231f20;}</style></defs><g id="transparent_box_that_keeps_the_svg_output_always_the_same"><rect class="cls-1" width="147.15" height="46.65"/></g><g id="NEW_ONES_FOR_REVIEW"><g id="tanker_ship_slow"><g id="V2"><g id="TankerShip"><path class="cls-2" d="m55.1,14.51H21.53C6.69,14.51,1,23.56,1,23.56c0,0,5.69,9.46,20.53,9.46h33.57s14.29,0,25.2-3.2v-12.52c-10.91-2.8-25.2-2.8-25.2-2.8Z"/><path class="cls-3" d="m78.93,18.38v10.4c-10.46,2.83-23.69,2.87-23.82,2.87H21.53c-11.6,0-17.21-5.94-18.84-8.07,1.65-2.05,7.27-7.7,18.84-7.7h33.57c.14,0,13.35.03,23.82,2.5h0Z"/><path class="cls-2" d="m58.5,34.57h6.28l1.38-4.78c3.61-.37,7.64-.95,11.39-1.89v-8.24c-3.75-.81-7.79-1.34-11.39-1.67l-1.38-5.04h-6.28v21.61Zm4.91-20.24l1.38,4.92c.45.04.91.08,1.37.12,3.18.3,6.69.74,10.02,1.41v6.03c-3.32.76-6.83,1.26-10.02,1.59-.47.05-.92.09-1.37.13l-1.38,4.66h-2.8V14.33h2.8Z"/><path class="cls-3" d="m60.6,33.2h2.8l1.38-4.66c.45-.04.91-.09,1.37-.13,3.19-.33,6.7-.83,10.02-1.59v-6.03c-3.33-.66-6.84-1.11-10.02-1.41-.47-.04-.92-.08-1.37-.12l-1.38-4.92h-2.8v18.87Z"/><rect class="cls-2" x="68.62" y="21.82" width="7.56" height="3.88"/><path class="cls-2" d="m33.65,17.26c3.59,0,6.51,2.91,6.51,6.51s-2.91,6.51-6.51,6.51-6.51-2.91-6.51-6.51,2.91-6.51,6.51-6.51Z"/><path class="cls-2" d="m49.32,17.26c3.59,0,6.51,2.91,6.51,6.51s-2.91,6.51-6.51,6.51-6.51-2.91-6.51-6.51,2.91-6.51,6.51-6.51Z"/><path class="cls-2" d="m17.98,17.26c3.59,0,6.51,2.91,6.51,6.51s-2.91,6.51-6.51,6.51-6.51-2.91-6.51-6.51,2.91-6.51,6.51-6.51Z"/><path class="cls-2" d="m51.36,23.76c0,1.12-.91,2.03-2.03,2.03h-31.34c-1.12,0-2.03-.91-2.03-2.03s.91-2.03,2.03-2.03h31.34c1.12,0,2.03.91,2.03,2.03h0Z"/><path class="cls-3" d="m17.98,22.9s0,0,0,0c-.47,0-.86.38-.86.86s.38.86.86.86h31.34s0,0,0,0c.47,0,.86-.38.86-.86s-.38-.86-.86-.86h0s-31.34,0-31.34,0Z"/></g></g></g></g></svg>