<?xml version="1.0" encoding="UTF-8"?><svg id="Layer_2" xmlns="http://www.w3.org/2000/svg" xmlns:xlink="http://www.w3.org/1999/xlink" viewBox="0 0 144.56 42.71"><defs><style>.cls-1{fill:url(#linear-gradient);}.cls-1,.cls-2,.cls-3,.cls-4,.cls-5,.cls-6{stroke-width:0px;}.cls-2{fill:#fff;}.cls-3{fill:url(#linear-gradient-2);}.cls-4{fill:url(#linear-gradient-3);}.cls-5{fill:#231f20;}.cls-6{fill:url(#linear-gradient-4);}</style><linearGradient id="linear-gradient" x1="65.14" y1="37.34" x2="144.56" y2="37.34" gradientUnits="userSpaceOnUse"><stop offset=".41" stop-color="#fff"/><stop offset=".48" stop-color="#fff" stop-opacity=".79"/><stop offset=".55" stop-color="#fff" stop-opacity=".58"/><stop offset=".63" stop-color="#fff" stop-opacity=".4"/><stop offset=".7" stop-color="#fff" stop-opacity=".26"/><stop offset=".78" stop-color="#fff" stop-opacity=".14"/><stop offset=".85" stop-color="#fff" stop-opacity=".06"/><stop offset=".93" stop-color="#fff" stop-opacity=".02"/><stop offset="1" stop-color="#fff" stop-opacity="0"/></linearGradient><linearGradient id="linear-gradient-2" y1="5.38" y2="5.38" xlink:href="#linear-gradient"/><linearGradient id="linear-gradient-3" x1="82.58" y1="27.14" x2="130.21" y2="27.14" xlink:href="#linear-gradient"/><linearGradient id="linear-gradient-4" x1="82.58" y1="15.28" x2="130.21" y2="15.28" xlink:href="#linear-gradient"/></defs><g id="V2"><g id="Fast_Speed"><path class="cls-1" d="m136.24,42.71c-1.99-.18-5.68-3.51-7.67-3.69s-6.23,2.4-8.22,2.22-5.68-3.51-7.67-3.69-6.23,2.4-8.22,2.22-5.68-3.51-7.67-3.69-6.23,2.4-8.22,2.22-5.68-3.51-7.67-3.69-6.23,2.4-8.22,2.22-7.56-4.84-7.56-4.84c0,0,5.79,2.35,7.78,2.54s6.23-2.4,8.22-2.22,5.68,3.51,7.67,3.69,6.23-2.4,8.22-2.22,5.68,3.51,7.67,3.69,6.23-2.4,8.22-2.22,5.68,3.51,7.67,3.69,6.23-2.4,8.22-2.22,5.68,3.51,7.67,3.69,8.11-1.06,8.11-1.06c0,0-6.34,3.55-8.32,3.37Z"/><path class="cls-3" d="m136.24,0c-1.99.18-5.68,3.51-7.67,3.69s-6.23-2.4-8.22-2.22-5.68,3.51-7.67,3.69-6.23-2.4-8.22-2.22-5.68,3.51-7.67,3.69-6.23-2.4-8.22-2.22-5.68,3.51-7.67,3.69-6.23-2.4-8.22-2.22-7.56,4.84-7.56,4.84c0,0,5.79-2.35,7.78-2.54s6.23,2.4,8.22,2.22,5.68-3.51,7.67-3.69,6.23,2.4,8.22,2.22,5.68-3.51,7.67-3.69,6.23,2.4,8.22,2.22,5.68-3.51,7.67-3.69,6.23,2.4,8.22,2.22,5.68-3.51,7.67-3.69,8.11,1.06,8.11,1.06c0,0-6.34-3.55-8.32-3.37Z"/><path class="cls-4" d="m130.21,27.48c-1.98-.25-6.31,2.18-8.29,1.93s-5.56-3.7-7.54-3.95-6.31,2.18-8.29,1.93-5.56-3.7-7.54-3.95-6.31,2.18-8.29,1.93-7.68-2.8-7.68-2.8c0,0,5.41,4.85,7.39,5.1s6.31-2.18,8.29-1.93,5.56,3.7,7.54,3.95,6.31-2.18,8.29-1.93,5.57,4.28,7.54,3.95c2.36-.39,8.58-4.23,8.58-4.23Z"/><path class="cls-6" d="m130.21,14.95c-1.98.25-6.31-2.18-8.29-1.93s-5.56,3.7-7.54,3.95-6.31-2.18-8.29-1.93-5.56,3.7-7.54,3.95-6.31-2.18-8.29-1.93-7.68,2.8-7.68,2.8c0,0,5.41-4.85,7.39-5.1s6.31,2.18,8.29,1.93,5.56-3.7,7.54-3.95,6.31,2.18,8.29,1.93,5.57-4.28,7.54-3.95c2.36.39,8.58,4.23,8.58,4.23Z"/></g><g id="Cargo_Ship"><path class="cls-2" d="m54.1,12.14H20.53C5.69,12.14,0,21.19,0,21.19c0,0,5.69,9.46,20.53,9.46h33.57s14.29,0,25.2-3.2v-12.51c-10.91-2.8-25.2-2.8-25.2-2.8Z"/><path class="cls-5" d="m77.92,16.01v10.4c-10.46,2.83-23.68,2.87-24.1,2.87H20.26c-11.32,0-16.93-5.94-18.57-8.07,1.65-2.05,7.27-7.7,18.84-7.7h33.57c.14,0,13.35.03,23.82,2.5h0Z"/><path class="cls-2" d="m57.5,32.02h6.28l1.38-4.78c3.6-.37,7.64-.95,11.39-1.89v-8.24c-3.75-.81-7.79-1.34-11.39-1.67l-1.38-5.03h-6.28v21.61Zm4.91-20.24l1.38,4.92c.45.04.91.08,1.37.12,3.18.3,6.69.74,10.02,1.41v6.03c-3.32.76-6.83,1.26-10.02,1.59-.47.05-.92.09-1.37.13l-1.38,4.66h-2.8V11.78h2.8Z"/><path class="cls-5" d="m59.6,30.64h2.8l1.38-4.66c.45-.04.91-.09,1.37-.13,3.19-.33,6.7-.83,10.02-1.59v-6.03c-3.33-.66-6.84-1.11-10.02-1.41-.47-.04-.92-.08-1.37-.12l-1.38-4.92h-2.8v18.86Z"/><rect class="cls-2" x="67.62" y="19.27" width="7.55" height="3.88"/><rect class="cls-2" x="11.42" y="23.84" width="7.8" height="3.01"/><rect class="cls-2" x="11.42" y="15.86" width="7.8" height="3.01"/><rect class="cls-2" x="20.2" y="23.84" width="7.8" height="3.01"/><rect class="cls-2" x="20.2" y="15.86" width="7.8" height="3.01"/><rect class="cls-2" x="28.98" y="23.84" width="7.8" height="3.01"/><rect class="cls-2" x="28.98" y="15.86" width="7.8" height="3.01"/><rect class="cls-2" x="37.76" y="23.84" width="7.8" height="3.01"/><rect class="cls-2" x="11.42" y="19.85" width="7.8" height="3.01"/><rect class="cls-2" x="20.2" y="19.85" width="7.8" height="3.01"/><rect class="cls-2" x="28.98" y="19.85" width="7.8" height="3.01"/><rect class="cls-2" x="46.54" y="23.84" width="7.8" height="3.01"/><rect class="cls-2" x="46.54" y="15.86" width="7.8" height="3.01"/><rect class="cls-2" x="46.54" y="19.85" width="7.8" height="3.01"/><rect class="cls-2" x="37.76" y="19.85" width="7.8" height="3.01"/><rect class="cls-2" x="37.76" y="15.86" width="7.8" height="3.01"/></g></g></svg>