<?xml version="1.0" encoding="UTF-8"?><svg id="Layer_2" xmlns="http://www.w3.org/2000/svg" xmlns:xlink="http://www.w3.org/1999/xlink" viewBox="0 0 113.58 39.34"><defs><style>.cls-1{fill:url(#linear-gradient);}.cls-1,.cls-2,.cls-3,.cls-4,.cls-5,.cls-6{stroke-width:0px;}.cls-2{fill:#fff;}.cls-3{fill:url(#linear-gradient-2);}.cls-4{fill:url(#linear-gradient-3);}.cls-5{fill:#231f20;}.cls-6{fill:url(#linear-gradient-4);}</style><linearGradient id="linear-gradient" x1="65.96" y1="34.76" x2="113.58" y2="34.76" gradientUnits="userSpaceOnUse"><stop offset=".26" stop-color="#fff"/><stop offset=".38" stop-color="#fff" stop-opacity=".74"/><stop offset=".51" stop-color="#fff" stop-opacity=".51"/><stop offset=".62" stop-color="#fff" stop-opacity=".33"/><stop offset=".73" stop-color="#fff" stop-opacity=".19"/><stop offset=".84" stop-color="#fff" stop-opacity=".08"/><stop offset=".93" stop-color="#fff" stop-opacity=".02"/><stop offset="1" stop-color="#fff" stop-opacity="0"/></linearGradient><linearGradient id="linear-gradient-2" x1="65.02" y1="4.58" x2="112.64" y2="4.58" xlink:href="#linear-gradient"/><linearGradient id="linear-gradient-3" x1="80.27" y1="24.14" x2="103.49" y2="24.14" xlink:href="#linear-gradient"/><linearGradient id="linear-gradient-4" x1="80.27" y1="14.84" x2="103.49" y2="14.84" xlink:href="#linear-gradient"/></defs><g id="V2"><g id="Mid_Speed"><path class="cls-1" d="m113.58,35.1c-1.98-.25-6.31,2.18-8.29,1.93s-5.56-3.7-7.54-3.95-6.31,2.18-8.29,1.93-5.56-3.7-7.54-3.95-6.31,2.18-8.29,1.93-7.68-2.8-7.68-2.8c0,0,5.41,4.85,7.39,5.1s6.31-2.18,8.29-1.93,5.56,3.7,7.54,3.95,6.31-2.18,8.29-1.93,5.57,4.28,7.54,3.95c2.36-.39,8.58-4.23,8.58-4.23Z"/><path class="cls-3" d="m112.64,4.25c-1.98.25-6.31-2.18-8.29-1.93s-5.56,3.7-7.54,3.95-6.31-2.18-8.29-1.93-5.56,3.7-7.54,3.95-6.31-2.18-8.29-1.93-7.68,2.8-7.68,2.8c0,0,5.41-4.85,7.39-5.1s6.31,2.18,8.29,1.93,5.56-3.7,7.54-3.95,6.31,2.18,8.29,1.93S102.1-.31,104.06.02c2.36.39,8.58,4.23,8.58,4.23Z"/><path class="cls-4" d="m103.49,26.21c-1.44-.18-5.56-1.21-7.54-1.47s-6.31,2.18-8.29,1.93-7.39-5.1-7.39-5.1c0,0,5.71,2.55,7.68,2.8s6.38-2.53,8.29-1.93,7.24,3.76,7.24,3.76Z"/><path class="cls-6" d="m103.49,12.77c-1.44.18-5.56,1.21-7.54,1.47s-6.31-2.18-8.29-1.93-7.39,5.1-7.39,5.1c0,0,5.71-2.55,7.68-2.8s6.38,2.53,8.29,1.93,7.24-3.76,7.24-3.76Z"/></g><g id="Cargo_Ship"><path class="cls-2" d="m54.1,10.42H20.53C5.69,10.42,0,19.47,0,19.47c0,0,5.69,9.46,20.53,9.46h33.57s14.29,0,25.2-3.2v-12.51c-10.91-2.8-25.2-2.8-25.2-2.8Z"/><path class="cls-5" d="m77.92,14.29v10.4c-10.46,2.83-23.68,2.87-24.1,2.87H20.26c-11.32,0-16.93-5.94-18.57-8.07,1.65-2.05,7.27-7.7,18.84-7.7h33.57c.14,0,13.35.03,23.82,2.5h0Z"/><path class="cls-2" d="m57.5,30.29h6.28l1.38-4.78c3.6-.37,7.64-.95,11.39-1.89v-8.24c-3.75-.81-7.79-1.34-11.39-1.67l-1.38-5.03h-6.28v21.61Zm4.91-20.24l1.38,4.92c.45.04.91.08,1.37.12,3.18.3,6.69.74,10.02,1.41v6.03c-3.32.76-6.83,1.26-10.02,1.59-.47.05-.92.09-1.37.13l-1.38,4.66h-2.8V10.06h2.8Z"/><path class="cls-5" d="m59.6,28.92h2.8l1.38-4.66c.45-.04.91-.09,1.37-.13,3.19-.33,6.7-.83,10.02-1.59v-6.03c-3.33-.66-6.84-1.11-10.02-1.41-.47-.04-.92-.08-1.37-.12l-1.38-4.92h-2.8v18.86Z"/><rect class="cls-2" x="67.62" y="17.55" width="7.55" height="3.88"/><rect class="cls-2" x="11.42" y="22.12" width="7.8" height="3.01"/><rect class="cls-2" x="11.42" y="14.14" width="7.8" height="3.01"/><rect class="cls-2" x="20.2" y="22.12" width="7.8" height="3.01"/><rect class="cls-2" x="20.2" y="14.14" width="7.8" height="3.01"/><rect class="cls-2" x="28.98" y="22.12" width="7.8" height="3.01"/><rect class="cls-2" x="28.98" y="14.14" width="7.8" height="3.01"/><rect class="cls-2" x="37.76" y="22.12" width="7.8" height="3.01"/><rect class="cls-2" x="11.42" y="18.13" width="7.8" height="3.01"/><rect class="cls-2" x="20.2" y="18.13" width="7.8" height="3.01"/><rect class="cls-2" x="28.98" y="18.13" width="7.8" height="3.01"/><rect class="cls-2" x="46.54" y="22.12" width="7.8" height="3.01"/><rect class="cls-2" x="46.54" y="14.14" width="7.8" height="3.01"/><rect class="cls-2" x="46.54" y="18.13" width="7.8" height="3.01"/><rect class="cls-2" x="37.76" y="18.13" width="7.8" height="3.01"/><rect class="cls-2" x="37.76" y="14.14" width="7.8" height="3.01"/></g></g></svg>