<?xml version="1.0" encoding="utf-8"?>
<!-- Generator: Adobe Illustrator 27.4.1, SVG Export Plug-In . SVG Version: 6.00 Build 0)  -->
<svg version="1.1" xmlns="http://www.w3.org/2000/svg" xmlns:xlink="http://www.w3.org/1999/xlink" x="0px" y="0px"
	 viewBox="0 0 147.1 46.7" style="enable-background:new 0 0 147.1 46.7;" xml:space="preserve">
<style type="text/css">
	.st0{fill:none;}
	.st1{display:none;}
	.st2{display:inline;}
	.st3{fill:#FFFFFF;}
	.st4{fill:#231F20;}
	.st5{fill:url(#SVGID_1_);}
	.st6{fill:url(#SVGID_00000133507720236071747110000012505161063484791460_);}
	.st7{fill:url(#SVGID_00000103958528856245581510000012643737094002175140_);}
	.st8{fill:url(#SVGID_00000003787381243094765680000008711128098311564954_);}
	.st9{fill:url(#SVGID_00000031927987844345348170000004690206668045942411_);}
	.st10{fill:url(#SVGID_00000152222223902395135530000012205055252379585688_);}
	.st11{fill:url(#SVGID_00000103241174259658526700000007869499545003983289_);}
	.st12{fill:url(#SVGID_00000003074117101433318830000005363350502432664457_);}
	.st13{fill:url(#SVGID_00000028301223096439574370000015328010999394069160_);}
	.st14{fill:url(#SVGID_00000168812104895545103520000007279497296920658110_);}
	.st15{fill:url(#SVGID_00000104707908549449586420000016184402267559218099_);}
	.st16{fill:url(#SVGID_00000131364397231447668680000000182605051070298041_);}
	.st17{fill:url(#SVGID_00000041285494321286087970000015877826658729889692_);}
	.st18{fill:url(#SVGID_00000088130525057812692630000003271321164687013250_);}
	.st19{fill:url(#SVGID_00000162334916816923252720000010391567395118228865_);}
	.st20{fill:url(#SVGID_00000159467343391692697100000007684288676267731879_);}
</style>
<g id="Layer_7">
	<rect class="st0" width="147.1" height="46.7"/>
</g>
<g id="sailboat_x5F_slow" class="st1">
	<g id="V2" class="st2">
		<g id="Pleasure_Boat">
			<path class="st3" d="M44.8,19.8V28l-0.6,0.1c-5.3,1.1-12.9,1.7-20.7,1.7C8,29.8,1.9,24.7,1.7,24.5L1,23.9l0.7-0.6
				C1.9,23.1,8,18,23.5,18c7.8,0,15.4,0.6,20.7,1.7L44.8,19.8L44.8,19.8L44.8,19.8z"/>
			<path class="st4" d="M23.5,18.8c-15.4,0-21.3,5.1-21.3,5.1S8.1,29,23.5,29c8.1,0,15.4-0.6,20.5-1.6v-6.9
				C38.9,19.4,31.6,18.8,23.5,18.8L23.5,18.8z"/>
			<path class="st3" d="M35.7,20.1c-3.8-0.3-8-0.5-12.2-0.5c-11.8,0-17.9,3.1-20,4.4c2.1,1.3,8.2,4.4,20,4.4c4.3,0,8.5-0.2,12.2-0.5
				c-0.4-1.1-0.6-2.4-0.6-3.8S35.4,21.2,35.7,20.1z"/>
			<path class="st4" d="M37.4,20.3c-0.5-0.1-1.1-0.1-1.7-0.2c-0.4,1.1-0.6,2.4-0.6,3.8s0.2,2.7,0.6,3.8c0.6,0,1.1-0.1,1.7-0.2
				c-0.3-1.1-0.5-2.3-0.5-3.7S37.1,21.4,37.4,20.3L37.4,20.3z"/>
			<path class="st4" d="M43.3,26.8v-5.7c-0.3-0.1-0.6-0.1-1-0.2c-1.5-0.2-3.1-0.5-4.9-0.7c-0.3,1.1-0.5,2.3-0.5,3.7s0.2,2.6,0.5,3.7
				c1.8-0.2,3.4-0.4,4.9-0.7C42.6,26.9,43,26.8,43.3,26.8z"/>
			<path class="st3" d="M42.5,21.7v4.4c-0.1,0-0.2,0-0.3,0.1c-1.3,0.2-2.7,0.4-4.2,0.6c-0.2-0.9-0.3-1.9-0.3-2.8s0.1-2,0.3-2.8
				c1.5,0.2,2.9,0.4,4.2,0.6C42.3,21.7,42.4,21.7,42.5,21.7L42.5,21.7L42.5,21.7z"/>
			<path class="st4" d="M35.3,23.9c0,0-3.2-3.7-7.2-3.7s-4.5,6.9-13.1,6.9c-5.8,0-11.6-3.2-11.6-3.2H35.3L35.3,23.9z"/>
			<path class="st4" d="M23,22.9c0.6,0,1,0.5,1,1c0,0.6-0.5,1-1,1s-1-0.4-1-1C22,23.4,22.4,22.9,23,22.9z"/>
			<path class="st4" d="M38.7,23.6c0.2,0,0.3,0.1,0.3,0.3l0,0c0,0.2-0.1,0.3-0.3,0.3h-2.3c-0.2,0-0.3-0.1-0.3-0.3l0,0
				c0-0.2,0.1-0.3,0.3-0.3H38.7z"/>
			<path class="st4" d="M38.7,21.9c0-0.2,0.1-0.3,0.3-0.3l0,0c0.2,0,0.3,0.1,0.3,0.3v4c0,0.2-0.1,0.3-0.3,0.3l0,0
				c-0.2,0-0.3-0.1-0.3-0.3V21.9z"/>
		</g>
	</g>
</g>
<g id="sailboat_x5F_medium" class="st1">
	<g id="V2_00000059298110501461340310000018335675593991796916_" class="st2">
		<g id="Medium_00000029037442317813450830000013629833412684213688_">
			
				<linearGradient id="SVGID_1_" gradientUnits="userSpaceOnUse" x1="38.785" y1="16.6337" x2="77.125" y2="16.6337" gradientTransform="matrix(1 0 0 -1 0 49.9)">
				<stop  offset="0.26" style="stop-color:#FFFFFF"/>
				<stop  offset="0.38" style="stop-color:#FFFFFF;stop-opacity:0.74"/>
				<stop  offset="0.51" style="stop-color:#FFFFFF;stop-opacity:0.51"/>
				<stop  offset="0.62" style="stop-color:#FFFFFF;stop-opacity:0.33"/>
				<stop  offset="0.73" style="stop-color:#FFFFFF;stop-opacity:0.19"/>
				<stop  offset="0.84" style="stop-color:#FFFFFF;stop-opacity:8.000000e-02"/>
				<stop  offset="0.93" style="stop-color:#FFFFFF;stop-opacity:2.000000e-02"/>
				<stop  offset="1" style="stop-color:#FFFFFF;stop-opacity:0"/>
			</linearGradient>
			<path class="st5" d="M77.1,33.5c-1.6-0.2-5.1,1.8-6.7,1.6s-4.5-3-6.1-3.2s-5.1,1.8-6.7,1.6s-4.5-3-6.1-3.2S46.6,32,45,31.8
				s-6.2-2.3-6.2-2.3s4.4,3.9,6,4.1c1.6,0.2,5.1-1.8,6.7-1.6s4.5,3,6.1,3.2s5.1-1.8,6.7-1.6s4.5,3.5,6.1,3.2
				C72.1,36.6,77.1,33.5,77.1,33.5L77.1,33.5z"/>
			
				<linearGradient id="SVGID_00000057126787455775186010000018109548439021732270_" gradientUnits="userSpaceOnUse" x1="38.785" y1="35.3246" x2="77.125" y2="35.3246" gradientTransform="matrix(1 0 0 -1 0 49.9)">
				<stop  offset="0.26" style="stop-color:#FFFFFF"/>
				<stop  offset="0.38" style="stop-color:#FFFFFF;stop-opacity:0.74"/>
				<stop  offset="0.51" style="stop-color:#FFFFFF;stop-opacity:0.51"/>
				<stop  offset="0.62" style="stop-color:#FFFFFF;stop-opacity:0.33"/>
				<stop  offset="0.73" style="stop-color:#FFFFFF;stop-opacity:0.19"/>
				<stop  offset="0.84" style="stop-color:#FFFFFF;stop-opacity:8.000000e-02"/>
				<stop  offset="0.93" style="stop-color:#FFFFFF;stop-opacity:2.000000e-02"/>
				<stop  offset="1" style="stop-color:#FFFFFF;stop-opacity:0"/>
			</linearGradient>
			<path style="fill:url(#SVGID_00000057126787455775186010000018109548439021732270_);" d="M77.1,14.3c-1.6,0.2-5.1-1.8-6.7-1.6
				s-4.5,3-6.1,3.2c-1.6,0.2-5.1-1.8-6.7-1.6s-4.5,3-6.1,3.2C50,17.8,46.6,15.8,45,16c-1.6,0.2-6.2,2.3-6.2,2.3s4.4-3.9,6-4.1
				s5.1,1.8,6.7,1.6s4.5-3,6.1-3.2s5.1,1.8,6.7,1.6c1.6-0.2,4.5-3.4,6.1-3.2C72.1,11.2,77.1,14.3,77.1,14.3z"/>
			
				<linearGradient id="SVGID_00000102513062531906903080000002815888509577453696_" gradientUnits="userSpaceOnUse" x1="40.6266" y1="17.8287" x2="59.3219" y2="17.8287" gradientTransform="matrix(0.9991 -4.344502e-02 -4.344502e-02 -0.9991 6.8108 46.6773)">
				<stop  offset="0.26" style="stop-color:#FFFFFF"/>
				<stop  offset="0.38" style="stop-color:#FFFFFF;stop-opacity:0.74"/>
				<stop  offset="0.51" style="stop-color:#FFFFFF;stop-opacity:0.51"/>
				<stop  offset="0.62" style="stop-color:#FFFFFF;stop-opacity:0.33"/>
				<stop  offset="0.73" style="stop-color:#FFFFFF;stop-opacity:0.19"/>
				<stop  offset="0.84" style="stop-color:#FFFFFF;stop-opacity:8.000000e-02"/>
				<stop  offset="0.93" style="stop-color:#FFFFFF;stop-opacity:2.000000e-02"/>
				<stop  offset="1" style="stop-color:#FFFFFF;stop-opacity:0"/>
			</linearGradient>
			<path style="fill:url(#SVGID_00000102513062531906903080000002815888509577453696_);" d="M65.4,28c-1.2-0.1-4.5-0.8-6.1-0.9
				s-5,2-6.6,1.8S46.5,25,46.5,25s4.7,1.9,6.3,2s5-2.3,6.6-1.8S65.4,28,65.4,28L65.4,28z"/>
			
				<linearGradient id="SVGID_00000158017359182023848380000005117156645751926707_" gradientUnits="userSpaceOnUse" x1="52.0998" y1="281.6661" x2="70.7952" y2="281.6661" gradientTransform="matrix(0.9991 4.344502e-02 -4.344502e-02 0.9991 6.8108 -262.9173)">
				<stop  offset="0.26" style="stop-color:#FFFFFF"/>
				<stop  offset="0.38" style="stop-color:#FFFFFF;stop-opacity:0.74"/>
				<stop  offset="0.51" style="stop-color:#FFFFFF;stop-opacity:0.51"/>
				<stop  offset="0.62" style="stop-color:#FFFFFF;stop-opacity:0.33"/>
				<stop  offset="0.73" style="stop-color:#FFFFFF;stop-opacity:0.19"/>
				<stop  offset="0.84" style="stop-color:#FFFFFF;stop-opacity:8.000000e-02"/>
				<stop  offset="0.93" style="stop-color:#FFFFFF;stop-opacity:2.000000e-02"/>
				<stop  offset="1" style="stop-color:#FFFFFF;stop-opacity:0"/>
			</linearGradient>
			<path style="fill:url(#SVGID_00000158017359182023848380000005117156645751926707_);" d="M65.4,19.9c-1.2,0.1-4.5,0.8-6.1,0.9
				c-1.6,0.1-5-2-6.6-1.8s-6.1,3.8-6.1,3.8s4.7-1.9,6.3-2s5,2.3,6.6,1.8S65.4,19.9,65.4,19.9L65.4,19.9z"/>
		</g>
		<g id="Pleasure_Boat_00000127013911645405312890000006856156695579323313_">
			<path class="st3" d="M44.7,19.9v8.2l-0.6,0.1c-5.3,1.1-12.9,1.7-20.7,1.7C8,29.9,1.9,24.8,1.6,24.6L1,24l0.7-0.6
				c0.2-0.2,6.3-5.3,21.8-5.3c7.8,0,15.4,0.6,20.7,1.7L44.7,19.9L44.7,19.9L44.7,19.9z"/>
			<path class="st4" d="M23.5,18.9C8.1,18.9,2.1,24,2.1,24s5.9,5.1,21.3,5.1c8.1,0,15.4-0.6,20.5-1.6v-6.9
				C38.9,19.5,31.6,18.9,23.5,18.9L23.5,18.9z"/>
			<path class="st3" d="M35.7,20.2c-3.8-0.3-8-0.5-12.2-0.5c-11.8,0-17.9,3.1-20,4.4c2.1,1.3,8.2,4.4,20,4.4c4.3,0,8.5-0.2,12.2-0.5
				c-0.4-1.1-0.6-2.4-0.6-3.8S35.3,21.3,35.7,20.2z"/>
			<path class="st4" d="M37.4,20.3c-0.5-0.1-1.1-0.1-1.7-0.2c-0.4,1.1-0.6,2.4-0.6,3.8s0.2,2.7,0.6,3.8c0.6,0,1.1-0.1,1.7-0.2
				c-0.3-1.1-0.5-2.3-0.5-3.7S37,21.4,37.4,20.3L37.4,20.3z"/>
			<path class="st4" d="M43.2,26.8v-5.7c-0.3-0.1-0.6-0.1-1-0.2c-1.5-0.2-3.1-0.5-4.9-0.7c-0.3,1.1-0.5,2.3-0.5,3.7s0.2,2.6,0.5,3.7
				c1.8-0.2,3.4-0.4,4.9-0.7C42.6,26.9,42.9,26.9,43.2,26.8z"/>
			<path class="st3" d="M42.5,21.8v4.4c-0.1,0-0.2,0-0.3,0.1c-1.3,0.2-2.7,0.4-4.2,0.6c-0.2-0.9-0.3-1.9-0.3-2.8c0-1,0.1-2,0.3-2.8
				c1.5,0.2,2.9,0.4,4.2,0.6C42.2,21.7,42.4,21.8,42.5,21.8L42.5,21.8L42.5,21.8z"/>
			<path class="st4" d="M35.3,24c0,0-3.2-3.7-7.2-3.7s-4.5,6.9-13.1,6.9C9.2,27.2,3.5,24,3.5,24H35.3L35.3,24z"/>
			<path class="st4" d="M23,23c0.6,0,1,0.5,1,1c0,0.6-0.5,1-1,1s-1-0.4-1-1C21.9,23.4,22.4,23,23,23z"/>
			<path class="st4" d="M38.7,23.7c0.2,0,0.3,0.1,0.3,0.3l0,0c0,0.2-0.1,0.3-0.3,0.3h-2.3c-0.2,0-0.3-0.1-0.3-0.3l0,0
				c0-0.2,0.1-0.3,0.3-0.3H38.7z"/>
			<path class="st4" d="M38.7,22c0-0.2,0.1-0.3,0.3-0.3l0,0c0.2,0,0.3,0.1,0.3,0.3v4c0,0.2-0.1,0.3-0.3,0.3l0,0
				c-0.2,0-0.3-0.1-0.3-0.3V22z"/>
		</g>
	</g>
</g>
<g id="sailboat_x5F_fast" class="st1">
	<g id="V2_00000116949656016418851850000001272925950374127007_" class="st2">
		<g id="Fast_Speed">
			
				<linearGradient id="SVGID_00000058549701584512201540000000617620617524859817_" gradientUnits="userSpaceOnUse" x1="45.55" y1="20.3137" x2="83.89" y2="20.3137" gradientTransform="matrix(1 0 0 -1 0 49.9)">
				<stop  offset="0.41" style="stop-color:#FFFFFF"/>
				<stop  offset="0.48" style="stop-color:#FFFFFF;stop-opacity:0.79"/>
				<stop  offset="0.55" style="stop-color:#FFFFFF;stop-opacity:0.58"/>
				<stop  offset="0.63" style="stop-color:#FFFFFF;stop-opacity:0.4"/>
				<stop  offset="0.7" style="stop-color:#FFFFFF;stop-opacity:0.26"/>
				<stop  offset="0.78" style="stop-color:#FFFFFF;stop-opacity:0.14"/>
				<stop  offset="0.85" style="stop-color:#FFFFFF;stop-opacity:6.000000e-02"/>
				<stop  offset="0.93" style="stop-color:#FFFFFF;stop-opacity:2.000000e-02"/>
				<stop  offset="1" style="stop-color:#FFFFFF;stop-opacity:0"/>
			</linearGradient>
			<path style="fill:url(#SVGID_00000058549701584512201540000000617620617524859817_);" d="M83.9,29.8c-1.6-0.2-5.1,1.8-6.7,1.6
				s-4.5-3-6.1-3.2s-5.1,1.8-6.7,1.6s-4.5-3-6.1-3.2s-5.1,1.8-6.7,1.6s-6.2-2.3-6.2-2.3s4.4,3.9,6,4.1s5.1-1.8,6.7-1.6
				s4.5,3,6.1,3.2s5.1-1.8,6.7-1.6s4.5,3.5,6.1,3.2C78.9,32.9,83.9,29.9,83.9,29.8L83.9,29.8z"/>
			
				<linearGradient id="SVGID_00000100360880818549993020000007139846670565551033_" gradientUnits="userSpaceOnUse" x1="45.55" y1="31.6096" x2="83.89" y2="31.6096" gradientTransform="matrix(1 0 0 -1 0 49.9)">
				<stop  offset="0.41" style="stop-color:#FFFFFF"/>
				<stop  offset="0.48" style="stop-color:#FFFFFF;stop-opacity:0.79"/>
				<stop  offset="0.55" style="stop-color:#FFFFFF;stop-opacity:0.58"/>
				<stop  offset="0.63" style="stop-color:#FFFFFF;stop-opacity:0.4"/>
				<stop  offset="0.7" style="stop-color:#FFFFFF;stop-opacity:0.26"/>
				<stop  offset="0.78" style="stop-color:#FFFFFF;stop-opacity:0.14"/>
				<stop  offset="0.85" style="stop-color:#FFFFFF;stop-opacity:6.000000e-02"/>
				<stop  offset="0.93" style="stop-color:#FFFFFF;stop-opacity:2.000000e-02"/>
				<stop  offset="1" style="stop-color:#FFFFFF;stop-opacity:0"/>
			</linearGradient>
			<path style="fill:url(#SVGID_00000100360880818549993020000007139846670565551033_);" d="M83.9,18c-1.6,0.2-5.1-1.8-6.7-1.6
				s-4.5,3-6.1,3.2c-1.6,0.2-5.1-1.8-6.7-1.6s-4.5,3-6.1,3.2s-5.1-1.8-6.7-1.6S45.6,22,45.6,22s4.4-3.9,6-4.1s5.1,1.8,6.7,1.6
				s4.5-3,6.1-3.2c1.6-0.2,5.1,1.8,6.7,1.6s4.5-3.5,6.1-3.2C78.9,14.9,83.9,18,83.9,18L83.9,18z"/>
			
				<linearGradient id="SVGID_00000141426104803275687260000015947867550500209048_" gradientUnits="userSpaceOnUse" x1="32.49" y1="15.3767" x2="96.4" y2="15.3767" gradientTransform="matrix(1 0 0 -1 0 49.9)">
				<stop  offset="0.41" style="stop-color:#FFFFFF"/>
				<stop  offset="0.48" style="stop-color:#FFFFFF;stop-opacity:0.79"/>
				<stop  offset="0.55" style="stop-color:#FFFFFF;stop-opacity:0.58"/>
				<stop  offset="0.63" style="stop-color:#FFFFFF;stop-opacity:0.4"/>
				<stop  offset="0.7" style="stop-color:#FFFFFF;stop-opacity:0.26"/>
				<stop  offset="0.78" style="stop-color:#FFFFFF;stop-opacity:0.14"/>
				<stop  offset="0.85" style="stop-color:#FFFFFF;stop-opacity:6.000000e-02"/>
				<stop  offset="0.93" style="stop-color:#FFFFFF;stop-opacity:2.000000e-02"/>
				<stop  offset="1" style="stop-color:#FFFFFF;stop-opacity:0"/>
			</linearGradient>
			<path style="fill:url(#SVGID_00000141426104803275687260000015947867550500209048_);" d="M89.7,38.9c-1.6-0.1-4.6-2.8-6.2-3
				c-1.6-0.2-5,1.9-6.6,1.8c-1.6-0.1-4.6-2.8-6.2-3c-1.6-0.2-5,1.9-6.6,1.8c-1.6-0.1-4.6-2.8-6.2-3c-1.6-0.2-5,1.9-6.6,1.8
				c-1.6-0.1-4.6-2.8-6.2-3c-1.6-0.2-5,1.9-6.6,1.8c-1.6-0.1-6.1-3.9-6.1-3.9s4.7,1.9,6.3,2s5-1.9,6.6-1.8s4.6,2.8,6.2,3
				c1.6,0.2,5-1.9,6.6-1.8s4.6,2.8,6.2,3c1.6,0.2,5-1.9,6.6-1.8c1.6,0.1,4.6,2.8,6.2,3c1.6,0.2,5-1.9,6.6-1.8c1.6,0.1,4.6,2.8,6.2,3
				c1.6,0.2,6.5-0.9,6.5-0.9S91.3,39,89.7,38.9L89.7,38.9z"/>
			
				<linearGradient id="SVGID_00000070832820091376039850000009975307456201062276_" gradientUnits="userSpaceOnUse" x1="32.49" y1="36.5767" x2="96.4" y2="36.5767" gradientTransform="matrix(1 0 0 -1 0 49.9)">
				<stop  offset="0.41" style="stop-color:#FFFFFF"/>
				<stop  offset="0.48" style="stop-color:#FFFFFF;stop-opacity:0.79"/>
				<stop  offset="0.55" style="stop-color:#FFFFFF;stop-opacity:0.58"/>
				<stop  offset="0.63" style="stop-color:#FFFFFF;stop-opacity:0.4"/>
				<stop  offset="0.7" style="stop-color:#FFFFFF;stop-opacity:0.26"/>
				<stop  offset="0.78" style="stop-color:#FFFFFF;stop-opacity:0.14"/>
				<stop  offset="0.85" style="stop-color:#FFFFFF;stop-opacity:6.000000e-02"/>
				<stop  offset="0.93" style="stop-color:#FFFFFF;stop-opacity:2.000000e-02"/>
				<stop  offset="1" style="stop-color:#FFFFFF;stop-opacity:0"/>
			</linearGradient>
			<path style="fill:url(#SVGID_00000070832820091376039850000009975307456201062276_);" d="M89.7,9c-1.6,0.1-4.6,2.8-6.2,3
				c-1.6,0.1-5-1.9-6.6-1.8c-1.6,0.1-4.6,2.8-6.2,3s-5-1.9-6.6-1.8s-4.6,2.8-6.2,3c-1.6,0.1-5-1.9-6.6-1.8c-1.6,0.2-4.6,2.8-6.2,3
				c-1.6,0.2-5-1.9-6.6-1.8c-1.6,0.2-6.1,3.9-6.1,3.9s4.7-1.9,6.3-2c1.6-0.1,5,1.9,6.6,1.8c1.6-0.2,4.6-2.8,6.2-3s5,1.9,6.6,1.8
				c1.6-0.2,4.6-2.8,6.2-3s5,1.9,6.6,1.8c1.6-0.1,4.6-2.8,6.2-3c1.6-0.1,5,1.9,6.6,1.8c1.6-0.2,4.6-2.8,6.2-3
				c1.6-0.2,6.5,0.9,6.5,0.9S91.3,8.9,89.7,9L89.7,9z"/>
		</g>
		<g id="Pleasure_Boat_00000078762794009816188430000007499316860817495473_">
			<path class="st3" d="M44.8,19.9V28l-0.6,0.1c-5.3,1.1-12.9,1.7-20.7,1.7C8,29.8,1.9,24.7,1.7,24.5L1,23.9l0.7-0.6
				C1.9,23.1,8,18,23.5,18c7.8,0,15.4,0.6,20.7,1.7L44.8,19.9L44.8,19.9L44.8,19.9z"/>
			<path class="st4" d="M23.5,18.8c-15.4,0-21.3,5.1-21.3,5.1S8.1,29,23.5,29c8.1,0,15.4-0.6,20.5-1.6v-6.9
				C38.9,19.5,31.6,18.8,23.5,18.8L23.5,18.8z"/>
			<path class="st3" d="M35.7,20.1c-3.8-0.3-8-0.5-12.2-0.5c-11.8,0-17.9,3-20,4.4c2.1,1.3,8.2,4.4,20,4.4c4.3,0,8.5-0.2,12.2-0.5
				c-0.4-1.1-0.6-2.4-0.6-3.8S35.4,21.2,35.7,20.1z"/>
			<path class="st4" d="M37.4,20.3c-0.5-0.1-1.1-0.1-1.7-0.2c-0.4,1.1-0.6,2.4-0.6,3.8s0.2,2.7,0.6,3.8c0.6,0,1.1-0.1,1.7-0.2
				c-0.3-1.1-0.5-2.3-0.5-3.7S37.1,21.4,37.4,20.3L37.4,20.3z"/>
			<path class="st4" d="M43.3,26.8v-5.7c-0.3-0.1-0.6-0.1-1-0.2c-1.5-0.2-3.1-0.5-4.9-0.7c-0.3,1.1-0.5,2.3-0.5,3.7s0.2,2.6,0.5,3.7
				c1.8-0.2,3.4-0.4,4.9-0.7C42.6,26.9,43,26.8,43.3,26.8z"/>
			<path class="st3" d="M42.5,21.7v4.4c-0.1,0-0.2,0-0.3,0.1c-1.3,0.2-2.7,0.4-4.2,0.6c-0.2-0.9-0.3-1.9-0.3-2.8c0-1,0.1-2,0.3-2.8
				c1.5,0.2,2.9,0.4,4.2,0.6C42.3,21.7,42.4,21.7,42.5,21.7L42.5,21.7L42.5,21.7z"/>
			<path class="st4" d="M35.3,23.9c0,0-3.2-3.7-7.2-3.7s-4.5,6.9-13.1,6.9c-5.8,0-11.6-3.2-11.6-3.2H35.3L35.3,23.9z"/>
			<path class="st4" d="M23,22.9c0.6,0,1,0.4,1,1c0,0.6-0.5,1-1,1s-1-0.5-1-1C22,23.4,22.4,22.9,23,22.9z"/>
			<path class="st4" d="M38.7,23.6c0.2,0,0.3,0.1,0.3,0.3l0,0c0,0.2-0.1,0.3-0.3,0.3h-2.3c-0.2,0-0.3-0.1-0.3-0.3l0,0
				c0-0.2,0.1-0.3,0.3-0.3H38.7z"/>
			<path class="st4" d="M38.7,21.9c0-0.2,0.1-0.3,0.3-0.3l0,0c0.2,0,0.3,0.1,0.3,0.3v4c0,0.2-0.1,0.3-0.3,0.3l0,0
				c-0.2,0-0.3-0.1-0.3-0.3C38.7,25.9,38.7,21.9,38.7,21.9z"/>
		</g>
	</g>
</g>
<g id="cargo_x5F_ship_x5F_slow">
	<g id="V2_00000005249974370942880540000003868122789803736205_">
		<g id="Cargo_Ship_00000106845310949198511630000003969325097895475626_">
			<path class="st3" d="M55.1,14.6H21.5C6.7,14.6,1,23.7,1,23.7s5.7,9.5,20.5,9.5h33.6c0,0,14.3,0,25.2-3.2V17.4
				C69.4,14.6,55.1,14.6,55.1,14.6z"/>
			<path class="st4" d="M78.9,18.5v10.4c-10.5,2.8-23.7,2.9-24.1,2.9H21.3c-11.3,0-16.9-6-18.6-8.1c1.7-2,7.3-7.7,18.8-7.7h33.6
				C55.2,16,68.4,16,78.9,18.5C78.9,18.5,78.9,18.5,78.9,18.5z"/>
			<path class="st3" d="M58.5,34.5h6.3l1.4-4.8c3.6-0.4,7.6-1,11.4-1.9v-8.2c-3.8-0.8-7.8-1.3-11.4-1.7l-1.4-5h-6.3L58.5,34.5
				L58.5,34.5z M63.4,14.3l1.4,4.9c0.5,0,0.9,0.1,1.4,0.1c3.2,0.3,6.7,0.7,10,1.4v6c-3.3,0.8-6.8,1.3-10,1.6c-0.5,0-0.9,0.1-1.4,0.1
				l-1.4,4.7h-2.8V14.3C60.6,14.3,63.4,14.3,63.4,14.3z"/>
			<path class="st4" d="M60.6,33.1h2.8l1.4-4.7c0.4,0,0.9-0.1,1.4-0.1c3.2-0.3,6.7-0.8,10-1.6v-6c-3.3-0.7-6.8-1.1-10-1.4
				c-0.5,0-0.9-0.1-1.4-0.1l-1.4-4.9h-2.8C60.6,14.3,60.6,33.1,60.6,33.1z"/>
			<rect x="68.6" y="21.8" class="st3" width="7.6" height="3.9"/>
			<rect x="12.4" y="26.3" class="st3" width="7.8" height="3"/>
			<rect x="12.4" y="18.4" class="st3" width="7.8" height="3"/>
			<rect x="21.2" y="26.3" class="st3" width="7.8" height="3"/>
			<rect x="21.2" y="18.4" class="st3" width="7.8" height="3"/>
			<rect x="30" y="26.3" class="st3" width="7.8" height="3"/>
			<rect x="30" y="18.4" class="st3" width="7.8" height="3"/>
			<rect x="38.8" y="26.3" class="st3" width="7.8" height="3"/>
			<rect x="12.4" y="22.4" class="st3" width="7.8" height="3"/>
			<rect x="21.2" y="22.4" class="st3" width="7.8" height="3"/>
			<rect x="30" y="22.4" class="st3" width="7.8" height="3"/>
			<rect x="47.5" y="26.3" class="st3" width="7.8" height="3"/>
			<rect x="47.5" y="18.4" class="st3" width="7.8" height="3"/>
			<rect x="47.5" y="22.4" class="st3" width="7.8" height="3"/>
			<rect x="38.8" y="22.4" class="st3" width="7.8" height="3"/>
			<rect x="38.8" y="18.4" class="st3" width="7.8" height="3"/>
		</g>
	</g>
</g>
<g id="cargo_x5F_ship_x5F_medium" class="st1">
	<g id="V2_00000136383311254384627690000003244868978477908396_" class="st2">
		<g id="Mid_Speed_00000087378732045424184260000012755824561065916577_">
			
				<linearGradient id="SVGID_00000047054096783602174670000004846850375417842569_" gradientUnits="userSpaceOnUse" x1="66.95" y1="11.082" x2="114.58" y2="11.082" gradientTransform="matrix(1 0 0 -1 0 49.9)">
				<stop  offset="0.26" style="stop-color:#FFFFFF"/>
				<stop  offset="0.38" style="stop-color:#FFFFFF;stop-opacity:0.74"/>
				<stop  offset="0.51" style="stop-color:#FFFFFF;stop-opacity:0.51"/>
				<stop  offset="0.62" style="stop-color:#FFFFFF;stop-opacity:0.33"/>
				<stop  offset="0.73" style="stop-color:#FFFFFF;stop-opacity:0.19"/>
				<stop  offset="0.84" style="stop-color:#FFFFFF;stop-opacity:8.000000e-02"/>
				<stop  offset="0.93" style="stop-color:#FFFFFF;stop-opacity:2.000000e-02"/>
				<stop  offset="1" style="stop-color:#FFFFFF;stop-opacity:0"/>
			</linearGradient>
			<path style="fill:url(#SVGID_00000047054096783602174670000004846850375417842569_);" d="M114.6,39.1c-2-0.2-6.3,2.2-8.3,1.9
				s-5.6-3.7-7.5-4s-6.3,2.2-8.3,1.9s-5.6-3.7-7.5-4s-6.3,2.2-8.3,1.9s-7.7-2.8-7.7-2.8s5.4,4.8,7.4,5.1s6.3-2.2,8.3-1.9
				s5.6,3.7,7.5,4s6.3-2.2,8.3-1.9s5.6,4.3,7.5,4C108.4,43,114.6,39.1,114.6,39.1z"/>
			
				<linearGradient id="SVGID_00000157283285547343632330000001302514121998734762_" gradientUnits="userSpaceOnUse" x1="66.01" y1="41.2712" x2="113.64" y2="41.2712" gradientTransform="matrix(1 0 0 -1 0 49.9)">
				<stop  offset="0.26" style="stop-color:#FFFFFF"/>
				<stop  offset="0.38" style="stop-color:#FFFFFF;stop-opacity:0.74"/>
				<stop  offset="0.51" style="stop-color:#FFFFFF;stop-opacity:0.51"/>
				<stop  offset="0.62" style="stop-color:#FFFFFF;stop-opacity:0.33"/>
				<stop  offset="0.73" style="stop-color:#FFFFFF;stop-opacity:0.19"/>
				<stop  offset="0.84" style="stop-color:#FFFFFF;stop-opacity:8.000000e-02"/>
				<stop  offset="0.93" style="stop-color:#FFFFFF;stop-opacity:2.000000e-02"/>
				<stop  offset="1" style="stop-color:#FFFFFF;stop-opacity:0"/>
			</linearGradient>
			<path style="fill:url(#SVGID_00000157283285547343632330000001302514121998734762_);" d="M113.6,8.3c-2,0.2-6.3-2.2-8.3-1.9
				c-2,0.3-5.6,3.7-7.5,4s-6.3-2.2-8.3-1.9c-2,0.3-5.6,3.7-7.5,4s-6.3-2.2-8.3-1.9c-2,0.3-7.7,2.8-7.7,2.8s5.4-4.9,7.4-5.1
				s6.3,2.2,8.3,1.9s5.6-3.7,7.5-4s6.3,2.2,8.3,1.9s5.6-4.3,7.5-4C107.4,4.5,113.6,8.3,113.6,8.3z"/>
			
				<linearGradient id="SVGID_00000092441000355370412040000013340239199620701374_" gradientUnits="userSpaceOnUse" x1="81.27" y1="21.7226" x2="104.49" y2="21.7226" gradientTransform="matrix(1 0 0 -1 0 49.9)">
				<stop  offset="0.26" style="stop-color:#FFFFFF"/>
				<stop  offset="0.38" style="stop-color:#FFFFFF;stop-opacity:0.74"/>
				<stop  offset="0.51" style="stop-color:#FFFFFF;stop-opacity:0.51"/>
				<stop  offset="0.62" style="stop-color:#FFFFFF;stop-opacity:0.33"/>
				<stop  offset="0.73" style="stop-color:#FFFFFF;stop-opacity:0.19"/>
				<stop  offset="0.84" style="stop-color:#FFFFFF;stop-opacity:8.000000e-02"/>
				<stop  offset="0.93" style="stop-color:#FFFFFF;stop-opacity:2.000000e-02"/>
				<stop  offset="1" style="stop-color:#FFFFFF;stop-opacity:0"/>
			</linearGradient>
			<path style="fill:url(#SVGID_00000092441000355370412040000013340239199620701374_);" d="M104.5,30.3c-1.4-0.2-5.6-1.2-7.5-1.5
				s-6.3,2.2-8.3,1.9s-7.4-5.1-7.4-5.1s5.7,2.5,7.7,2.8s6.4-2.5,8.3-1.9S104.5,30.2,104.5,30.3L104.5,30.3z"/>
			
				<linearGradient id="SVGID_00000136389837519688085550000009953913284058709658_" gradientUnits="userSpaceOnUse" x1="81.27" y1="31.0006" x2="104.49" y2="31.0006" gradientTransform="matrix(1 0 0 -1 0 49.9)">
				<stop  offset="0.26" style="stop-color:#FFFFFF"/>
				<stop  offset="0.38" style="stop-color:#FFFFFF;stop-opacity:0.74"/>
				<stop  offset="0.51" style="stop-color:#FFFFFF;stop-opacity:0.51"/>
				<stop  offset="0.62" style="stop-color:#FFFFFF;stop-opacity:0.33"/>
				<stop  offset="0.73" style="stop-color:#FFFFFF;stop-opacity:0.19"/>
				<stop  offset="0.84" style="stop-color:#FFFFFF;stop-opacity:8.000000e-02"/>
				<stop  offset="0.93" style="stop-color:#FFFFFF;stop-opacity:2.000000e-02"/>
				<stop  offset="1" style="stop-color:#FFFFFF;stop-opacity:0"/>
			</linearGradient>
			<path style="fill:url(#SVGID_00000136389837519688085550000009953913284058709658_);" d="M104.5,16.8c-1.4,0.2-5.6,1.2-7.5,1.5
				s-6.3-2.2-8.3-1.9s-7.4,5.1-7.4,5.1s5.7-2.5,7.7-2.8s6.4,2.5,8.3,1.9S104.5,16.8,104.5,16.8L104.5,16.8z"/>
		</g>
		<g id="Cargo_Ship_00000083078124339476009250000009862460113218522540_">
			<path class="st3" d="M55.1,14.5H21.5c-14.8,0-20.5,9-20.5,9S6.7,33,21.5,33h33.6c0,0,14.3,0,25.2-3.2V17.3
				C69.4,14.5,55.1,14.5,55.1,14.5z"/>
			<path class="st4" d="M78.9,18.3v10.4c-10.5,2.8-23.7,2.9-24.1,2.9H21.3c-11.3,0-16.9-5.9-18.6-8.1c1.7-2,7.3-7.7,18.8-7.7h33.6
				C55.2,15.8,68.4,15.9,78.9,18.3C78.9,18.3,78.9,18.3,78.9,18.3z"/>
			<path class="st3" d="M58.5,34.3h6.3l1.4-4.8c3.6-0.4,7.6-1,11.4-1.9v-8.2c-3.8-0.8-7.8-1.3-11.4-1.7l-1.4-5h-6.3
				C58.5,12.7,58.5,34.3,58.5,34.3z M63.4,14.1l1.4,4.9c0.4,0,0.9,0.1,1.4,0.1c3.2,0.3,6.7,0.7,10,1.4v6c-3.3,0.8-6.8,1.3-10,1.6
				c-0.5,0-0.9,0.1-1.4,0.1L63.4,33h-2.8V14.1L63.4,14.1L63.4,14.1z"/>
			<path class="st4" d="M60.6,33h2.8l1.4-4.7c0.4,0,0.9-0.1,1.4-0.1c3.2-0.3,6.7-0.8,10-1.6v-6c-3.3-0.7-6.8-1.1-10-1.4
				c-0.5,0-0.9-0.1-1.4-0.1l-1.4-4.9h-2.8C60.6,14.1,60.6,33,60.6,33z"/>
			<rect x="68.6" y="21.6" class="st3" width="7.6" height="3.9"/>
			<rect x="12.4" y="26.2" class="st3" width="7.8" height="3"/>
			<rect x="12.4" y="18.2" class="st3" width="7.8" height="3"/>
			<rect x="21.2" y="26.2" class="st3" width="7.8" height="3"/>
			<rect x="21.2" y="18.2" class="st3" width="7.8" height="3"/>
			<rect x="30" y="26.2" class="st3" width="7.8" height="3"/>
			<rect x="30" y="18.2" class="st3" width="7.8" height="3"/>
			<rect x="38.8" y="26.2" class="st3" width="7.8" height="3"/>
			<rect x="12.4" y="22.2" class="st3" width="7.8" height="3"/>
			<rect x="21.2" y="22.2" class="st3" width="7.8" height="3"/>
			<rect x="30" y="22.2" class="st3" width="7.8" height="3"/>
			<rect x="47.5" y="26.2" class="st3" width="7.8" height="3"/>
			<rect x="47.5" y="18.2" class="st3" width="7.8" height="3"/>
			<rect x="47.5" y="22.2" class="st3" width="7.8" height="3"/>
			<rect x="38.8" y="22.2" class="st3" width="7.8" height="3"/>
			<rect x="38.8" y="18.2" class="st3" width="7.8" height="3"/>
		</g>
	</g>
</g>
<g id="cargo_x5F_ship_x5F_fast" class="st1">
	<g id="V2_00000158746472310255529510000001108450441416781729_" class="st2">
		<g id="Fast_Speed_00000086658196104614160590000011625422835379349381_">
			
				<linearGradient id="SVGID_00000083768948074723502490000011214891649325966213_" gradientUnits="userSpaceOnUse" x1="66.12" y1="10.1733" x2="145.57" y2="10.1733" gradientTransform="matrix(1 0 0 -1 0 49.9)">
				<stop  offset="0.41" style="stop-color:#FFFFFF"/>
				<stop  offset="0.48" style="stop-color:#FFFFFF;stop-opacity:0.79"/>
				<stop  offset="0.55" style="stop-color:#FFFFFF;stop-opacity:0.58"/>
				<stop  offset="0.63" style="stop-color:#FFFFFF;stop-opacity:0.4"/>
				<stop  offset="0.7" style="stop-color:#FFFFFF;stop-opacity:0.26"/>
				<stop  offset="0.78" style="stop-color:#FFFFFF;stop-opacity:0.14"/>
				<stop  offset="0.85" style="stop-color:#FFFFFF;stop-opacity:6.000000e-02"/>
				<stop  offset="0.93" style="stop-color:#FFFFFF;stop-opacity:2.000000e-02"/>
				<stop  offset="1" style="stop-color:#FFFFFF;stop-opacity:0"/>
			</linearGradient>
			<path style="fill:url(#SVGID_00000083768948074723502490000011214891649325966213_);" d="M137.2,45.1c-2-0.2-5.7-3.5-7.7-3.7
				s-6.2,2.4-8.2,2.2s-5.7-3.5-7.7-3.7s-6.2,2.4-8.2,2.2s-5.7-3.5-7.7-3.7s-6.2,2.4-8.2,2.2s-5.7-3.5-7.7-3.7s-6.2,2.4-8.2,2.2
				s-7.6-4.8-7.6-4.8s5.8,2.3,7.8,2.5s6.2-2.4,8.2-2.2s5.7,3.5,7.7,3.7S96,36,98,36.1s5.7,3.5,7.7,3.7s6.2-2.4,8.2-2.2
				s5.7,3.5,7.7,3.7s6.2-2.4,8.2-2.2c2,0.2,5.7,3.5,7.7,3.7s8.1-1.1,8.1-1.1S139.2,45.3,137.2,45.1L137.2,45.1z"/>
			
				<linearGradient id="SVGID_00000082350764767443044500000016509872820396762240_" gradientUnits="userSpaceOnUse" x1="66.12" y1="42.18" x2="145.57" y2="42.18" gradientTransform="matrix(1 0 0 -1 0 49.9)">
				<stop  offset="0.41" style="stop-color:#FFFFFF"/>
				<stop  offset="0.48" style="stop-color:#FFFFFF;stop-opacity:0.79"/>
				<stop  offset="0.55" style="stop-color:#FFFFFF;stop-opacity:0.58"/>
				<stop  offset="0.63" style="stop-color:#FFFFFF;stop-opacity:0.4"/>
				<stop  offset="0.7" style="stop-color:#FFFFFF;stop-opacity:0.26"/>
				<stop  offset="0.78" style="stop-color:#FFFFFF;stop-opacity:0.14"/>
				<stop  offset="0.85" style="stop-color:#FFFFFF;stop-opacity:6.000000e-02"/>
				<stop  offset="0.93" style="stop-color:#FFFFFF;stop-opacity:2.000000e-02"/>
				<stop  offset="1" style="stop-color:#FFFFFF;stop-opacity:0"/>
			</linearGradient>
			<path style="fill:url(#SVGID_00000082350764767443044500000016509872820396762240_);" d="M137.2,2.4c-2,0.2-5.7,3.5-7.7,3.7
				c-2,0.2-6.2-2.4-8.2-2.2s-5.7,3.5-7.7,3.7s-6.2-2.4-8.2-2.2c-2,0.2-5.7,3.5-7.7,3.7s-6.2-2.4-8.2-2.2s-5.7,3.5-7.7,3.7
				s-6.2-2.4-8.2-2.2c-2,0.2-7.6,4.8-7.6,4.8s5.8-2.3,7.8-2.5s6.2,2.4,8.2,2.2s5.7-3.5,7.7-3.7c2-0.2,6.2,2.4,8.2,2.2
				s5.7-3.5,7.7-3.7s6.2,2.4,8.2,2.2s5.7-3.5,7.7-3.7c2-0.2,6.2,2.4,8.2,2.2c2-0.2,5.7-3.5,7.7-3.7c2-0.2,8.1,1.1,8.1,1.1
				S139.2,2.2,137.2,2.4L137.2,2.4z"/>
			
				<linearGradient id="SVGID_00000073716684475334197170000005699154076809424807_" gradientUnits="userSpaceOnUse" x1="83.58" y1="20.382" x2="131.21" y2="20.382" gradientTransform="matrix(1 0 0 -1 0 49.9)">
				<stop  offset="0.41" style="stop-color:#FFFFFF"/>
				<stop  offset="0.48" style="stop-color:#FFFFFF;stop-opacity:0.79"/>
				<stop  offset="0.55" style="stop-color:#FFFFFF;stop-opacity:0.58"/>
				<stop  offset="0.63" style="stop-color:#FFFFFF;stop-opacity:0.4"/>
				<stop  offset="0.7" style="stop-color:#FFFFFF;stop-opacity:0.26"/>
				<stop  offset="0.78" style="stop-color:#FFFFFF;stop-opacity:0.14"/>
				<stop  offset="0.85" style="stop-color:#FFFFFF;stop-opacity:6.000000e-02"/>
				<stop  offset="0.93" style="stop-color:#FFFFFF;stop-opacity:2.000000e-02"/>
				<stop  offset="1" style="stop-color:#FFFFFF;stop-opacity:0"/>
			</linearGradient>
			<path style="fill:url(#SVGID_00000073716684475334197170000005699154076809424807_);" d="M131.2,29.8c-2-0.2-6.3,2.2-8.3,1.9
				s-5.6-3.7-7.5-4s-6.3,2.2-8.3,1.9s-5.6-3.7-7.5-4s-6.3,2.2-8.3,1.9s-7.7-2.8-7.7-2.8S89,29.8,91,30s6.3-2.2,8.3-1.9
				s5.6,3.7,7.5,4c2,0.2,6.3-2.2,8.3-1.9s5.6,4.3,7.5,4C125,33.7,131.2,29.8,131.2,29.8z"/>
			
				<linearGradient id="SVGID_00000034080364174610603150000010688180533487466113_" gradientUnits="userSpaceOnUse" x1="83.58" y1="32.2512" x2="131.21" y2="32.2512" gradientTransform="matrix(1 0 0 -1 0 49.9)">
				<stop  offset="0.41" style="stop-color:#FFFFFF"/>
				<stop  offset="0.48" style="stop-color:#FFFFFF;stop-opacity:0.79"/>
				<stop  offset="0.55" style="stop-color:#FFFFFF;stop-opacity:0.58"/>
				<stop  offset="0.63" style="stop-color:#FFFFFF;stop-opacity:0.4"/>
				<stop  offset="0.7" style="stop-color:#FFFFFF;stop-opacity:0.26"/>
				<stop  offset="0.78" style="stop-color:#FFFFFF;stop-opacity:0.14"/>
				<stop  offset="0.85" style="stop-color:#FFFFFF;stop-opacity:6.000000e-02"/>
				<stop  offset="0.93" style="stop-color:#FFFFFF;stop-opacity:2.000000e-02"/>
				<stop  offset="1" style="stop-color:#FFFFFF;stop-opacity:0"/>
			</linearGradient>
			<path style="fill:url(#SVGID_00000034080364174610603150000010688180533487466113_);" d="M131.2,17.3c-2,0.2-6.3-2.2-8.3-1.9
				s-5.6,3.7-7.5,3.9s-6.3-2.2-8.3-1.9s-5.6,3.7-7.5,4s-6.3-2.2-8.3-1.9s-7.7,2.8-7.7,2.8s5.4-4.9,7.4-5.1s6.3,2.2,8.3,1.9
				s5.6-3.7,7.5-3.9s6.3,2.2,8.3,1.9s5.6-4.3,7.5-4C125,13.5,131.2,17.3,131.2,17.3z"/>
		</g>
		<g id="Cargo_Ship_00000153705665482548210680000006000495327355693730_">
			<path class="st3" d="M55.1,14.5H21.5C6.7,14.5,1,23.6,1,23.6S6.7,33,21.5,33h33.6c0,0,14.3,0,25.2-3.2V17.3
				C69.4,14.5,55.1,14.5,55.1,14.5z"/>
			<path class="st4" d="M78.9,18.4v10.4c-10.5,2.8-23.7,2.9-24.1,2.9H21.3c-11.3,0-16.9-5.9-18.6-8.1c1.7-2,7.3-7.7,18.8-7.7h33.6
				C55.2,15.9,68.4,15.9,78.9,18.4C78.9,18.4,78.9,18.4,78.9,18.4z"/>
			<path class="st3" d="M58.5,34.4h6.3l1.4-4.8c3.6-0.4,7.6-1,11.4-1.9v-8.2c-3.8-0.8-7.8-1.3-11.4-1.7l-1.4-5h-6.3
				C58.5,12.8,58.5,34.4,58.5,34.4z M63.4,14.1l1.4,4.9c0.4,0,0.9,0.1,1.4,0.1c3.2,0.3,6.7,0.7,10,1.4v6c-3.3,0.8-6.8,1.3-10,1.6
				c-0.5,0-0.9,0.1-1.4,0.1L63.4,33h-2.8V14.1C60.6,14.1,63.4,14.1,63.4,14.1z"/>
			<path class="st4" d="M60.6,33h2.8l1.4-4.7c0.4,0,0.9-0.1,1.4-0.1c3.2-0.3,6.7-0.8,10-1.6v-6c-3.3-0.7-6.8-1.1-10-1.4
				c-0.5,0-0.9-0.1-1.4-0.1l-1.4-4.9h-2.8C60.6,14.1,60.6,33,60.6,33z"/>
			<rect x="68.6" y="21.6" class="st3" width="7.6" height="3.9"/>
			<rect x="12.4" y="26.2" class="st3" width="7.8" height="3"/>
			<rect x="12.4" y="18.2" class="st3" width="7.8" height="3"/>
			<rect x="21.2" y="26.2" class="st3" width="7.8" height="3"/>
			<rect x="21.2" y="18.2" class="st3" width="7.8" height="3"/>
			<rect x="30" y="26.2" class="st3" width="7.8" height="3"/>
			<rect x="30" y="18.2" class="st3" width="7.8" height="3"/>
			<rect x="38.8" y="26.2" class="st3" width="7.8" height="3"/>
			<rect x="12.4" y="22.2" class="st3" width="7.8" height="3"/>
			<rect x="21.2" y="22.2" class="st3" width="7.8" height="3"/>
			<rect x="30" y="22.2" class="st3" width="7.8" height="3"/>
			<rect x="47.5" y="26.2" class="st3" width="7.8" height="3"/>
			<rect x="47.5" y="18.2" class="st3" width="7.8" height="3"/>
			<rect x="47.5" y="22.2" class="st3" width="7.8" height="3"/>
			<rect x="38.8" y="22.2" class="st3" width="7.8" height="3"/>
			<rect x="38.8" y="18.2" class="st3" width="7.8" height="3"/>
		</g>
	</g>
</g>
</svg>
