<?xml version="1.0" encoding="UTF-8"?><svg id="Layer_2" xmlns="http://www.w3.org/2000/svg" viewBox="0 0 79.29 21.61"><defs><style>.cls-1{fill:#fff;}.cls-1,.cls-2{stroke-width:0px;}.cls-2{fill:#231f20;}</style></defs><g id="V2"><g id="Cargo_Ship"><path class="cls-1" d="m54.1,1.73H20.53C5.69,1.73,0,10.79,0,10.79c0,0,5.69,9.46,20.53,9.46h33.57s14.29,0,25.2-3.2V4.53c-10.91-2.8-25.2-2.8-25.2-2.8Z"/><path class="cls-2" d="m77.92,5.61v10.4c-10.46,2.83-23.68,2.87-24.1,2.87H20.26C8.94,18.87,3.33,12.93,1.69,10.81c1.65-2.05,7.27-7.7,18.84-7.7h33.57c.14,0,13.35.03,23.82,2.5h0Z"/><path class="cls-1" d="m57.5,21.61h6.28l1.38-4.78c3.6-.37,7.64-.95,11.39-1.89V6.71c-3.75-.81-7.79-1.34-11.39-1.67l-1.38-5.03h-6.28v21.61ZM62.4,1.37l1.38,4.92c.45.04.91.08,1.37.12,3.18.3,6.69.74,10.02,1.41v6.03c-3.32.76-6.83,1.26-10.02,1.59-.47.05-.92.09-1.37.13l-1.38,4.66h-2.8V1.37h2.8Z"/><path class="cls-2" d="m59.6,20.24h2.8l1.38-4.66c.45-.04.91-.09,1.37-.13,3.19-.33,6.7-.83,10.02-1.59v-6.03c-3.33-.66-6.84-1.11-10.02-1.41-.47-.04-.92-.08-1.37-.12l-1.38-4.92h-2.8v18.86Z"/><rect class="cls-1" x="67.62" y="8.87" width="7.55" height="3.88"/><rect class="cls-1" x="11.42" y="13.44" width="7.8" height="3.01"/><rect class="cls-1" x="11.42" y="5.46" width="7.8" height="3.01"/><rect class="cls-1" x="20.2" y="13.44" width="7.8" height="3.01"/><rect class="cls-1" x="20.2" y="5.46" width="7.8" height="3.01"/><rect class="cls-1" x="28.98" y="13.44" width="7.8" height="3.01"/><rect class="cls-1" x="28.98" y="5.46" width="7.8" height="3.01"/><rect class="cls-1" x="37.76" y="13.44" width="7.8" height="3.01"/><rect class="cls-1" x="11.42" y="9.45" width="7.8" height="3.01"/><rect class="cls-1" x="20.2" y="9.45" width="7.8" height="3.01"/><rect class="cls-1" x="28.98" y="9.45" width="7.8" height="3.01"/><rect class="cls-1" x="46.54" y="13.44" width="7.8" height="3.01"/><rect class="cls-1" x="46.54" y="5.46" width="7.8" height="3.01"/><rect class="cls-1" x="46.54" y="9.45" width="7.8" height="3.01"/><rect class="cls-1" x="37.76" y="9.45" width="7.8" height="3.01"/><rect class="cls-1" x="37.76" y="5.46" width="7.8" height="3.01"/></g></g></svg>