<?xml version="1.0" encoding="UTF-8"?><svg xmlns="http://www.w3.org/2000/svg" viewBox="0 0 500 230"><defs><style>.cls-1{stroke:#fff;stroke-miterlimit:10;stroke-width:5px;}.cls-1,.cls-2{fill:none;}.cls-2,.cls-3,.cls-4{stroke-width:0px;}.cls-3{fill:#fff;}.cls-4{fill:#231f20;}</style></defs><g id="Back"><rect class="cls-2" y="0" width="500" height="230"/></g><g id="Ships"><g id="commercial_fishing_boat_side"><path id="FishingOutline" class="cls-1" d="m393.74,171.74c0-13.2-9.68-24.13-22.32-26.1-17.43-19.42-23.48-61.19-24.66-70.79l2.47-2.8-4.07-3.59-83.72,94.82v-36.33h5.66c0-3.92-3.18-7.1-7.1-7.1h-80.48c-3.92,0-7.1,3.18-7.1,7.1h6.15l7.92,39.54-63.44-2.56s21.08,42.6,40.99,47.97c19.91,5.37,207.29,0,207.29,0v-14.05c12.69-1.93,22.42-12.88,22.42-26.11Zm-26.6-26.41c-14.5.1-26.22,11.88-26.22,26.41,0,.32.01.64.02.96l-77.82-3.13,80.16-90.79c2.01,13.96,8.43,49.02,23.85,66.55Z"/><polygon class="cls-3" points="261.44 179.39 189.07 179.39 178.07 124.49 261.44 124.49 261.44 179.39"/><path class="cls-4" d="m179.52,119.84h80.48c3.92,0,7.1,3.18,7.1,7.1h-94.69c0-3.92,3.18-7.1,7.1-7.1Z"/><path class="cls-4" d="m123.05,163.93s21.08,42.6,40.99,47.97c19.91,5.37,207.29,0,207.29,0v-37.97l-248.28-10Z"/><rect class="cls-4" x="189.29" y="131.93" width="13.32" height="27.3" rx="3.15" ry="3.15"/><rect class="cls-4" x="207.93" y="131.93" width="13.32" height="27.3" rx="3.15" ry="3.15"/><rect class="cls-4" x="291.57" y="50.24" width="5.43" height="159.87" transform="translate(159.85 -162.19) rotate(41.44)"/><path class="cls-4" d="m378.75,151.94c-25.86-16.09-32.23-79.09-32.23-79.09h-4s6.37,63,32.23,79.09h4Z"/><path class="cls-3" d="m137.18,188.4s28.78,20.99,234.15,7.82v-5c-205.37,13.17-237.58-7.82-237.58-7.82l3.43,5Z"/><circle class="cls-4" cx="367.33" cy="171.74" r="26.41"/><circle class="cls-3" cx="367.33" cy="171.74" r="18.04"/><rect class="cls-4" x="364.5" y="149.76" width="5.66" height="43.95"/><rect class="cls-4" x="364.5" y="149.76" width="5.66" height="43.95" transform="translate(539.07 -195.59) rotate(90)"/><rect class="cls-4" x="364.5" y="149.76" width="5.66" height="43.95" transform="translate(748.51 33.43) rotate(135)"/><rect class="cls-4" x="364.5" y="149.76" width="5.66" height="43.95" transform="translate(505.63 552.92) rotate(-135)"/></g></g></svg>