<?xml version="1.0" encoding="UTF-8"?><svg xmlns="http://www.w3.org/2000/svg" viewBox="0 0 147.15 46.65"><defs><style>.cls-1{fill:none;}.cls-1,.cls-2,.cls-3{stroke-width:0px;}.cls-2{fill:#fff;}.cls-3{fill:#231f20;}</style></defs><g id="transparent_box_that_keeps_the_svg_output_always_the_same"><rect class="cls-1" width="147.15" height="46.65"/></g><g id="NEW_ONES_FOR_REVIEW"><g id="military_ship_slow"><g id="V2"><g id="Military_Ship"><path class="cls-2" d="m64.64,15.11h-30.74c-13.59,0-18.8,8.29-18.8,8.29,0,0,5.21,8.66,18.8,8.66h30.74s6.02,0,16.01-2.93v-11.46c-9.99-2.56-16.01-2.56-16.01-2.56Z"/><path class="cls-3" d="m79.38,18.66v9.52c-9.58,2.59-14.62,2.62-14.75,2.62h-30.74c-10.62,0-15.76-5.44-17.26-7.39,1.51-1.87,6.66-7.05,17.26-7.05h30.74c.13,0,5.16.03,14.75,2.29h0Z"/><rect class="cls-2" x="20.84" y="22.95" width="8.93" height="1.26" transform="translate(50.62 47.17) rotate(180)"/><polygon class="cls-2" points="50.56 15.11 43.54 15.11 38.57 20.07 38.57 27.09 43.54 32.06 50.56 32.06 55.52 27.09 55.52 20.07 50.56 15.11"/><rect class="cls-2" x="32.82" y="22.95" width="24.14" height="1.26" transform="translate(68.48 -21.31) rotate(90)"/><polygon class="cls-3" points="49.86 16.8 44.24 16.8 40.27 20.77 40.27 26.39 44.24 30.36 49.86 30.36 53.83 26.39 53.83 20.77 49.86 16.8"/><rect class="cls-2" x="27.66" y="21.69" width="5.47" height="3.78" transform="translate(60.79 47.17) rotate(180)"/><polygon class="cls-2" points="35.49 22.5 32.86 22.1 32.86 25.06 35.49 24.66 35.49 22.5"/><polygon class="cls-2" points="54.85 29.65 57.41 27.09 57.41 20.07 54.85 17.52 64.49 17.52 68.04 21.07 68.04 26.09 64.49 29.65 54.85 29.65"/><rect class="cls-3" x="58.58" y="20.07" width="1.17" height="6.98"/><rect class="cls-3" x="60.58" y="20.07" width="1.17" height="6.98"/><rect class="cls-3" x="62.58" y="20.07" width="1.17" height="6.98"/><rect class="cls-3" x="64.58" y="20.07" width="1.17" height="6.98"/><rect class="cls-2" x="69.47" y="21.07" width="8.72" height="5.02"/></g></g></g></g></svg>