<?xml version="1.0" encoding="UTF-8"?><svg xmlns="http://www.w3.org/2000/svg" viewBox="0 0 500 230"><defs><style>.cls-1{stroke:#fff;stroke-miterlimit:10;stroke-width:5px;}.cls-1,.cls-2{fill:none;}.cls-2,.cls-3,.cls-4{stroke-width:0px;}.cls-3{fill:#fff;}.cls-4{fill:#231f20;}</style></defs><g id="Back"><rect class="cls-2" y="0" width="500" height="230"/></g><g id="Ships"><g id="military_ship_side"><path id="MilOutline" class="cls-1" d="m431.82,160.33h-82.7v-22.43l-14.39-14.39h-64.67l-6.16-28.25h-8.39v-19.63l10.68-5.92v-2.75h-10.68v-1.44h-2.24v-13.9h-2.12v13.9h-2.3v-13.9h-2.12v13.9h-2l-.31,1.44h-9.9v2.75l8.3,4.6-4.56,20.96h-21.76v-7.63c0-2.73-2.21-4.94-4.94-4.94s-4.94,2.21-4.94,4.94v7.63h-16.34l-16.53,65.07h-1.33l-11.66-.44v-4.08l-5.78-5.78h-3.11v-2.71h3.67l3.52-3.52v-5.32l-3.52-3.52h-26.01c-2.07,0-3.76,1.52-4.07,3.5h-19.73v1.38h-11.34v3.98h31.07c.31,1.98,2.01,3.5,4.07,3.5h.89v2.71h-3.11l-5.78,5.78v2.59l-68.36-2.6c27.09,27.26,41.74,45.74,67.7,59.51h297.38c10.11-15.79,14.06-42.73,13.56-54.98Z"/><polygon class="cls-4" points="173.64 160.77 190.28 95.27 263.91 95.27 278.18 160.77 173.64 160.77"/><path class="cls-4" d="m431.82,160.33H172.42l-119.24-4.53c27.09,27.26,41.74,45.74,67.7,59.51h297.38c10.11-15.79,14.06-42.73,13.56-54.98Z"/><rect class="cls-3" x="190.86" y="109.44" width="10.78" height="3.93"/><rect class="cls-3" x="205.19" y="109.44" width="10.78" height="3.93"/><rect class="cls-3" x="219.52" y="109.44" width="10.78" height="3.93"/><polygon class="cls-4" points="349.12 160.77 264.26 160.77 264.26 123.52 334.73 123.52 349.12 137.91 349.12 160.77"/><polygon class="cls-4" points="255.51 112.44 234.52 112.44 244.73 65.52 255.51 65.52 255.51 112.44"/><g id="Turret"><polygon class="cls-4" points="160.76 161.62 121.53 161.62 121.53 155.81 127.32 150.03 154.98 150.03 160.76 155.81 160.76 161.62"/><path class="cls-4" d="m155.55,147.31h-26.01c-2.28,0-4.14-1.85-4.14-4.14v-4.09c0-2.28,1.85-4.14,4.14-4.14h26.01l3.52,3.52v5.32l-3.52,3.52Z"/><rect class="cls-4" x="130.43" y="147.12" width="21.45" height="2.9"/><polygon class="cls-4" points="105.73 138.45 105.73 139.83 94.4 139.83 94.4 143.81 129.63 143.81 129.63 141.82 129.63 139.83 129.63 138.45 105.73 138.45"/></g><path class="cls-4" d="m211.56,82.7h0c2.73,0,4.94,2.22,4.94,4.94v7.63h-9.89v-7.63c0-2.73,2.22-4.94,4.94-4.94Z"/><rect class="cls-4" x="251.15" y="51.62" width="2.12" height="21.83"/><rect class="cls-4" x="246.73" y="51.62" width="2.12" height="21.83"/><polygon class="cls-4" points="266.2 69.71 250.36 78.49 234.52 69.71 234.52 66.96 266.2 66.96 266.2 69.71"/><path class="cls-3" d="m99.45,201.16l325.17.86c.69-1.91,1.34-3.86,1.93-5.83H93.55c1.95,1.71,3.91,3.37,5.9,4.97Z"/></g></g></svg>