<?xml version="1.0" encoding="UTF-8"?><svg xmlns="http://www.w3.org/2000/svg" xmlns:xlink="http://www.w3.org/1999/xlink" viewBox="0 0 147.15 46.65"><defs><style>.cls-1{fill:url(#linear-gradient);}.cls-1,.cls-2,.cls-3,.cls-4,.cls-5,.cls-6,.cls-7{stroke-width:0px;}.cls-2{fill:none;}.cls-3{fill:#fff;}.cls-4{fill:url(#linear-gradient-2);}.cls-5{fill:url(#linear-gradient-3);}.cls-6{fill:#231f20;}.cls-7{fill:url(#linear-gradient-4);}</style><linearGradient id="linear-gradient" x1="66.12" y1="10.17" x2="145.57" y2="10.17" gradientTransform="translate(0 49.9) scale(1 -1)" gradientUnits="userSpaceOnUse"><stop offset=".41" stop-color="#fff"/><stop offset=".48" stop-color="#fff" stop-opacity=".79"/><stop offset=".55" stop-color="#fff" stop-opacity=".58"/><stop offset=".63" stop-color="#fff" stop-opacity=".4"/><stop offset=".7" stop-color="#fff" stop-opacity=".26"/><stop offset=".78" stop-color="#fff" stop-opacity=".14"/><stop offset=".85" stop-color="#fff" stop-opacity=".06"/><stop offset=".93" stop-color="#fff" stop-opacity=".02"/><stop offset="1" stop-color="#fff" stop-opacity="0"/></linearGradient><linearGradient id="linear-gradient-2" y1="42.18" y2="42.18" xlink:href="#linear-gradient"/><linearGradient id="linear-gradient-3" x1="83.58" y1="20.38" x2="131.21" y2="20.38" xlink:href="#linear-gradient"/><linearGradient id="linear-gradient-4" x1="83.58" y1="32.25" x2="131.21" y2="32.25" xlink:href="#linear-gradient"/></defs><g id="transparent_box_that_keeps_the_svg_output_always_the_same"><rect class="cls-2" width="147.15" height="46.65"/></g><g id="NEW_ONES_FOR_REVIEW"><g id="passenger_ship_fast"><g id="V2"><g id="Fast_Speed"><path class="cls-1" d="m137.24,45.08c-1.99-.18-5.68-3.51-7.67-3.69s-6.23,2.4-8.22,2.22-5.68-3.51-7.67-3.69-6.23,2.4-8.22,2.22-5.68-3.51-7.67-3.69-6.23,2.4-8.22,2.22-5.68-3.51-7.67-3.69-6.23,2.4-8.22,2.22-7.56-4.84-7.56-4.84c0,0,5.79,2.35,7.78,2.54s6.23-2.4,8.22-2.22,5.68,3.51,7.67,3.69,6.23-2.4,8.22-2.22,5.68,3.51,7.67,3.69,6.23-2.4,8.22-2.22,5.68,3.51,7.67,3.69,6.23-2.4,8.22-2.22c1.99.18,5.68,3.51,7.67,3.69s8.11-1.06,8.11-1.06c0,0-6.34,3.55-8.32,3.37h0Z"/><path class="cls-4" d="m137.24,2.37c-1.99.18-5.68,3.51-7.67,3.69s-6.23-2.4-8.22-2.22-5.68,3.51-7.67,3.69-6.23-2.4-8.22-2.22-5.68,3.51-7.67,3.69-6.23-2.4-8.22-2.22-5.68,3.51-7.67,3.69-6.23-2.4-8.22-2.22-7.56,4.84-7.56,4.84c0,0,5.79-2.35,7.78-2.54s6.23,2.4,8.22,2.22,5.68-3.51,7.67-3.69,6.23,2.4,8.22,2.22,5.68-3.51,7.67-3.69,6.23,2.4,8.22,2.22,5.68-3.51,7.67-3.69,6.23,2.4,8.22,2.22c1.99-.18,5.68-3.51,7.67-3.69s8.11,1.06,8.11,1.06c0,0-6.34-3.55-8.32-3.37h0Z"/><path class="cls-5" d="m131.21,29.85c-1.98-.25-6.31,2.18-8.29,1.93s-5.56-3.7-7.54-3.95-6.31,2.18-8.29,1.93-5.56-3.7-7.54-3.95-6.31,2.18-8.29,1.93-7.68-2.8-7.68-2.8c0,0,5.41,4.85,7.39,5.1s6.31-2.18,8.29-1.93,5.56,3.7,7.54,3.95,6.31-2.18,8.29-1.93,5.57,4.28,7.54,3.95c2.36-.39,8.58-4.23,8.58-4.23Z"/><path class="cls-7" d="m131.21,17.32c-1.98.25-6.31-2.18-8.29-1.93s-5.56,3.7-7.54,3.95-6.31-2.18-8.29-1.93-5.56,3.7-7.54,3.95-6.31-2.18-8.29-1.93-7.68,2.8-7.68,2.8c0,0,5.41-4.85,7.39-5.1s6.31,2.18,8.29,1.93,5.56-3.7,7.54-3.95,6.31,2.18,8.29,1.93,5.57-4.28,7.54-3.95c2.36.39,8.58,4.23,8.58,4.23Z"/></g><g id="Passenger_Ship"><path class="cls-3" d="m57.15,32.15H19.42C5.91,32.15.73,23.91.73,23.91c0,0,5.18-8.61,18.7-8.61h37.73s13.01,0,22.94,2.91v11.06c-9.93,2.55-22.94,2.88-22.94,2.88Z"/><path class="cls-3" d="m18.8,34.54h6.28l1.38-4.78c3.6-.37,7.64-.95,11.39-1.89v-8.23c-3.75-.81-7.79-1.34-11.39-1.67l-1.38-5.03h-6.28v21.61h0Zm4.9-20.24l1.38,4.92c.45.04.91.08,1.37.12,3.18.3,6.69.74,10.02,1.41v6.03c-3.32.76-6.83,1.26-10.02,1.59-.47.05-.92.09-1.37.13l-1.38,4.66h-2.8V14.3h2.8Z"/><path class="cls-6" d="m19.9,33.17h3.8l1.38-4.66c.45-.04.91-.09,1.37-.13,3.19-.33,6.7-.83,10.02-1.59v-6.03c-3.33-.66-6.84-1.11-10.02-1.41-.47-.04-.92-.08-1.37-.12l-1.38-4.92h-3.8v18.86Z"/><path class="cls-3" d="m78.84,28.29v-9.13c-9.53-2.58-21.57-2.61-21.69-2.61H19.42c-10.56,0-15.67,5.41-17.16,7.34,1.51,1.86,6.62,7.01,17.16,7.01h37.73c.12,0,12.16-.36,21.69-2.61h0Z"/><polygon class="cls-6" points="53.72 18.07 53.41 16.55 25.44 16.55 25.3 18.07 53.72 18.07"/><polygon class="cls-6" points="53.41 30.9 53.72 29.38 25.29 29.38 25.44 30.9 53.41 30.9"/><rect class="cls-3" x="77.27" y="19.16" width="1.57" height="9.13"/><rect class="cls-6" x="76.1" y="19.16" width="1.17" height="9.13"/><rect class="cls-3" x="74.54" y="19.16" width="1.57" height="9.13"/><rect class="cls-6" x="73.37" y="19.16" width="1.17" height="9.13"/><rect class="cls-3" x="71.8" y="19.16" width="1.57" height="9.13"/><rect class="cls-6" x="70.63" y="19.16" width="1.17" height="9.13"/><path class="cls-3" d="m18.23,23.72c0-2.58,1.77-5.01,4.92-7.18h2.3c-3.14,2.16-4.92,4.6-4.92,7.18s1.77,5.01,4.92,7.18h-2.3c-3.14-2.16-4.92-4.6-4.92-7.18Z"/><path class="cls-3" d="m14.15,23.72c0-2.58,1.77-5.01,4.92-7.18h2.3c-3.14,2.16-4.91,4.6-4.91,7.18s1.77,5.01,4.91,7.18h-2.3c-3.14-2.16-4.91-4.6-4.91-7.18Z"/><path class="cls-6" d="m12.37,23.72c0-2.58,1.77-5.01,4.92-7.18h1.78c-3.14,2.16-4.92,4.6-4.92,7.18s1.77,5.01,4.91,7.18h-1.78c-3.14-2.16-4.92-4.6-4.92-7.18Z"/><path class="cls-6" d="m16.45,23.72c0-2.58,1.77-5.01,4.91-7.18h1.78c-3.14,2.16-4.92,4.6-4.92,7.18s1.77,5.01,4.92,7.18h-1.78c-3.14-2.16-4.91-4.6-4.91-7.18Z"/><path class="cls-6" d="m20.53,23.72c0-2.58,1.77-5.01,4.92-7.18h1.78c-3.14,2.16-4.91,4.6-4.91,7.18s1.77,5.01,4.91,7.18h-1.78c-3.14-2.16-4.92-4.6-4.92-7.18Z"/><path class="cls-6" d="m53.72,18.07s9.85,0,16.91,1.85l1.17-.76c-4.5-1.68-11.54-2.61-18.39-2.61l.31,1.52Z"/><path class="cls-6" d="m53.72,29.38s9.85,0,16.91-1.85l1.17.76c-4.5,1.68-11.54,2.61-18.39,2.61l.31-1.52Z"/><polygon class="cls-6" points="78.84 21.51 78.84 19.16 71.8 19.16 71.8 20.17 78.84 21.51"/><polygon class="cls-6" points="78.84 25.94 78.84 28.29 71.8 28.29 71.8 27.27 78.84 25.94"/><polygon class="cls-6" points="25.3 18.07 17.28 16.55 25.44 16.55 25.3 18.07"/><polygon class="cls-6" points="25.29 29.38 17.28 30.9 25.44 30.9 25.29 29.38"/><polygon class="cls-6" points="48.98 25.61 48.98 21.89 41.94 22.3 41.94 25.2 48.98 25.61"/><polygon class="cls-3" points="48.09 24.79 48.09 22.71 42.68 22.93 42.68 24.56 48.09 24.79"/><path class="cls-6" d="m56.42,23.72c0,2.53,5.08,4.58,7.64,4.58s4.64-2.06,4.64-4.58-2.08-4.58-4.64-4.58-7.64,2.06-7.64,4.58h0Z"/><path class="cls-3" d="m63.89,20.22c-1.96,0-6.21,1.57-6.21,3.5s4.26,3.5,6.21,3.5,3.54-1.57,3.54-3.5-1.59-3.5-3.54-3.5Z"/><circle class="cls-6" cx="4.24" cy="23.75" r=".85"/></g></g></g></g></svg>