<?xml version="1.0" encoding="UTF-8"?><svg id="Layer_2" xmlns="http://www.w3.org/2000/svg" xmlns:xlink="http://www.w3.org/1999/xlink" viewBox="0 0 76.17 26.05"><defs><style>.cls-1{fill:url(#linear-gradient);}.cls-1,.cls-2,.cls-3,.cls-4,.cls-5,.cls-6{stroke-width:0px;}.cls-2{fill:#fff;}.cls-3{fill:url(#linear-gradient-2);}.cls-4{fill:url(#linear-gradient-3);}.cls-5{fill:#231f20;}.cls-6{fill:url(#linear-gradient-4);}</style><linearGradient id="linear-gradient" x1="37.83" y1="22.37" x2="76.17" y2="22.37" gradientUnits="userSpaceOnUse"><stop offset=".26" stop-color="#fff"/><stop offset=".38" stop-color="#fff" stop-opacity=".74"/><stop offset=".51" stop-color="#fff" stop-opacity=".51"/><stop offset=".62" stop-color="#fff" stop-opacity=".33"/><stop offset=".73" stop-color="#fff" stop-opacity=".19"/><stop offset=".84" stop-color="#fff" stop-opacity=".08"/><stop offset=".93" stop-color="#fff" stop-opacity=".02"/><stop offset="1" stop-color="#fff" stop-opacity="0"/></linearGradient><linearGradient id="linear-gradient-2" y1="3.69" y2="3.69" xlink:href="#linear-gradient"/><linearGradient id="linear-gradient-3" x1="45.7" y1="15.75" x2="64.39" y2="15.75" gradientTransform="translate(-.67 2.46) rotate(-2.49)" xlink:href="#linear-gradient"/><linearGradient id="linear-gradient-4" x1="45.36" y1="23.53" x2="64.05" y2="23.53" gradientTransform="translate(-.67 31.4) rotate(2.49) scale(1 -1)" xlink:href="#linear-gradient"/></defs><g id="V2"><g id="Medium"><path class="cls-1" d="m76.17,22.63c-1.59-.2-5.08,1.76-6.67,1.56s-4.47-2.98-6.07-3.18-5.08,1.76-6.67,1.56-4.47-2.98-6.07-3.18-5.08,1.76-6.67,1.56-6.19-2.26-6.19-2.26c0,0,4.36,3.9,5.95,4.11s5.08-1.76,6.67-1.56,4.47,2.98,6.07,3.18,5.08-1.76,6.67-1.56,4.48,3.45,6.07,3.18c1.9-.32,6.91-3.4,6.91-3.4Z"/><path class="cls-3" d="m76.17,3.42c-1.59.2-5.08-1.76-6.67-1.56s-4.47,2.98-6.07,3.18-5.08-1.76-6.67-1.56-4.47,2.98-6.07,3.18-5.08-1.76-6.67-1.56-6.19,2.26-6.19,2.26c0,0,4.36-3.9,5.95-4.11s5.08,1.76,6.67,1.56,4.47-2.98,6.07-3.18,5.08,1.76,6.67,1.56S67.67-.25,69.26.02c1.9.32,6.91,3.4,6.91,3.4Z"/><path class="cls-4" d="m64.41,17.06c-1.17-.1-4.51-.78-6.11-.91s-5,1.98-6.6,1.84-6.12-3.84-6.12-3.84c0,0,4.68,1.85,6.28,1.99s5.05-2.26,6.6-1.84,5.96,2.77,5.96,2.77Z"/><path class="cls-6" d="m64.41,9c-1.17.1-4.51.78-6.11.91s-5-1.98-6.6-1.84-6.12,3.84-6.12,3.84c0,0,4.68-1.85,6.28-1.99s5.05,2.26,6.6,1.84,5.96-2.77,5.96-2.77Z"/></g><g id="Pleasure_Boat"><path class="cls-2" d="m43.79,9.02v8.16l-.61.12c-5.31,1.06-12.85,1.67-20.68,1.67C7,18.97.92,13.89.67,13.68l-.67-.58.67-.58c.25-.22,6.33-5.3,21.83-5.3,7.83,0,15.37.61,20.68,1.67l.61.12h0Z"/><path class="cls-5" d="m22.5,7.99C7.1,7.99,1.16,13.1,1.16,13.1c0,0,5.94,5.11,21.33,5.11,8.13,0,15.44-.64,20.53-1.65v-6.91c-5.09-1.02-12.41-1.66-20.53-1.66Z"/><path class="cls-2" d="m34.73,9.27c-3.77-.34-7.95-.52-12.23-.52-11.75,0-17.91,3.05-20.01,4.35,2.09,1.3,8.25,4.35,20.01,4.35,4.28,0,8.46-.18,12.23-.52-.36-1.11-.57-2.42-.57-3.83s.21-2.72.57-3.83Z"/><path class="cls-5" d="m36.41,9.44c-.55-.06-1.11-.11-1.68-.16-.36,1.11-.57,2.42-.57,3.83s.21,2.72.57,3.83c.57-.05,1.13-.11,1.68-.16-.33-1.07-.52-2.33-.52-3.66s.19-2.59.52-3.66Z"/><path class="cls-5" d="m42.27,15.93v-5.66c-.32-.06-.64-.12-.98-.17-1.5-.25-3.14-.47-4.89-.66-.33,1.07-.52,2.32-.52,3.66s.19,2.59.52,3.66c1.75-.19,3.39-.41,4.89-.66.33-.06.66-.11.98-.17Z"/><path class="cls-2" d="m41.51,10.9v4.39c-.11.02-.23.04-.34.06-1.28.22-2.69.41-4.2.58-.21-.89-.32-1.86-.32-2.84s.11-1.95.32-2.84c1.5.17,2.91.37,4.2.58.12.02.23.04.34.06h0Z"/><path class="cls-5" d="m34.34,13.1s-3.2-3.72-7.23-3.72-4.51,6.9-13.05,6.9c-5.78,0-11.56-3.18-11.56-3.18h31.85Z"/><path class="cls-5" d="m22,12.1c.56,0,1.01.45,1.01,1.01s-.45,1.01-1.01,1.01-1.01-.45-1.01-1.01.45-1.01,1.01-1.01Z"/><path class="cls-5" d="m37.73,12.8c.17,0,.31.14.31.31h0c0,.17-.14.31-.31.31h-2.35c-.17,0-.31-.14-.31-.31h0c0-.17.14-.31.31-.31h2.35Z"/><path class="cls-5" d="m37.73,11.1c0-.17.14-.31.31-.31h0c.17,0,.31.14.31.31v4.01c0,.17-.14.31-.31.31h0c-.17,0-.31-.14-.31-.31v-4.01Z"/></g></g></svg>