<?xml version="1.0" encoding="UTF-8"?><svg id="Layer_2" xmlns="http://www.w3.org/2000/svg" xmlns:xlink="http://www.w3.org/1999/xlink" viewBox="0 0 95.4 29.87"><defs><style>.cls-1{fill:url(#linear-gradient);}.cls-1,.cls-2,.cls-3,.cls-4,.cls-5,.cls-6{stroke-width:0px;}.cls-2{fill:#fff;}.cls-3{fill:url(#linear-gradient-2);}.cls-4{fill:url(#linear-gradient-3);}.cls-5{fill:#231f20;}.cls-6{fill:url(#linear-gradient-4);}</style><linearGradient id="linear-gradient" x1="44.55" y1="20.58" x2="82.89" y2="20.58" gradientUnits="userSpaceOnUse"><stop offset=".41" stop-color="#fff"/><stop offset=".48" stop-color="#fff" stop-opacity=".79"/><stop offset=".55" stop-color="#fff" stop-opacity=".58"/><stop offset=".63" stop-color="#fff" stop-opacity=".4"/><stop offset=".7" stop-color="#fff" stop-opacity=".26"/><stop offset=".78" stop-color="#fff" stop-opacity=".14"/><stop offset=".85" stop-color="#fff" stop-opacity=".06"/><stop offset=".93" stop-color="#fff" stop-opacity=".02"/><stop offset="1" stop-color="#fff" stop-opacity="0"/></linearGradient><linearGradient id="linear-gradient-2" y1="9.3" y2="9.3" xlink:href="#linear-gradient"/><linearGradient id="linear-gradient-3" x1="31.47" y1="25.54" x2="95.4" y2="25.54" xlink:href="#linear-gradient"/><linearGradient id="linear-gradient-4" x1="31.47" y1="4.33" x2="95.4" y2="4.33" xlink:href="#linear-gradient"/></defs><g id="V2"><g id="Fast_Speed"><path class="cls-1" d="m82.89,20.85c-1.59-.2-5.08,1.76-6.67,1.56s-4.47-2.98-6.07-3.18-5.08,1.76-6.67,1.56-4.47-2.98-6.07-3.18-5.08,1.76-6.67,1.56-6.19-2.26-6.19-2.26c0,0,4.36,3.9,5.95,4.11s5.08-1.76,6.67-1.56,4.47,2.98,6.07,3.18,5.08-1.76,6.67-1.56,4.48,3.45,6.07,3.18c1.9-.32,6.91-3.4,6.91-3.4Z"/><path class="cls-3" d="m82.89,9.04c-1.59.2-5.08-1.76-6.67-1.56s-4.47,2.98-6.07,3.18-5.08-1.76-6.67-1.56-4.47,2.98-6.07,3.18-5.08-1.76-6.67-1.56-6.19,2.26-6.19,2.26c0,0,4.36-3.9,5.95-4.11s5.08,1.76,6.67,1.56,4.47-2.98,6.07-3.18,5.08,1.76,6.67,1.56,4.48-3.45,6.07-3.18c1.9.32,6.91,3.4,6.91,3.4Z"/><path class="cls-4" d="m88.7,29.86c-1.6-.15-4.57-2.82-6.17-2.97s-5.02,1.93-6.61,1.78-4.57-2.82-6.17-2.97-5.02,1.93-6.61,1.78-4.57-2.82-6.17-2.97-5.02,1.93-6.61,1.78-4.57-2.82-6.17-2.97-5.02,1.93-6.61,1.78-6.09-3.9-6.09-3.9c0,0,4.66,1.9,6.26,2.04s5.02-1.93,6.61-1.78,4.57,2.82,6.17,2.97,5.02-1.93,6.61-1.78,4.57,2.82,6.17,2.97,5.02-1.93,6.61-1.78,4.57,2.82,6.17,2.97,5.02-1.93,6.61-1.78,4.57,2.82,6.17,2.97,6.53-.86,6.53-.86c0,0-5.1,2.86-6.7,2.71Z"/><path class="cls-6" d="m88.7,0c-1.6.15-4.57,2.82-6.17,2.97s-5.02-1.93-6.61-1.78-4.57,2.82-6.17,2.97-5.02-1.93-6.61-1.78-4.57,2.82-6.17,2.97-5.02-1.93-6.61-1.78-4.57,2.82-6.17,2.97-5.02-1.93-6.61-1.78-6.09,3.9-6.09,3.9c0,0,4.66-1.9,6.26-2.04s5.02,1.93,6.61,1.78,4.57-2.82,6.17-2.97,5.02,1.93,6.61,1.78,4.57-2.82,6.17-2.97,5.02,1.93,6.61,1.78,4.57-2.82,6.17-2.97,5.02,1.93,6.61,1.78,4.57-2.82,6.17-2.97,6.53.86,6.53.86c0,0-5.1-2.86-6.7-2.71Z"/></g><g id="Pleasure_Boat"><path class="cls-2" d="m43.79,10.86v8.16l-.61.12c-5.31,1.06-12.85,1.67-20.68,1.67C7,20.81.92,15.73.67,15.51l-.67-.58.67-.58c.25-.22,6.33-5.3,21.83-5.3,7.83,0,15.37.61,20.68,1.67l.61.12h0Z"/><path class="cls-5" d="m22.5,9.82C7.1,9.82,1.16,14.94,1.16,14.94c0,0,5.94,5.11,21.33,5.11,8.13,0,15.44-.64,20.53-1.65v-6.91c-5.09-1.02-12.41-1.66-20.53-1.66Z"/><path class="cls-2" d="m34.73,11.11c-3.77-.34-7.95-.52-12.23-.52-11.75,0-17.91,3.05-20.01,4.35,2.09,1.3,8.25,4.35,20.01,4.35,4.28,0,8.46-.18,12.23-.52-.36-1.11-.57-2.42-.57-3.83s.21-2.72.57-3.83Z"/><path class="cls-5" d="m36.41,11.27c-.55-.06-1.11-.11-1.68-.16-.36,1.11-.57,2.42-.57,3.83s.21,2.72.57,3.83c.57-.05,1.13-.11,1.68-.16-.33-1.07-.52-2.33-.52-3.66s.19-2.59.52-3.66Z"/><path class="cls-5" d="m42.27,17.76v-5.66c-.32-.06-.64-.12-.98-.17-1.5-.25-3.14-.47-4.89-.66-.33,1.07-.52,2.32-.52,3.66s.19,2.59.52,3.66c1.75-.19,3.39-.41,4.89-.66.33-.06.66-.11.98-.17Z"/><path class="cls-2" d="m41.51,12.74v4.39c-.11.02-.23.04-.34.06-1.28.22-2.69.41-4.2.58-.21-.89-.32-1.86-.32-2.84s.11-1.95.32-2.84c1.5.17,2.91.37,4.2.58.12.02.23.04.34.06h0Z"/><path class="cls-5" d="m34.34,14.93s-3.2-3.72-7.23-3.72-4.51,6.9-13.05,6.9c-5.78,0-11.56-3.18-11.56-3.18h31.85Z"/><path class="cls-5" d="m22,13.93c.56,0,1.01.45,1.01,1.01s-.45,1.01-1.01,1.01-1.01-.45-1.01-1.01.45-1.01,1.01-1.01Z"/><path class="cls-5" d="m37.73,14.63c.17,0,.31.14.31.31h0c0,.17-.14.31-.31.31h-2.35c-.17,0-.31-.14-.31-.31h0c0-.17.14-.31.31-.31h2.35Z"/><path class="cls-5" d="m37.73,12.94c0-.17.14-.31.31-.31h0c.17,0,.31.14.31.31v4.01c0,.17-.14.31-.31.31h0c-.17,0-.31-.14-.31-.31v-4.01Z"/></g></g></svg>