<?xml version="1.0" encoding="UTF-8"?><svg xmlns="http://www.w3.org/2000/svg" viewBox="0 0 500 230"><defs><style>.cls-1{fill:none;}.cls-1,.cls-2,.cls-3{stroke-width:0px;}.cls-2,.cls-4{fill:#fff;}.cls-3{fill:#231f20;}.cls-4{stroke:#fff;stroke-miterlimit:10;stroke-width:6px;}</style></defs><g id="Back"><rect class="cls-1" y="0" width="500" height="230"/></g><g id="Ships"><g id="sailboat_side"><path class="cls-4" d="m224.7,188.39c-.18,0-.32-.14-.32-.32v-19.23c0-.18.14-.32.32-.32h96.4c1.04,0,1.88-.84,1.88-1.88h0c0-1.04-.84-1.88-1.88-1.88h-96.4c-.18,0-.32-.14-.32-.32V8.75c0-1.04-.84-1.88-1.88-1.88h0c-1.04,0-1.88.84-1.88,1.88v179.32c0,.18-.14.32-.32.32h-67.53c-.28,0-.43.33-.24.54,3.23,3.44,21.58,22.31,36.76,23.21,71.02,4.21,121.79,1.18,139.27-.2,4.02-.32,7.44-3.06,8.63-6.92l5.01-16.21c.06-.21-.09-.42-.31-.42h-117.19Z"/><path class="cls-3" d="m189.29,212.13c71.32,4.23,122.21,1.15,139.49-.22,3.89-.31,7.19-2.96,8.34-6.69l5.2-16.83h-190.29s20.55,22.75,37.25,23.74Z"/><path class="cls-2" d="m173.04,201.34c2.51,1.93,5.23,3.81,8.03,5.46h150.88c.26-.5.48-1.02.65-1.58l1.2-3.89h-160.76Z"/><path class="cls-2" d="m323.03,187.52h-46.73l8.95-10.44c1.19-1.35,2.9-2.13,4.7-2.13h28.58c2.48,0,4.49,2.01,4.49,4.49v8.08Z"/><path class="cls-3" d="m281.48,183.77h21.09c1.59,0,2.88-1.29,2.88-2.88h0c0-1.59-1.29-2.88-2.88-2.88h-16.02l-5.07,5.76Z"/><path class="cls-3" d="m222.18,6.87h.64c.86,0,1.55.7,1.55,1.55v179.96h-3.75V8.43c0-.86.7-1.55,1.55-1.55Z"/><path class="cls-2" d="m152.04,174.46s50.08,1.52,55.81-9.22c6.85-12.85,5.45-133.37,5.45-133.37l-61.26,142.59Z"/><path class="cls-2" d="m230.72,8.57s40.42,33.69,66.49,82.09c14.63,27.17,24.99,65.96,24.99,65.96h-84.44c-3.89,0-7.04-3.15-7.04-7.04V8.57Z"/><path class="cls-3" d="m273.36,117.35h.64c.86,0,1.55.7,1.55,1.55v97.04h-3.75v-97.04c0-.86.7-1.55,1.55-1.55Z" transform="translate(440.32 -107.03) rotate(90)"/></g></g></svg>