<?xml version="1.0" encoding="UTF-8"?><svg id="Layer_2" xmlns="http://www.w3.org/2000/svg" viewBox="0 0 43.79 11.74"><defs><style>.cls-1{fill:#fff;}.cls-1,.cls-2{stroke-width:0px;}.cls-2{fill:#231f20;}</style></defs><g id="V2"><g id="Pleasure_Boat"><path class="cls-1" d="m43.79,1.79v8.16l-.61.12c-5.31,1.06-12.85,1.67-20.68,1.67C7,11.74.92,6.66.67,6.45l-.67-.58.67-.58c.25-.22,6.33-5.3,21.83-5.3,7.83,0,15.37.61,20.68,1.67l.61.12h0Z"/><path class="cls-2" d="m22.5.76C7.1.76,1.16,5.87,1.16,5.87c0,0,5.94,5.11,21.33,5.11,8.13,0,15.44-.64,20.53-1.65V2.41c-5.09-1.02-12.41-1.66-20.53-1.66Z"/><path class="cls-1" d="m34.73,2.04c-3.77-.34-7.95-.52-12.23-.52C10.75,1.52,4.58,4.57,2.49,5.87c2.09,1.3,8.25,4.35,20.01,4.35,4.28,0,8.46-.18,12.23-.52-.36-1.11-.57-2.42-.57-3.83s.21-2.72.57-3.83Z"/><path class="cls-2" d="m36.41,2.21c-.55-.06-1.11-.11-1.68-.16-.36,1.11-.57,2.42-.57,3.83s.21,2.72.57,3.83c.57-.05,1.13-.11,1.68-.16-.33-1.07-.52-2.33-.52-3.66s.19-2.59.52-3.66Z"/><path class="cls-2" d="m42.27,8.7V3.04c-.32-.06-.64-.12-.98-.17-1.5-.25-3.14-.47-4.89-.66-.33,1.07-.52,2.32-.52,3.66s.19,2.59.52,3.66c1.75-.19,3.39-.41,4.89-.66.33-.06.66-.11.98-.17Z"/><path class="cls-1" d="m41.51,3.68v4.39c-.11.02-.23.04-.34.06-1.28.22-2.69.41-4.2.58-.21-.89-.32-1.86-.32-2.84s.11-1.95.32-2.84c1.5.17,2.91.37,4.2.58.12.02.23.04.34.06h0Z"/><path class="cls-2" d="m34.34,5.87s-3.2-3.72-7.23-3.72-4.51,6.9-13.05,6.9c-5.78,0-11.56-3.18-11.56-3.18h31.85Z"/><path class="cls-2" d="m22,4.87c.56,0,1.01.45,1.01,1.01s-.45,1.01-1.01,1.01-1.01-.45-1.01-1.01.45-1.01,1.01-1.01Z"/><path class="cls-2" d="m37.73,5.57c.17,0,.31.14.31.31h0c0,.17-.14.31-.31.31h-2.35c-.17,0-.31-.14-.31-.31h0c0-.17.14-.31.31-.31h2.35Z"/><path class="cls-2" d="m37.73,3.87c0-.17.14-.31.31-.31h0c.17,0,.31.14.31.31v4.01c0,.17-.14.31-.31.31h0c-.17,0-.31-.14-.31-.31V3.87Z"/></g></g></svg>