<?xml version="1.0" encoding="UTF-8"?><svg xmlns="http://www.w3.org/2000/svg" xmlns:xlink="http://www.w3.org/1999/xlink" viewBox="0 0 147.15 46.65"><defs><style>.cls-1{fill:url(#linear-gradient);}.cls-1,.cls-2,.cls-3,.cls-4,.cls-5,.cls-6,.cls-7{stroke-width:0px;}.cls-2{fill:none;}.cls-3{fill:#fff;}.cls-4{fill:url(#linear-gradient-2);}.cls-5{fill:url(#linear-gradient-3);}.cls-6{fill:#231f20;}.cls-7{fill:url(#linear-gradient-4);}</style><linearGradient id="linear-gradient" x1="45.55" y1="20.31" x2="83.89" y2="20.31" gradientTransform="translate(0 49.9) scale(1 -1)" gradientUnits="userSpaceOnUse"><stop offset=".41" stop-color="#fff"/><stop offset=".48" stop-color="#fff" stop-opacity=".79"/><stop offset=".55" stop-color="#fff" stop-opacity=".58"/><stop offset=".63" stop-color="#fff" stop-opacity=".4"/><stop offset=".7" stop-color="#fff" stop-opacity=".26"/><stop offset=".78" stop-color="#fff" stop-opacity=".14"/><stop offset=".85" stop-color="#fff" stop-opacity=".06"/><stop offset=".93" stop-color="#fff" stop-opacity=".02"/><stop offset="1" stop-color="#fff" stop-opacity="0"/></linearGradient><linearGradient id="linear-gradient-2" y1="31.61" y2="31.61" xlink:href="#linear-gradient"/><linearGradient id="linear-gradient-3" x1="32.49" y1="15.38" x2="96.4" y2="15.38" xlink:href="#linear-gradient"/><linearGradient id="linear-gradient-4" x1="32.49" y1="36.58" x2="96.4" y2="36.58" xlink:href="#linear-gradient"/></defs><g id="transparent_box_that_keeps_the_svg_output_always_the_same"><rect class="cls-2" width="147.15" height="46.65"/></g><g id="NEW_ONES_FOR_REVIEW"><g id="search_and_rescue_boat_fast"><g id="V2"><g id="Fast_Speed"><path class="cls-1" d="m83.89,29.84c-1.59-.2-5.08,1.76-6.67,1.56s-4.47-2.98-6.07-3.18-5.08,1.76-6.67,1.56-4.47-2.98-6.07-3.18-5.08,1.76-6.67,1.56-6.19-2.26-6.19-2.26c0,0,4.36,3.9,5.95,4.11s5.08-1.76,6.67-1.56,4.47,2.98,6.07,3.18,5.08-1.76,6.67-1.56,4.48,3.45,6.07,3.18c1.9-.32,6.91-3.4,6.91-3.4h0Z"/><path class="cls-4" d="m83.89,18.03c-1.59.2-5.08-1.76-6.67-1.56s-4.47,2.98-6.07,3.18-5.08-1.76-6.67-1.56-4.47,2.98-6.07,3.18-5.08-1.76-6.67-1.56-6.19,2.26-6.19,2.26c0,0,4.36-3.9,5.95-4.11s5.08,1.76,6.67,1.56,4.47-2.98,6.07-3.18,5.08,1.76,6.67,1.56,4.48-3.45,6.07-3.18c1.9.32,6.91,3.4,6.91,3.4h0Z"/><path class="cls-5" d="m89.7,38.85c-1.6-.15-4.57-2.82-6.17-2.97s-5.02,1.93-6.61,1.78-4.57-2.82-6.17-2.97-5.02,1.93-6.61,1.78-4.57-2.82-6.17-2.97-5.02,1.93-6.61,1.78-4.57-2.82-6.17-2.97-5.02,1.93-6.61,1.78-6.09-3.9-6.09-3.9c0,0,4.66,1.9,6.26,2.04s5.02-1.93,6.61-1.78,4.57,2.82,6.17,2.97,5.02-1.93,6.61-1.78,4.57,2.82,6.17,2.97,5.02-1.93,6.61-1.78,4.57,2.82,6.17,2.97,5.02-1.93,6.61-1.78,4.57,2.82,6.17,2.97,6.53-.86,6.53-.86c0,0-5.1,2.86-6.7,2.71h0Z"/><path class="cls-7" d="m89.7,8.99c-1.6.15-4.57,2.82-6.17,2.97s-5.02-1.93-6.61-1.78-4.57,2.82-6.17,2.97-5.02-1.93-6.61-1.78-4.57,2.82-6.17,2.97-5.02-1.93-6.61-1.78-4.57,2.82-6.17,2.97-5.02-1.93-6.61-1.78-6.09,3.9-6.09,3.9c0,0,4.66-1.9,6.26-2.04s5.02,1.93,6.61,1.78,4.57-2.82,6.17-2.97,5.02,1.93,6.61,1.78,4.57-2.82,6.17-2.97,5.02,1.93,6.61,1.78,4.57-2.82,6.17-2.97,5.02,1.93,6.61,1.78,4.57-2.82,6.17-2.97,6.53.86,6.53.86c0,0-5.1-2.86-6.7-2.71h0Z"/></g><g id="Rescue_Boat"><path class="cls-3" d="m30.88,29.03h-9.54c-8.2,0-11.34-5-11.34-5,0,0,3.14-5.22,11.34-5.22h9.54s7.89,0,13.91,1.77v6.91c-6.02,1.54-13.91,1.54-13.91,1.54Z"/><path class="cls-6" d="m44.03,26.9v-5.74c-5.78-1.56-13.08-1.58-13.16-1.58h-9.54c-6.4,0-9.5,3.28-10.41,4.45.91,1.13,4.01,4.25,10.41,4.25h9.54c.08,0,7.37-.02,13.16-1.38h0Z"/><path class="cls-3" d="m42.73,25.85v-3.69c-1.81-.43-3.72-.71-5.47-.9v-.65c1.95.21,4.11.54,6.12,1.05v4.72c-2.01.44-4.17.73-6.12.91v-.65c1.75-.17,3.66-.42,5.47-.78Z"/><path class="cls-3" d="m21.34,20.87c-4.67,0-7.4,1.94-8.64,3.13,1.25,1.14,3.98,2.98,8.64,2.98h3.88v.65h-3.88c-5.48,0-8.42-2.41-9.55-3.61,1.12-1.26,4.07-3.79,9.55-3.79h3.88v.65h-3.88Z"/><path class="cls-3" d="m30.34,20.6h-6.19v-.71h6.19s3.15,0,7,.43v.71c-3.83-.42-6.95-.43-7-.43Z"/><path class="cls-3" d="m24.14,28v-.71h6.19s3.16,0,7-.37v.71c-3.84.36-6.95.37-7,.37h-6.19Z"/><path class="cls-3" d="m30.34,20.6s3.16,0,7,.43v5.89c-3.84.37-6.95.37-7,.37h-6.19v-6.69h6.19Z"/><rect class="cls-3" x="23.4" y="19.89" width=".74" height="8.11"/><path class="cls-3" d="m37.33,27.63v-7.31l.74.08v7.16l-.74.07Z"/><polygon class="cls-6" points="32.9 22.91 31.34 22.91 31.34 21.35 29.48 21.35 29.48 22.91 27.92 22.91 27.92 24.77 29.48 24.77 29.48 26.33 31.34 26.33 31.34 24.77 32.9 24.77 32.9 22.91"/><polygon class="cls-3" points="19.89 25.2 23.4 28 23.4 19.89 19.89 22.7 19.89 25.2"/><polygon class="cls-6" points="20.4 24.65 23.4 24.92 23.4 22.98 20.4 23.25 20.4 24.65"/><polygon class="cls-6" points="20.4 24.92 23.4 25.44 23.4 27.29 20.4 24.92"/><polygon class="cls-6" points="20.4 22.98 23.4 22.46 23.4 20.6 20.4 22.98"/></g></g></g></g></svg>