<?xml version="1.0" encoding="UTF-8"?><svg xmlns="http://www.w3.org/2000/svg" xmlns:xlink="http://www.w3.org/1999/xlink" viewBox="0 0 147.15 46.65"><defs><style>.cls-1{fill:url(#linear-gradient);}.cls-1,.cls-2,.cls-3,.cls-4,.cls-5,.cls-6,.cls-7{stroke-width:0px;}.cls-2{fill:none;}.cls-3{fill:#fff;}.cls-4{fill:url(#linear-gradient-2);}.cls-5{fill:url(#linear-gradient-3);}.cls-6{fill:#231f20;}.cls-7{fill:url(#linear-gradient-4);}</style><linearGradient id="linear-gradient" x1="66.95" y1="11.08" x2="114.58" y2="11.08" gradientTransform="translate(0 49.9) scale(1 -1)" gradientUnits="userSpaceOnUse"><stop offset=".26" stop-color="#fff"/><stop offset=".38" stop-color="#fff" stop-opacity=".74"/><stop offset=".51" stop-color="#fff" stop-opacity=".51"/><stop offset=".62" stop-color="#fff" stop-opacity=".33"/><stop offset=".73" stop-color="#fff" stop-opacity=".19"/><stop offset=".84" stop-color="#fff" stop-opacity=".08"/><stop offset=".93" stop-color="#fff" stop-opacity=".02"/><stop offset="1" stop-color="#fff" stop-opacity="0"/></linearGradient><linearGradient id="linear-gradient-2" x1="66.01" y1="41.27" x2="113.64" y2="41.27" xlink:href="#linear-gradient"/><linearGradient id="linear-gradient-3" x1="81.27" y1="21.72" x2="104.49" y2="21.72" xlink:href="#linear-gradient"/><linearGradient id="linear-gradient-4" x1="81.27" y1="31" x2="104.49" y2="31" xlink:href="#linear-gradient"/></defs><g id="transparent_box_that_keeps_the_svg_output_always_the_same"><rect class="cls-2" width="147.15" height="46.65"/></g><g id="NEW_ONES_FOR_REVIEW"><g id="tanker_ship_medium"><g id="V2"><g id="Mid_Speed"><path class="cls-1" d="m114.58,39.15c-1.98-.25-6.31,2.18-8.29,1.93s-5.56-3.7-7.54-3.95-6.31,2.18-8.29,1.93-5.56-3.7-7.54-3.95-6.31,2.18-8.29,1.93-7.68-2.8-7.68-2.8c0,0,5.41,4.85,7.39,5.1s6.31-2.18,8.29-1.93,5.56,3.7,7.54,3.95,6.31-2.18,8.29-1.93,5.57,4.28,7.54,3.95c2.36-.39,8.58-4.23,8.58-4.23Z"/><path class="cls-4" d="m113.64,8.3c-1.98.25-6.31-2.18-8.29-1.93s-5.56,3.7-7.54,3.95-6.31-2.18-8.29-1.93-5.56,3.7-7.54,3.95-6.31-2.18-8.29-1.93-7.68,2.8-7.68,2.8c0,0,5.41-4.85,7.39-5.1s6.31,2.18,8.29,1.93,5.56-3.7,7.54-3.95,6.31,2.18,8.29,1.93,5.58-4.28,7.54-3.95c2.36.39,8.58,4.23,8.58,4.23Z"/><path class="cls-5" d="m104.49,30.26c-1.44-.18-5.56-1.21-7.54-1.47s-6.31,2.18-8.29,1.93-7.39-5.1-7.39-5.1c0,0,5.71,2.55,7.68,2.8s6.38-2.53,8.29-1.93,7.24,3.76,7.24,3.76h.01Z"/><path class="cls-7" d="m104.49,16.82c-1.44.18-5.56,1.21-7.54,1.47s-6.31-2.18-8.29-1.93-7.39,5.1-7.39,5.1c0,0,5.71-2.55,7.68-2.8s6.38,2.53,8.29,1.93,7.24-3.76,7.24-3.76h.01Z"/></g><g id="TankerShip"><path class="cls-3" d="m55.1,14.51H21.53C6.69,14.51,1,23.56,1,23.56c0,0,5.69,9.46,20.53,9.46h33.57s14.29,0,25.2-3.2v-12.52c-10.91-2.8-25.2-2.8-25.2-2.8Z"/><path class="cls-6" d="m78.93,18.38v10.4c-10.46,2.83-23.69,2.87-23.82,2.87H21.53c-11.6,0-17.21-5.94-18.84-8.07,1.65-2.05,7.27-7.7,18.84-7.7h33.57c.14,0,13.35.03,23.82,2.5h0Z"/><path class="cls-3" d="m58.5,34.57h6.28l1.38-4.78c3.61-.37,7.64-.95,11.39-1.89v-8.24c-3.75-.81-7.79-1.34-11.39-1.67l-1.38-5.04h-6.28v21.61Zm4.91-20.24l1.38,4.92c.45.04.91.08,1.37.12,3.18.3,6.69.74,10.02,1.41v6.03c-3.32.76-6.83,1.26-10.02,1.59-.47.05-.92.09-1.37.13l-1.38,4.66h-2.8V14.33h2.8Z"/><path class="cls-6" d="m60.6,33.2h2.8l1.38-4.66c.45-.04.91-.09,1.37-.13,3.19-.33,6.7-.83,10.02-1.59v-6.03c-3.33-.66-6.84-1.11-10.02-1.41-.47-.04-.92-.08-1.37-.12l-1.38-4.92h-2.8v18.87Z"/><rect class="cls-3" x="68.62" y="21.82" width="7.56" height="3.88"/><path class="cls-3" d="m33.65,17.26c3.59,0,6.51,2.91,6.51,6.51s-2.91,6.51-6.51,6.51-6.51-2.91-6.51-6.51,2.91-6.51,6.51-6.51Z"/><path class="cls-3" d="m49.32,17.26c3.59,0,6.51,2.91,6.51,6.51s-2.91,6.51-6.51,6.51-6.51-2.91-6.51-6.51,2.91-6.51,6.51-6.51Z"/><path class="cls-3" d="m17.98,17.26c3.59,0,6.51,2.91,6.51,6.51s-2.91,6.51-6.51,6.51-6.51-2.91-6.51-6.51,2.91-6.51,6.51-6.51Z"/><path class="cls-3" d="m51.36,23.76c0,1.12-.91,2.03-2.03,2.03h-31.34c-1.12,0-2.03-.91-2.03-2.03s.91-2.03,2.03-2.03h31.34c1.12,0,2.03.91,2.03,2.03h0Z"/><path class="cls-6" d="m17.98,22.9s0,0,0,0c-.47,0-.86.38-.86.86s.38.86.86.86h31.34s0,0,0,0c.47,0,.86-.38.86-.86s-.38-.86-.86-.86h0s-31.34,0-31.34,0Z"/></g></g></g></g></svg>