<?xml version="1.0" encoding="UTF-8"?><svg xmlns="http://www.w3.org/2000/svg" viewBox="0 0 500 230"><defs><style>.cls-1{fill:none;}.cls-1,.cls-2,.cls-3{stroke-width:0px;}.cls-2,.cls-4{fill:#fff;}.cls-3{fill:#231f20;}.cls-4{stroke:#fff;stroke-miterlimit:10;stroke-width:8px;}</style></defs><g id="Back"><rect class="cls-1" y="0" width="500" height="230"/></g><g id="Ships"><g id="tug_side"><path class="cls-4" d="m380.01,183.35c0-4.34-3.52-7.86-7.86-7.86-.1,0-.2.01-.3.02-.32-.52-.63-1-.91-1.41-.95-1.37-1.63-2.13-1.63-2.13h-43.31v-30.9h5.29c0-3.28-2.66-5.94-5.94-5.94h-99.21v-28.49h6.22c0-3.28-2.66-5.94-5.94-5.94h-52.71c-3.28,0-5.94,2.66-5.94,5.94h6.22v28.49h-.29c-3.28,0-5.94,2.66-5.94,5.94h6.22v14.33h.19v3.97l-30.06-.77c-4.09-.1-7.12,3.76-6.04,7.7,0,.02.01.04.01.05,0,0,0,0,0,0,.06.2.11.42.17.62.06.21.11.41.17.62.06.22.13.45.19.68.06.23.12.45.19.68.05.19.11.39.17.59.08.27.15.54.23.81.05.19.11.39.17.59.08.29.17.58.25.88.05.18.11.37.16.55.09.32.18.63.28.95.07.25.15.5.22.76.08.26.15.52.23.78.09.31.19.62.28.93.04.14.08.28.13.42-2.69,1.25-4.56,3.97-4.56,7.13,0,4.34,3.52,7.86,7.86,7.86.58,0,1.14-.07,1.68-.18,0,.01,0,.02.01.04.11.28.22.56.32.84.09.24.18.48.27.71.11.28.22.55.33.82.09.23.18.47.28.69.1.26.21.5.31.76.1.24.2.48.3.71.1.24.2.47.31.71.1.24.2.48.31.71.12.27.24.52.36.79.09.19.17.38.26.57.12.25.24.5.36.74.09.18.18.37.26.55.11.22.22.43.33.64.1.19.2.39.29.58.11.21.22.41.33.61.1.18.19.36.29.53.11.19.22.37.32.55.1.17.2.35.3.51.11.18.22.34.33.51.1.15.19.31.29.45.13.19.25.36.38.54.08.11.16.23.24.33.11.15.22.28.33.41.09.12.19.24.28.35.1.11.19.21.29.31.11.12.21.24.32.35.12.12.24.22.36.32.08.07.16.15.24.21.12.09.23.16.35.24.08.06.17.12.25.17.11.07.22.11.34.16.08.04.17.09.25.12.03.01.07.02.1.04.09.03.18.07.27.1.05.02.1.04.15.05.08.03.16.06.24.09.05.02.1.04.16.06.08.03.15.06.23.08.06.02.13.05.19.07.07.02.13.05.2.07.07.02.14.05.21.07.07.02.14.05.21.07.07.02.14.05.21.07.08.03.16.05.23.08.1.03.2.07.31.1.1.03.21.07.31.1.08.03.16.05.25.08.07.02.14.04.21.07.09.03.17.05.26.08.07.02.15.04.22.06.09.03.18.05.26.08.08.02.15.04.23.07.09.03.19.05.29.08.07.02.15.04.22.06.1.03.2.05.3.08.07.02.15.04.23.06.4.1.82.21,1.25.31.06.01.12.03.18.04.13.03.27.06.4.09.07.02.14.03.21.05.13.03.27.06.41.09.08.02.16.03.24.05.14.03.28.06.42.09.08.02.15.03.23.05.15.03.31.06.46.09.06.01.13.02.19.04.79.15,1.64.31,2.55.46.07.01.13.02.19.03.2.03.4.06.6.1.08.01.16.02.23.04.2.03.41.06.62.09.08.01.16.02.24.04.22.03.44.06.66.1.05,0,.11.02.17.02,1.08.15,2.24.3,3.48.45.05,0,.1.01.15.02.27.03.55.06.84.1.08,0,.16.02.24.03.28.03.56.06.84.09.09,0,.17.02.26.03.3.03.6.06.9.09.06,0,.12.01.18.02,1.79.18,3.73.35,5.84.52.07,0,.13.01.19.02.38.03.77.06,1.16.09.08,0,.17.01.25.02.4.03.8.06,1.2.09.07,0,.14,0,.21.01.43.03.86.06,1.3.09h0c1.91.13,3.94.25,6.1.36.07,0,.14,0,.21.01.48.03.97.05,1.47.07.1,0,.19,0,.29.01.49.02.99.05,1.5.07.1,0,.19,0,.29.01.53.02,1.06.05,1.6.07.02,0,.04,0,.06,0,2.39.1,4.92.2,7.59.29.05,0,.09,0,.14,0,.6.02,1.22.04,1.83.06.12,0,.24,0,.36.01.59.02,1.2.04,1.8.05.15,0,.29,0,.44.01.62.02,1.24.03,1.87.05.09,0,.19,0,.28,0,2.89.07,5.94.14,9.15.2.03,0,.06,0,.09,0,.72.01,1.46.02,2.2.04.16,0,.33,0,.49,0,.7.01,1.4.02,2.11.03.2,0,.4,0,.61,0,.73.01,1.46.02,2.2.03.14,0,.28,0,.42,0,.8,0,1.61.02,2.43.03h.04s0,0,0,0c.03,0,.05,0,.08,0,3.39.04,6.94.06,10.65.08l2.83.03-.02-.02h0c1.34,0,2.7,0,4.09,0,.22,0,.44,0,.66,0,1.18,0,2.38,0,3.6,0,.31,0,.62,0,.93,0,1.12,0,2.25,0,3.4,0,.39,0,.78,0,1.17,0,1.48,0,2.97,0,4.49-.01,87.05-.35,102.56,0,102.56,0,0,0,.55-.79,1.38-2.15.62-1.02,1.39-2.36,2.21-3.92.27-.52.55-1.07.82-1.63,2.2-4.54,4.41-10.45,4.41-15.91,0-.22-.02-.43-.03-.65,2.21-1.39,3.68-3.84,3.68-6.65Z"/><rect class="cls-2" x="174.2" y="141.06" width="151.8" height="34.42"/><path class="cls-3" d="m144.13,158.6c-4.09-.1-7.12,3.76-6.04,7.7,3.64,13.3,11.4,38.91,17.64,41.25,8.46,3.17,22.2,7.05,109.26,6.7s102.56,0,102.56,0c0,0,8.81-12.7,8.81-23.62s-7.05-18.68-7.05-18.68h-94.7c-2.55,0-5-1.01-6.8-2.82l-4.86-4.86c-1.74-1.74-4.09-2.75-6.56-2.82l-112.25-2.86Z"/><circle class="cls-3" cx="288.54" cy="155.4" r="4.75"/><circle class="cls-3" cx="273.61" cy="155.4" r="4.75"/><circle class="cls-3" cx="303.47" cy="155.4" r="4.75"/><circle class="cls-3" cx="318.4" cy="155.4" r="4.75"/><rect class="cls-2" x="174" y="106.63" width="52.14" height="48.76"/><path class="cls-3" d="m173.72,100.7h52.71c3.28,0,5.94,2.66,5.94,5.94h-64.58c0-3.28,2.66-5.94,5.94-5.94Z"/><path class="cls-3" d="m173.72,135.13h151.63c3.28,0,5.94,2.66,5.94,5.94h-163.5c0-3.28,2.66-5.94,5.94-5.94Z"/><rect class="cls-3" x="174" y="110.02" width="10.54" height="19.63"/><rect class="cls-3" x="188.87" y="110.02" width="10.54" height="19.63"/><rect class="cls-3" x="203.75" y="110.02" width="10.54" height="19.63"/><circle class="cls-3" cx="144.25" cy="183.35" r="7.86"/><path class="cls-2" d="m144.25,175.49c4.34,0,7.86,3.52,7.86,7.86s-3.52,7.86-7.86,7.86-7.86-3.52-7.86-7.86,3.52-7.86,7.86-7.86m0-3c-5.99,0-10.86,4.87-10.86,10.86s4.87,10.86,10.86,10.86,10.86-4.87,10.86-10.86-4.87-10.86-10.86-10.86h0Z"/><circle class="cls-2" cx="144.25" cy="183.35" r="3.01"/><circle class="cls-3" cx="164.97" cy="183.35" r="7.86"/><path class="cls-2" d="m164.97,175.49c4.34,0,7.86,3.52,7.86,7.86s-3.52,7.86-7.86,7.86-7.86-3.52-7.86-7.86,3.52-7.86,7.86-7.86m0-3c-5.99,0-10.86,4.87-10.86,10.86s4.87,10.86,10.86,10.86,10.86-4.87,10.86-10.86-4.87-10.86-10.86-10.86h0Z"/><circle class="cls-2" cx="164.97" cy="183.35" r="3.01"/><circle class="cls-3" cx="185.69" cy="183.35" r="7.86"/><path class="cls-2" d="m185.69,175.49c4.34,0,7.86,3.52,7.86,7.86s-3.52,7.86-7.86,7.86-7.86-3.52-7.86-7.86,3.52-7.86,7.86-7.86m0-3c-5.99,0-10.86,4.87-10.86,10.86s4.87,10.86,10.86,10.86,10.86-4.87,10.86-10.86-4.87-10.86-10.86-10.86h0Z"/><circle class="cls-2" cx="185.69" cy="183.35" r="3.01"/><circle class="cls-3" cx="206.4" cy="183.35" r="7.86"/><path class="cls-2" d="m206.4,175.49c4.34,0,7.86,3.52,7.86,7.86s-3.52,7.86-7.86,7.86-7.86-3.52-7.86-7.86,3.52-7.86,7.86-7.86m0-3c-5.99,0-10.86,4.87-10.86,10.86s4.87,10.86,10.86,10.86,10.86-4.87,10.86-10.86-4.87-10.86-10.86-10.86h0Z"/><circle class="cls-2" cx="206.4" cy="183.35" r="3.01"/><circle class="cls-3" cx="227.12" cy="183.35" r="7.86"/><path class="cls-2" d="m227.12,175.49c4.34,0,7.86,3.52,7.86,7.86s-3.52,7.86-7.86,7.86-7.86-3.52-7.86-7.86,3.52-7.86,7.86-7.86m0-3c-5.99,0-10.86,4.87-10.86,10.86s4.87,10.86,10.86,10.86,10.86-4.87,10.86-10.86-4.87-10.86-10.86-10.86h0Z"/><circle class="cls-2" cx="227.12" cy="183.35" r="3.01"/><circle class="cls-3" cx="247.84" cy="183.35" r="7.86"/><path class="cls-2" d="m247.84,175.49c4.34,0,7.86,3.52,7.86,7.86s-3.52,7.86-7.86,7.86-7.86-3.52-7.86-7.86,3.52-7.86,7.86-7.86m0-3c-5.99,0-10.86,4.87-10.86,10.86s4.87,10.86,10.86,10.86,10.86-4.87,10.86-10.86-4.87-10.86-10.86-10.86h0Z"/><circle class="cls-2" cx="247.84" cy="183.35" r="3.01"/><circle class="cls-3" cx="268.56" cy="183.35" r="7.86"/><path class="cls-2" d="m268.56,175.49c4.34,0,7.86,3.52,7.86,7.86s-3.52,7.86-7.86,7.86-7.86-3.52-7.86-7.86,3.52-7.86,7.86-7.86m0-3c-5.99,0-10.86,4.87-10.86,10.86s4.87,10.86,10.86,10.86,10.86-4.87,10.86-10.86-4.87-10.86-10.86-10.86h0Z"/><circle class="cls-2" cx="268.56" cy="183.35" r="3.01"/><circle class="cls-3" cx="289.28" cy="183.35" r="7.86"/><path class="cls-2" d="m289.28,175.49c4.34,0,7.86,3.52,7.86,7.86s-3.52,7.86-7.86,7.86-7.86-3.52-7.86-7.86,3.52-7.86,7.86-7.86m0-3c-5.99,0-10.86,4.87-10.86,10.86s4.87,10.86,10.86,10.86,10.86-4.87,10.86-10.86-4.87-10.86-10.86-10.86h0Z"/><circle class="cls-2" cx="289.28" cy="183.35" r="3.01"/><circle class="cls-3" cx="309.99" cy="183.35" r="7.86"/><path class="cls-2" d="m309.99,175.49c4.34,0,7.86,3.52,7.86,7.86s-3.52,7.86-7.86,7.86-7.86-3.52-7.86-7.86,3.52-7.86,7.86-7.86m0-3c-5.99,0-10.86,4.87-10.86,10.86s4.87,10.86,10.86,10.86,10.86-4.87,10.86-10.86-4.87-10.86-10.86-10.86h0Z"/><circle class="cls-2" cx="309.99" cy="183.35" r="3.01"/><circle class="cls-3" cx="330.71" cy="183.35" r="7.86"/><path class="cls-2" d="m330.71,175.49c4.34,0,7.86,3.52,7.86,7.86s-3.52,7.86-7.86,7.86-7.86-3.52-7.86-7.86,3.52-7.86,7.86-7.86m0-3c-5.99,0-10.86,4.87-10.86,10.86s4.87,10.86,10.86,10.86,10.86-4.87,10.86-10.86-4.87-10.86-10.86-10.86h0Z"/><circle class="cls-2" cx="330.71" cy="183.35" r="3.01"/><circle class="cls-3" cx="351.43" cy="183.35" r="7.86"/><path class="cls-2" d="m351.43,175.49c4.34,0,7.86,3.52,7.86,7.86s-3.52,7.86-7.86,7.86-7.86-3.52-7.86-7.86,3.52-7.86,7.86-7.86m0-3c-5.99,0-10.86,4.87-10.86,10.86s4.87,10.86,10.86,10.86,10.86-4.87,10.86-10.86-4.87-10.86-10.86-10.86h0Z"/><circle class="cls-2" cx="351.43" cy="183.35" r="3.01"/><circle class="cls-3" cx="372.15" cy="183.35" r="7.86"/><path class="cls-2" d="m372.15,175.49c4.34,0,7.86,3.52,7.86,7.86s-3.52,7.86-7.86,7.86-7.86-3.52-7.86-7.86,3.52-7.86,7.86-7.86m0-3c-5.99,0-10.86,4.87-10.86,10.86s4.87,10.86,10.86,10.86,10.86-4.87,10.86-10.86-4.87-10.86-10.86-10.86h0Z"/><circle class="cls-2" cx="372.15" cy="183.35" r="3.01"/></g></g></svg>