<?xml version="1.0" encoding="UTF-8"?><svg xmlns="http://www.w3.org/2000/svg" xmlns:xlink="http://www.w3.org/1999/xlink" viewBox="0 0 147.15 46.65"><defs><style>.cls-1{fill:url(#linear-gradient);}.cls-1,.cls-2,.cls-3,.cls-4,.cls-5,.cls-6,.cls-7{stroke-width:0px;}.cls-2{fill:none;}.cls-3{fill:#fff;}.cls-4{fill:url(#linear-gradient-2);}.cls-5{fill:url(#linear-gradient-3);}.cls-6{fill:#231f20;}.cls-7{fill:url(#linear-gradient-4);}</style><linearGradient id="linear-gradient" x1="44.55" y1="20.31" x2="82.89" y2="20.31" gradientTransform="translate(0 49.9) scale(1 -1)" gradientUnits="userSpaceOnUse"><stop offset=".41" stop-color="#fff"/><stop offset=".48" stop-color="#fff" stop-opacity=".79"/><stop offset=".55" stop-color="#fff" stop-opacity=".58"/><stop offset=".63" stop-color="#fff" stop-opacity=".4"/><stop offset=".7" stop-color="#fff" stop-opacity=".26"/><stop offset=".78" stop-color="#fff" stop-opacity=".14"/><stop offset=".85" stop-color="#fff" stop-opacity=".06"/><stop offset=".93" stop-color="#fff" stop-opacity=".02"/><stop offset="1" stop-color="#fff" stop-opacity="0"/></linearGradient><linearGradient id="linear-gradient-2" y1="31.61" y2="31.61" xlink:href="#linear-gradient"/><linearGradient id="linear-gradient-3" x1="31.49" y1="15.38" x2="95.4" y2="15.38" xlink:href="#linear-gradient"/><linearGradient id="linear-gradient-4" x1="31.49" y1="36.58" x2="95.4" y2="36.58" xlink:href="#linear-gradient"/></defs><g id="transparent_box_that_keeps_the_svg_output_always_the_same"><rect class="cls-2" width="147.15" height="46.65"/></g><g id="NEW_ONES_FOR_REVIEW"><g id="tug_fast"><g id="V2"><g id="Fast_Speed"><path class="cls-1" d="m82.89,29.84c-1.59-.2-5.08,1.76-6.67,1.56s-4.47-2.98-6.07-3.18-5.08,1.76-6.67,1.56-4.47-2.98-6.07-3.18-5.08,1.76-6.67,1.56-6.19-2.26-6.19-2.26c0,0,4.36,3.9,5.95,4.11s5.08-1.76,6.67-1.56,4.47,2.98,6.07,3.18,5.08-1.76,6.67-1.56,4.48,3.45,6.07,3.18c1.9-.32,6.91-3.4,6.91-3.4h0Z"/><path class="cls-4" d="m82.89,18.03c-1.59.2-5.08-1.76-6.67-1.56s-4.47,2.98-6.07,3.18-5.08-1.76-6.67-1.56-4.47,2.98-6.07,3.18-5.08-1.76-6.67-1.56-6.19,2.26-6.19,2.26c0,0,4.36-3.9,5.95-4.11s5.08,1.76,6.67,1.56,4.47-2.98,6.07-3.18,5.08,1.76,6.67,1.56,4.48-3.45,6.07-3.18c1.9.32,6.91,3.4,6.91,3.4h0Z"/><path class="cls-5" d="m88.7,38.85c-1.6-.15-4.57-2.82-6.17-2.97s-5.02,1.93-6.61,1.78-4.57-2.82-6.17-2.97-5.02,1.93-6.61,1.78-4.57-2.82-6.17-2.97-5.02,1.93-6.61,1.78-4.57-2.82-6.17-2.97-5.02,1.93-6.61,1.78-6.09-3.9-6.09-3.9c0,0,4.66,1.9,6.26,2.04s5.02-1.93,6.61-1.78,4.57,2.82,6.17,2.97,5.02-1.93,6.61-1.78,4.57,2.82,6.17,2.97,5.02-1.93,6.61-1.78,4.57,2.82,6.17,2.97,5.02-1.93,6.61-1.78,4.57,2.82,6.17,2.97,6.53-.86,6.53-.86c0,0-5.1,2.86-6.7,2.71h0Z"/><path class="cls-7" d="m88.7,8.99c-1.6.15-4.57,2.82-6.17,2.97s-5.02-1.93-6.61-1.78-4.57,2.82-6.17,2.97-5.02-1.93-6.61-1.78-4.57,2.82-6.17,2.97-5.02-1.93-6.61-1.78-4.57,2.82-6.17,2.97-5.02-1.93-6.61-1.78-6.09,3.9-6.09,3.9c0,0,4.66-1.9,6.26-2.04s5.02,1.93,6.61,1.78,4.57-2.82,6.17-2.97,5.02,1.93,6.61,1.78,4.57-2.82,6.17-2.97,5.02,1.93,6.61,1.78,4.57-2.82,6.17-2.97,5.02,1.93,6.61,1.78,4.57-2.82,6.17-2.97,6.53.86,6.53.86c0,0-5.1-2.86-6.7-2.71h0Z"/></g><g id="Tug_Boat"><path class="cls-3" d="m28.29,17.12c-18.19,0-18.69,3.1-18.69,6.8s.52,6.8,18.69,6.8c9.6,0,9.84-.04,16.67-1.57v-10.46c-6.83-1.54-7.16-1.58-16.67-1.58Z"/><path class="cls-6" d="m28.22,18.3c-16.94,0-17.41,2.56-17.41,5.63s.48,5.63,17.41,5.63c8.94,0,9.17-.03,15.53-1.3v-8.65c-6.36-1.27-6.67-1.31-15.53-1.31Z"/><path class="cls-3" d="m28.18,18.92c-16.26,0-16.71,2.28-16.71,5.01s.46,5.01,16.71,5.01c8.59,0,8.8-.03,14.91-1.15v-7.7c-6.11-1.13-6.41-1.16-14.91-1.16Z"/><rect class="cls-6" x="17.47" y="20.57" width="13" height="6.7"/><polygon class="cls-6" points="26.02 27.05 26.02 20.8 27.24 19.57 31.07 19.57 32.3 20.8 32.3 27.05 31.07 28.27 27.24 28.27 26.02 27.05"/><polygon class="cls-3" points="26.83 26.47 26.83 21.38 27.91 20.31 30.41 20.31 31.48 21.38 31.48 26.47 30.41 27.55 27.91 27.55 26.83 26.47"/><rect class="cls-3" x="18.3" y="21.45" width="11.34" height="4.96"/><path class="cls-6" d="m27.79,26.76v-5.66c-.32-.06-.64-.12-.98-.17-1.5-.25-3.14-.47-4.89-.66-.33,1.07-.52,2.32-.52,3.66s.19,2.59.52,3.66c1.75-.19,3.39-.41,4.89-.66.33-.06.66-.11.98-.17Z"/><g id="Tires"><rect class="cls-6" x="11.16" y="19.6" width="2.39" height=".94" rx=".47" ry=".47" transform="translate(-8.66 9.41) rotate(-31.49)"/><rect class="cls-6" x="13.93" y="18.56" width="2.39" height=".94" rx=".47" ry=".47" transform="translate(-5.28 5.82) rotate(-18.61)"/><rect class="cls-6" x="17" y="17.98" width="2.39" height=".94" rx=".47" ry=".47" transform="translate(-2.3 2.59) rotate(-7.67)"/><rect class="cls-6" x="20.07" y="17.73" width="2.39" height=".94" rx=".47" ry=".47" transform="translate(-1.4 1.78) rotate(-4.64)"/><rect class="cls-6" x="23.15" y="17.6" width="2.39" height=".94" rx=".47" ry=".47"/><rect class="cls-6" x="26.17" y="17.51" width="2.39" height=".94" rx=".47" ry=".47"/><rect class="cls-6" x="29.19" y="17.51" width="2.39" height=".94" rx=".47" ry=".47"/><rect class="cls-6" x="32.22" y="17.51" width="2.39" height=".94" rx=".47" ry=".47"/><rect class="cls-6" x="35.24" y="17.67" width="2.39" height=".94" rx=".47" ry=".47" transform="translate(1.21 -2.24) rotate(3.59)"/><rect class="cls-6" x="38.13" y="17.98" width="2.39" height=".94" rx=".47" ry=".47" transform="translate(3.52 -6.14) rotate(9.35)"/><rect class="cls-6" x="9.46" y="21.78" width="2.39" height=".94" rx=".47" ry=".47" transform="translate(-13.47 27.41) rotate(-76.49)"/><rect class="cls-6" x="40.99" y="18.56" width="2.39" height=".94" rx=".47" ry=".47" transform="translate(5.61 -9.33) rotate(13.51)"/><rect class="cls-6" x="11.16" y="27.32" width="2.39" height=".94" rx=".47" ry=".47" transform="translate(16.33 -2.36) rotate(31.49)"/><rect class="cls-6" x="13.93" y="28.36" width="2.39" height=".94" rx=".47" ry=".47" transform="translate(9.99 -3.32) rotate(18.61)"/><rect class="cls-6" x="17" y="28.94" width="2.39" height=".94" rx=".47" ry=".47" transform="translate(4.09 -2.17) rotate(7.67)"/><rect class="cls-6" x="20.07" y="29.19" width="2.39" height=".94" rx=".47" ry=".47" transform="translate(2.47 -1.62) rotate(4.64)"/><rect class="cls-6" x="23.15" y="29.32" width="2.39" height=".94" rx=".47" ry=".47"/><rect class="cls-6" x="26.17" y="29.41" width="2.39" height=".94" rx=".47" ry=".47"/><rect class="cls-6" x="29.19" y="29.41" width="2.39" height=".94" rx=".47" ry=".47"/><rect class="cls-6" x="32.22" y="29.41" width="2.39" height=".94" rx=".47" ry=".47"/><rect class="cls-6" x="35.24" y="29.25" width="2.39" height=".94" rx=".47" ry=".47" transform="translate(-1.79 2.34) rotate(-3.59)"/><rect class="cls-6" x="38.13" y="28.94" width="2.39" height=".94" rx=".47" ry=".47" transform="translate(-4.26 6.78) rotate(-9.35)"/><rect class="cls-6" x="9.46" y="25.14" width="2.39" height=".94" rx=".47" ry=".47" transform="translate(33.06 9.27) rotate(76.49)"/><rect class="cls-6" x="40.99" y="28.36" width="2.39" height=".94" rx=".47" ry=".47" transform="translate(-5.57 10.66) rotate(-13.51)"/></g><rect class="cls-6" x="14.39" y="21.56" width="1" height="4.73"/><path class="cls-6" d="m14.89,20.81c-.41,0-.75.34-.75.75h1.5c0-.41-.34-.75-.75-.75Z"/><path class="cls-6" d="m14.89,27.04c.41,0,.75-.34.75-.75h-1.5c0,.41.34.75.75.75Z"/><path class="cls-3" d="m23.66,25.71c-.08-.37-.75-.54-1.49-.38l.28,1.33c.75-.16,1.29-.59,1.21-.95Z"/><path class="cls-3" d="m23.66,22.13c.08-.37-.46-.79-1.21-.95l-.28,1.33c.75.16,1.42-.01,1.49-.38Z"/><rect class="cls-6" x="40.17" y="20.81" width="2.52" height="6.22"/></g></g></g></g></svg>