<?xml version="1.0" encoding="utf-8"?>
<!-- Generator: Adobe Illustrator 28.0.0, SVG Export Plug-In . SVG Version: 6.00 Build 0)  -->
<svg version="1.1" xmlns="http://www.w3.org/2000/svg" xmlns:xlink="http://www.w3.org/1999/xlink" x="0px" y="0px"
	 viewBox="0 0 367 215" style="enable-background:new 0 0 367 215;" xml:space="preserve">
<style type="text/css">
	.st0{display:none;}
	.st1{display:inline;fill:#233557;}
	.st2{fill:#FFFFFF;}
	.st3{display:inline;fill:none;}
	.st4{display:inline;fill:#FFFFFF;}
</style>
<g id="Layer_2" class="st0">
	<rect x="0" class="st1" width="367" height="215"/>
</g>
<g id="Layer_1">
	<path id="unknown" class="st2" d="M207.2,83.2c-0.2-1.6-3.8,6-7.9,9.6c-3.6,3.1-9,4.9-11,11c-0.7,2.2,0.1,4.2,0.3,5.2
		c-0.8-0.3-1.1-3.6-5.5-3.6c-5.8,0-18.9,4.7-26.8,3c-0.5,4.4,27,13.3,32.9,13.4c1.8,0,0.5,8.5-0.5,10.7c-1.1,2.2,8.2-3.3,14.2-1.6
		s-7.9-9-6.3-11.8C198.2,116.4,210.5,106.8,207.2,83.2z"/>
	<g id="right" class="st0">
		<path class="st3" d="M232.7,100.9c-1.2-1.7-3.6-0.2-4.7,0.7c-1.4,1.1-3.3,3.2-2.2,5.1c0.5,0.9,1.8,1.4,2.8,1.3
			c1.3-0.2,2.2-1.4,3-2.2C232.7,104.6,233.7,102.4,232.7,100.9z"/>
		<path class="st3" d="M181.2,126.3c-0.4-0.2-0.5-0.5-0.5-0.9c0.1-0.5,0.4-1,0.7-1.4c0.3-0.4,1.1-1.4,0.1-1.2
			c-0.6,0.1-2.6,1-2.9-0.1c-0.5-1.9-1.4-3.2-2.9-4.4c-3-2.3-6.7-3.8-10.5-4.2c-2.7-0.3-7.5-0.4-8,3.1c7.8,4.9,16.1,8.9,25,11.4
			c0,0,0,0,0,0C184.3,127.8,182.3,126.8,181.2,126.3z"/>
		<path class="st4" d="M280.3,97.3c-0.1-0.4-0.4-0.8-0.7-1.1c-3.6-0.4-6.7-0.5-9.9-1.5c-1.6-0.5-3.2-1.1-4.7-2
			c-1.3-0.9-2.6-1.7-3.9-2.6c-3.3-2.2-7-0.5-10.1,0.9c-2.4,1-5,1.8-7.4,3c-2.4,1.2-3.9,3.5-3.9,6.2c0,1.3,0.1,2.5,0.2,3.8
			c0.2,1.6,0.6,3.3,0.4,4.9c-0.3,2.1-2.3,3.2-4.1,3.9c-1.5,0.5-4,1.5-5.3-0.1c-0.5-0.7-0.2-1,0.4-0.6c1.2,0.8,3.3,0.3,4.3-0.1
			c1.3-0.5,2.9-1.1,3.6-2.4c0.8-1.6,0.1-3.3-0.1-4.9c-0.2-1.3-0.3-2.6-0.3-3.9c0-1.9,0.3-3.8,1.5-5.3c1.3-1.7,3.3-2.5,5.3-3.3
			c2.6-1,5.2-2.3,7.9-3.1c2.6-0.8,5.3-1.5,7.7,0.1c1.3,0.8,2.8,2,4.1,2.8c1.6,0.9,3.2,1.6,5,2c4.1,1,8.6,1.1,8.6,1.1
			c-0.7-1.2-1.3-2.1-2-3.4c-0.3-0.7-0.7-1.5-1.3-2c-0.8-0.7-2.1-1-3.1-1.3c-3.8-1.1-7.8-1.5-11.8-1.9c-4.2-0.5-8.4-0.9-12.5-1.5
			c-1.2-0.2-2.5-0.4-3.6-0.8c-1.2-0.4-2.3-1.1-3.5-1.5c-1.3-0.4-2.6-0.2-3.8,0.3c-1.3,0.6-2.2,1.5-3.6,0.7c-1-0.6-1.8-1.2-3-1.3
			c-1.3,0-2.4,1.5-3.7,1.7c-7.9,1-19.5,1.2-28,0.2c-15.1-1.8-29.2-3.9-35.4-4.9c-17-2.8-34.1-1.2-50.4,3.8c0,0,0,0,0,0
			c-3.2-0.9-6.5-1.7-9.8-2.2c-3.2-0.5-6.4-0.2-9.6-0.9c-1.3-0.3-3.5-0.9-4.8-0.4c-1.6,0.6,1,2,1.4,2.3c1,0.7,1.8,1.7,2.2,2.9
			c0.3,1.1,0.1,2,1,2.9c0.6,0.6,1.4,0.8,2.1,1.1c0.9,0.4,1.5,0.7,0.9,1.6c-1.4,2.1-3.3,3.8-4.6,6c-1.4,2.5-0.7,5.2-1.3,7.9
			c-0.2,1-4.6,5.5-2.6,6c1,0.3,2.2-0.4,3-0.7c1.6-0.7,3.1-1.7,4.5-2.7c2.6-1.7,5.1-3.6,7.5-5.6c3.1-2.7,5.7-5.9,8.1-9.3
			c6.4,0.1,13.1,2.2,18.5,5.6c4.1,2.6,7.8,6,11.6,9c4.9,4,10,7.9,15.3,11.3c5.9,3.8,12.2,6.9,18.8,9.3c6.2,2.3,12.6,3.8,19.2,4.4
			c3.4,0.3,9.3,0.8,16.8-0.5c1.4-2.8,3.3-5.2,5.7-7.7c1.3-1.4,1.6-1.1,0.4,0.3c-2.4,2.6-4.4,5.9-5.7,9.2c-0.8,2.1-1.1,4.3-0.4,6.5
			c0.6,1.6,1.4,3.1,2.3,4.6c0,0,0,0,0,0c2.1,2.5,4.3,5.4,4.9,8.7c0.3,1.6,0.2,3.5,2.4,3.2c2.3-0.3,3.1-3.4,4.3-5
			c0.7-0.9,1.4-1.7,1.9-2.8c0.7-1.7,0.9-3.5,1.3-5.3c0.5-2.9,1.3-5.1,1.4-8.6c0-2.6-0.3-6.4,0.8-11.4c0.3-1.4,0.8-1.5,0.5,0
			c-0.4,1.8-0.3,3.6-0.4,5.5c4.1-1.7,7.7-3.7,11.3-6.3c4.5-3.2,22.2-14.2,27.4-17c2.3-1.2,4.6-2.4,6.9-3.5
			C277.9,101.1,280.9,99.7,280.3,97.3z M235.8,107.6c0.2,0,0.4,0.2,0.4,0.4s-0.2,0.4-0.4,0.4s-0.4-0.2-0.4-0.4
			S235.6,107.6,235.8,107.6z M182.2,128.7C182.2,128.7,182.2,128.7,182.2,128.7c-8.9-2.4-17.2-6.4-25-11.4c0.6-3.5,5.4-3.4,8-3.1
			c3.8,0.4,7.5,1.9,10.5,4.2c1.5,1.2,2.4,2.5,2.9,4.4c0.3,1.1,2.3,0.2,2.9,0.1c1-0.2,0.2,0.8-0.1,1.2c-0.3,0.4-0.6,0.9-0.7,1.4
			c-0.1,0.4,0.1,0.7,0.5,0.9C182.3,126.8,184.3,127.8,182.2,128.7z M228.6,108c-1,0.1-2.3-0.3-2.8-1.3c-1.1-1.9,0.9-4,2.2-5.1
			c1.1-0.9,3.6-2.4,4.7-0.7c1,1.5,0,3.7-1.1,4.9C230.7,106.6,229.9,107.9,228.6,108z"/>
		<path class="st4" d="M210.9,132.1c-1.8,0.3-2.9,0.4-5.5,0.7c-0.5,2-0.4,4-0.3,6.1c0,1.1,0.3,2,0.8,3c0.4,0.8,0.8,1.6,0.7,2.5
			c-0.1,0.7-0.4,1.4-0.6,2c-0.3,0.8-0.6,1.8-0.2,2.6c0.3,0.6,1.2,0.7,1.8,0.4c1-0.5,1.7-1.4,2.4-2.1c0.9-1,2.4-3.4,2.4-3.4
			c-0.9-1.7-2-3.4-2.4-5.2C209.5,136.9,209.7,135.5,210.9,132.1z"/>
	</g>
	<g id="humpback" class="st0">
		<path class="st4" d="M250.7,95.4c-5.1,0.5-10.3,1.2-15.2,2.7c-3.2,1-7.6,2-9.5,5.1c-1.4,2.3-1.9,5.1-2.3,7.8
			c-0.4,2.4-1,4.8-3.6,5.7c-1.3,0.4-2.6,0.5-4,0.2c-2-0.3-4-0.5-6-0.2c-3.8,0.4-6.7,1.3-10.4,2.4c-1.6,0.5-1.4,0.3-0.2-0.1
			c3.9-1.5,6.1-2.2,9.6-2.7c1.7-0.2,3.4-0.3,5.1-0.1c1.7,0.2,3.4,0.7,5.1,0.2c1.6-0.4,2.8-1.3,3.3-3.1c0.5-1.5,0.6-3.3,0.9-4.8
			c0.5-2.2,1.1-4.4,2.4-6.2c2-2.6,5.9-3.6,8.9-4.5c10.9-3.4,22.5-3.5,33.9-3.5c-0.3-1.7-2.8-2.8-4.2-3.2c-1.5-0.3-3.3-0.2-4.8-0.3
			c-2-0.1-14.3-0.2-18.4-0.3c-1.8-0.1-3.6-0.3-5.4,0c-2,0.3-3.9,1.1-5.9,1.5c-6.8,1.7-13.7,3.1-20.5,4.2c-6.9,1.1-13.8,1.9-20.8,2.2
			c-2.8,0.1-5.7,0.1-8.5-0.2c-1.3-0.1-2.5-0.2-3.7-0.8c-1.1-0.5-2-1.2-3.2-1.7c-1.3-0.6-2.6-0.9-3.9-1.3c-1.2-0.3-2.6-1.7-3.6-1.9
			c-2.1-0.3-2.9,2.4-4.2,3.7c-1.1,1-3.8,0.2-5.1,0c-1.7-0.3-3.3-0.7-4.9-1.3c-3.1-1.1-6-2.6-8.8-4.5c-1.4-1-2.8-2.1-4.1-3.2
			c-0.9-0.7-2.2-1.6-1.3-2.9c0.6-0.9,1.2-1.9,1.8-2.8c1.4-2.3,2.8-4.7,4.1-7.1c0.4-0.8,1.8-2.7,1.5-3.7c-0.4-1.3-2.6-0.4-3.4-0.1
			c-2.3,0.8-4.6,1.3-7,1.7c-1.7,0.3-3.5,0.1-5.1,0.5c-1,0.3-1.4,1.4-2.2,1.9c-1.1,0.7-2.8,0.2-4,0c-1.5-0.3-3-0.8-4.5-1.1
			c-2.7-0.6-5.6-0.8-8.3-0.2c-1.8,0.4-3.4,0.9-5.2,0.9c-1.8,0-3.6-0.3-5.4-0.2c-0.9,0.1-2.7,0.5-2.1,1.8c0.2,0.5,0.9,0.8,1.4,1
			c1.9,0.8,3.8,1.5,5.7,2.3c3.5,1.4,7,2.8,10.4,4.3c2.8,1.2,6,2.4,8.3,4.4c1.8,1.6,2.7,4.1,3.7,6.2c1.3,3,2.5,6.1,4,9.1
			c3,6.3,7.1,11.9,12.6,16.3c7.9,6.3,18.4,9.8,28.2,11.9c3.5-2.3,9.2-5.7,12.8-7.3c5-2.3,10.3-3,15.9-3.9c1.3-0.2,1.1,0.1,0.3,0.2
			c-6,1.1-10.7,1.8-15.4,3.9c-3.3,1.5-8.9,4.6-11.8,6.6c-0.3,0.2-0.7,0.5-1,0.7c0,0,0,0,0,0c-0.1,0-0.1,0.1-0.2,0.1
			c-0.2,0.1-0.3,0.2-0.5,0.3c0,0,0,0,0,0c-4.1,2.6-8.5,5-13,6.9c-1.7,0.7-10.3,3.8-7.3,7c1.9,2,5.6,2.2,8.2,2.1
			c2.9-0.1,6.1-0.7,8.7-1.9c1.9-0.9,3.6-2,5.5-2.9c2.6-1.1,5.4-1.6,8.1-1.8c2.5-0.2,4.5-0.6,6.6-2.1c2.3-1.5,4.3-3.1,6.9-3.9
			c1.5-0.5,3.2-0.7,4.7-1.3c0.9-0.3,2.6-1.2,2.5-1.2c3-2.2,8.2-6.8,11-9.3c0.2-0.2,0.9-0.7,0.6-0.3c-0.5,0.6-1.1,1.3-1.6,1.7
			c-2,1.8-6,5.5-8.6,7.5c0.6-0.2,1.1-0.4,1.6-0.5c0.8-0.3,9-3,10.2-3.5c6.6-2.4,16-6.4,22.9-10.4c3.3-1.9,6.6-4,9.8-6.1
			c3.3-2.2,6.7-4.1,10.3-6c2.4-1.2,5.2-2.5,6.8-4.8c0.6-0.9,2.9-5.1,3.2-6.3c0-0.1,0-0.3,0-0.4C262.7,94.8,256.7,94.8,250.7,95.4z
			 M219.2,112.8c0.7,0,0.7,1.1,0,1.1C218.5,114,218.5,112.9,219.2,112.8z"/>
		<path class="st4" d="M205.9,132.6c-1.6,3.9-3.3,7.7-5.1,11.4c-2.1,4.4-4.9,8.3-7,12.6c-0.6,1.3-1.4,3.8,0.6,4.2
			c1.2,0.3,2.6,0.1,3.8-0.2c1.2-0.3,2.2-1.3,3.1-2c0.6-0.5,1.3-1.1,1.8-1.2c0.3,0,1,0,1.3-0.1c1.2-0.2,1.5-1,2-1.9
			c1.2-2.6,2.2-5.4,3.6-8c0.6-1.2,1.5-2.1,2.4-3.1c1.1-1.3,1.4-2.7,1.5-4.4c0.2-4.1,1.7-7.4,3-11C216.4,129,206.6,132.3,205.9,132.6
			z"/>
	</g>
</g>
</svg>
